<svg xmlns="http://www.w3.org/2000/svg" version="1.0" preserveAspectRatio="xMidYMid meet"
     viewBox="798.12 627.1 2121.88 697.9">

    <g transform="translate(0.000000,2083.000000) scale(0.100000,-0.100000)" fill="#000000" stroke="none">
        <path
            d="M9230 14546 c-137 -31 -263 -89 -370 -171 -179 -138 -303 -357 -332 -590 -11 -87 1 -256 195 -2831 114 -1507 209 -2751 210 -2766 l3 -27 -40 25 c-23 14 -47 28 -54 33 -16 9 -4 -137 -137 1626 -58 765 -119 1566 -135 1780 -16 215 -57 745 -90 1179 -33 434 -60 834 -60 890 1 248 99 484 279 669 l76 79 -50 -7 c-80 -11 -224 -63 -299 -107 -37 -22 -102 -72 -142 -111 -166 -157 -254 -356 -254 -577 0 -52 99 -1224 220 -2604 121 -1380 219 -2511 216 -2513 -8 -8 -168 174 -231 262 -111 155 -199 355 -239 540 -19 93 -20 41 -1 -71 51 -292 189 -539 444 -795 226 -226 386 -336 689 -474 206 -94 384 -158 671 -240 444 -127 695 -165 1083 -165 127 0 283 7 362 15 811 86 1613 454 2289 1051 l46 41 -39 2179 c-42 2337 -43 2418 -60 2509 -95 517 -505 921 -1020 1005 -84 13 -2953 180 -3079 179 -53 -1 -121 -7 -151 -13z m655 -171 c231 -13 452 -27 490 -30 39 -3 390 -24 780 -45 1314 -73 1281 -71 1430 -117 158 -50 287 -127 412 -246 133 -128 200 -226 267 -395 43 -107 64 -210 71 -339 3 -54 14 -627 25 -1273 11 -646 21 -1223 23 -1281 l2 -107 -36 69 c-112 212 -312 336 -594 369 -104 12 -2889 -42 -3107 -60 -70 -6 -161 -19 -202 -30 -226 -58 -422 -237 -500 -457 l-14 -38 -6 35 c-3 19 -26 312 -51 650 -46 609 -63 841 -150 1983 -25 323 -45 608 -45 633 0 64 27 189 57 258 112 267 370 442 653 445 41 1 264 -10 495 -24z m1292 -3782 c-8 -45 -25 -67 -42 -53 -10 8 -11 20 -3 48 17 63 55 67 45 5z m-114 -11 c21 -36 17 -65 -8 -56 -21 8 -48 62 -41 81 9 21 28 11 49 -25z m215 -45 c3 -16 -44 -47 -73 -47 -26 0 -16 29 18 50 36 22 50 21 55 -3z m-297 -29 c28 -8 39 -17 39 -31 0 -17 -5 -18 -37 -12 -42 7 -69 27 -59 44 9 14 10 14 57 -1z m284 -139 c88 -72 161 -136 163 -144 2 -9 -12 -18 -40 -26 -24 -6 -49 -13 -56 -15 -10 -3 -4 -21 21 -67 53 -95 53 -100 8 -125 -21 -12 -46 -22 -55 -22 -9 0 -32 30 -57 75 l-41 75 -41 -35 c-29 -25 -44 -32 -52 -25 -7 6 -16 49 -19 98 -9 124 -16 199 -22 264 -6 59 -1 78 19 78 7 0 84 -59 172 -131z m895 89 c68 -35 84 -65 88 -161 5 -139 -59 -341 -160 -498 -291 -454 -899 -622 -1393 -384 -331 160 -576 504 -592 830 -5 93 -3 102 18 134 35 50 68 71 124 77 40 4 59 1 94 -18 63 -32 79 -60 97 -163 30 -174 107 -319 229 -433 202 -190 471 -246 750 -158 239 76 431 286 480 525 8 42 20 98 25 125 13 63 43 104 94 127 54 25 93 24 146 -3z m-1133 -55 c5 -14 -53 -53 -79 -53 -29 0 -20 29 15 50 34 22 58 23 64 3z"/>
        <path
            d="M10450 14059 c-169 -68 -180 -307 -18 -390 33 -17 95 -22 550 -44 653 -32 682 -32 739 -2 87 46 131 167 95 262 -21 53 -81 110 -133 124 -34 10 -1038 62 -1158 60 -27 0 -61 -5 -75 -10z"/>
        <path
            d="M25950 13768 c-36 -5 -105 -23 -155 -39 -292 -98 -508 -326 -601 -634 -27 -89 -28 -95 -32 -417 l-4 -328 -159 0 -159 0 0 -330 0 -330 160 0 160 0 0 -905 0 -905 325 0 325 0 0 905 0 905 290 0 290 0 0 330 0 330 -291 0 -290 0 3 283 3 282 27 51 c28 53 76 102 131 131 23 13 55 18 117 18 95 0 130 -13 191 -71 l35 -34 254 193 c139 106 255 198 258 205 7 22 -169 184 -256 236 -187 111 -406 155 -622 124z"/>
        <path
            d="M15666 12072 c-336 -719 -635 -1361 -666 -1427 -183 -389 -370 -792 -370 -798 0 -4 160 -7 356 -7 l355 0 60 128 c33 70 83 175 111 235 l51 107 700 -2 699 -3 106 -232 105 -233 354 0 c206 0 353 4 353 9 0 5 -291 650 -646 1433 -355 782 -713 1572 -796 1753 -82 182 -152 333 -156 337 -4 3 -281 -582 -616 -1300z m815 -707 l186 -410 -204 -3 c-112 -1 -293 -1 -402 0 l-198 3 159 340 c254 546 248 534 262 505 6 -14 95 -209 197 -435z"/>
        <path
            d="M19294 12345 c-152 -23 -292 -75 -395 -145 l-59 -40 0 65 0 65 -325 0 -325 0 0 -1780 0 -1780 325 0 325 0 0 625 0 625 70 -35 c92 -47 223 -90 335 -110 137 -26 385 -17 520 19 484 130 848 524 936 1016 20 109 17 355 -5 459 -55 260 -171 476 -351 656 -279 279 -682 418 -1051 360z m310 -665 c113 -29 190 -73 276 -160 127 -126 183 -263 182 -440 -1 -230 -129 -439 -332 -539 -187 -92 -368 -93 -549 -4 -106 52 -222 169 -273 273 -120 248 -75 521 120 715 71 71 185 137 279 159 86 21 206 19 297 -4z"/>
        <path
            d="M22155 12350 c-97 -14 -192 -38 -271 -70 -74 -29 -176 -89 -188 -109 -17 -26 -26 -6 -26 54 l0 65 -325 0 -325 0 0 -1780 0 -1780 325 0 325 0 0 624 0 625 83 -39 c182 -86 335 -120 532 -120 270 0 483 65 715 218 157 104 329 301 419 480 47 94 98 253 117 367 25 154 15 364 -25 518 -106 413 -421 754 -822 888 -50 17 -125 37 -167 45 -95 18 -287 26 -367 14z m257 -661 c29 -6 94 -30 143 -54 148 -71 254 -192 313 -357 23 -63 26 -89 26 -188 0 -97 -5 -127 -27 -195 -79 -237 -290 -403 -539 -421 -293 -21 -571 185 -639 476 -17 75 -15 212 5 289 57 222 250 406 471 451 60 12 187 11 247 -1z"/>
        <path d="M23870 11070 l0 -1190 325 0 325 0 0 1190 0 1190 -325 0 -325 0 0 -1190z"/>
        <path
            d="M26630 12227 c0 -2 208 -426 461 -943 254 -516 462 -944 462 -949 0 -6 -174 -371 -386 -812 -213 -441 -387 -804 -387 -807 0 -3 163 -5 362 -4 l362 3 822 1705 c453 938 835 1729 848 1758 l26 52 -363 0 -363 0 -275 -570 c-151 -313 -276 -570 -279 -570 -3 0 -131 257 -285 570 l-279 570 -363 0 c-200 0 -363 -2 -363 -3z"/>
    </g>
</svg>
