<?xml version="1.0" standalone="no"?>
<!DOCTYPE svg PUBLIC "-//W3C//DTD SVG 20010904//EN"
    "http://www.w3.org/TR/2001/REC-SVG-20010904/DTD/svg10.dtd">
<svg version="1.0" xmlns="http://www.w3.org/2000/svg"
     width="2123.000000pt" height="700.000000pt" viewBox="0 0 2123.000000 700.000000"
     preserveAspectRatio="xMidYMid meet">

    <g transform="translate(0.000000,700.000000) scale(0.100000,-0.100000)"
       fill="#000000" stroke="none">
        <path d="M1265 6975 c-185 -34 -340 -120 -475 -261 -159 -167 -240 -370 -240
-599 0 -53 92 -1312 205 -2798 113 -1486 204 -2708 203 -2715 -2 -8 -21 0 -55
23 -49 33 -52 37 -57 87 -4 29 -97 1243 -207 2698 -158 2086 -200 2668 -195
2755 6 134 32 238 91 362 54 116 91 168 182 264 l73 76 -58 -9 c-362 -55 -643
-362 -676 -738 -6 -58 44 -656 213 -2585 121 -1380 223 -2530 225 -2555 l5
-45 -78 82 c-193 201 -317 417 -386 673 -29 107 -31 80 -4 -53 75 -371 333
-721 752 -1019 136 -98 420 -234 689 -331 166 -61 559 -172 727 -207 262 -54
380 -65 701 -65 316 0 435 10 690 61 446 88 892 265 1307 517 244 147 379 247
680 502 l24 20 -40 2240 c-22 1232 -45 2292 -50 2355 -52 568 -491 1027 -1054
1100 -95 13 -2964 180 -3059 179 -34 0 -94 -7 -133 -14z m680 -170 c226 -14
689 -41 1030 -60 875 -49 1283 -74 1407 -85 478 -46 859 -390 959 -865 18 -82
22 -209 44 -1380 14 -710 25 -1326 25 -1370 l0 -80 -30 58 c-102 201 -275 326
-518 373 -103 20 -340 18 -1742 -10 -1550 -32 -1550 -32 -1700 -82 -201 -67
-381 -246 -449 -447 l-18 -52 -7 65 c-3 36 -61 778 -127 1650 -109 1428 -120
1594 -110 1671 39 308 246 540 556 624 73 20 220 18 680 -10z m1252 -3801
c-19 -52 -43 -53 -40 0 3 49 20 73 40 53 11 -11 11 -19 0 -53z m-110 12 c17
-37 12 -69 -10 -60 -17 6 -45 65 -40 82 8 23 33 12 50 -22z m223 -50 c0 -18
-64 -50 -84 -43 -26 10 -19 25 21 46 39 19 63 18 63 -3z m-294 -31 c36 -15 42
-37 12 -43 -9 -2 -32 4 -52 12 -25 11 -34 19 -30 30 8 20 25 20 70 1z m273
-137 c104 -84 161 -137 159 -147 -2 -10 -20 -19 -51 -25 -26 -5 -47 -13 -47
-18 0 -5 16 -40 35 -78 19 -38 35 -74 35 -80 0 -11 -72 -50 -94 -50 -9 0 -31
30 -52 73 -20 39 -38 74 -40 76 -2 2 -22 -13 -45 -34 -31 -27 -44 -34 -52 -26
-11 11 -46 408 -39 431 8 23 37 4 191 -122z m895 92 c23 -11 52 -36 66 -57 53
-78 22 -287 -70 -480 -54 -114 -110 -194 -203 -290 -134 -138 -292 -233 -479
-287 -505 -146 -1044 92 -1278 563 -66 132 -93 232 -94 348 -1 88 2 105 20
129 47 64 124 89 197 65 49 -17 104 -80 111 -128 33 -224 127 -400 278 -518
152 -119 280 -159 488 -153 118 4 146 9 223 35 121 42 188 85 282 178 116 115
181 246 205 413 15 102 42 150 100 180 55 27 101 28 154 2z m-1139 -60 c0 -18
-61 -54 -80 -46 -20 7 -8 34 24 51 31 17 56 15 56 -5z"/>
        <path d="M2465 6481 c-168 -78 -164 -314 6 -385 29 -12 170 -22 626 -43 l590
-27 49 25 c131 67 154 244 44 343 -21 19 -56 39 -77 44 -28 8 -1132 65 -1188
62 -5 0 -28 -9 -50 -19z"/>
        <path d="M18000 6199 c-388 -47 -716 -349 -794 -731 -13 -60 -16 -143 -16
-383 l0 -305 -160 0 -160 0 0 -325 0 -324 158 -3 157 -3 3 -907 2 -908 320 0
320 0 2 908 3 907 288 3 287 2 0 325 0 325 -291 0 -290 0 3 278 c3 257 5 280
24 323 82 177 291 226 441 103 24 -20 49 -33 56 -30 27 12 491 372 495 384 7
21 -155 173 -241 226 -179 112 -398 161 -607 135z"/>
        <path d="M7477 4043 l-825 -1768 351 -3 c273 -2 354 1 362 10 6 7 58 113 115
236 l104 222 701 0 700 0 106 -232 105 -233 352 -3 c246 -1 352 1 352 8 0 6
-352 786 -782 1733 -429 947 -789 1739 -798 1760 l-17 38 -826 -1768z m1017
-220 c108 -238 196 -435 196 -438 0 -3 -182 -5 -404 -5 l-404 0 206 440 c113
242 206 439 208 438 1 -2 90 -198 198 -435z"/>
        <path d="M11410 4783 c-206 -19 -371 -73 -493 -159 -26 -19 -49 -34 -52 -34
-3 0 -5 27 -5 60 l0 60 -325 0 -325 0 0 -1775 0 -1775 325 0 325 0 0 625 c0
344 2 625 4 625 2 0 46 -20 97 -44 110 -52 232 -90 349 -107 124 -18 340 -6
465 25 254 63 493 209 654 401 88 104 120 152 175 262 85 169 124 324 133 518
27 594 -369 1131 -943 1280 -79 20 -290 48 -334 43 -8 0 -31 -3 -50 -5z m269
-683 c238 -84 411 -328 411 -581 0 -93 -29 -209 -72 -292 -43 -82 -173 -212
-255 -255 -240 -126 -521 -83 -714 108 -171 168 -227 397 -155 626 61 191 221
345 421 406 86 26 274 19 364 -12z"/>
        <path d="M14205 4780 c-166 -17 -326 -69 -438 -145 -37 -25 -70 -45 -72 -45
-3 0 -5 27 -5 60 l0 60 -320 0 -320 0 0 -1775 0 -1775 320 0 320 0 0 625 c0
344 2 625 4 625 2 0 41 -18 87 -39 179 -84 342 -121 535 -121 609 0 1137 447
1238 1049 20 119 21 322 1 434 -46 262 -161 483 -355 678 -105 107 -211 185
-335 247 -192 95 -447 143 -660 122z m250 -665 c110 -28 203 -81 285 -164 121
-122 181 -262 182 -426 3 -360 -290 -643 -645 -622 -296 16 -539 243 -575 538
-24 192 38 369 178 510 81 81 174 135 280 163 73 19 221 20 295 1z"/>
        <path d="M15900 3495 l0 -1185 325 0 325 0 0 1185 0 1185 -325 0 -325 0 0
-1185z"/>
        <path d="M18660 4653 c0 -5 207 -430 460 -946 253 -516 460 -942 460 -946 0
-3 -175 -369 -389 -811 l-388 -805 355 -3 c196 -1 359 1 364 6 4 4 388 795
853 1758 l844 1749 -352 3 c-193 1 -356 0 -362 -2 -5 -2 -134 -261 -285 -574
-151 -314 -278 -568 -281 -564 -4 4 -131 262 -284 575 l-278 567 -359 0 c-197
0 -358 -3 -358 -7z"/>
    </g>
</svg>
