<?xml version="1.0" standalone="no"?>
<!DOCTYPE svg PUBLIC "-//W3C//DTD SVG 20010904//EN"
    "http://www.w3.org/TR/2001/REC-SVG-20010904/DTD/svg10.dtd">
<svg version="1.0" xmlns="http://www.w3.org/2000/svg"
     width="1578.000000pt" height="442.000000pt" viewBox="0 0 1578.000000 442.000000"
     preserveAspectRatio="xMidYMid meet">

    <g transform="translate(0.000000,442.000000) scale(0.100000,-0.100000)"
       fill="#ffffff" stroke="none">
        <path d="M1506 4399 c-274 -111 -527 -477 -651 -941 l-18 -67 -111 -35 c-61
-19 -158 -49 -216 -67 -134 -41 -174 -61 -188 -96 -7 -15 -82 -567 -167 -1226
-113 -875 -155 -1226 -155 -1302 l0 -103 48 -10 c177 -37 2373 -444 2377 -441
7 7 169 3808 162 3815 -3 3 -34 -3 -68 -15 -34 -11 -63 -20 -64 -18 -1 1 -27
55 -58 119 -44 91 -70 131 -116 178 -70 71 -158 116 -246 126 -53 6 -66 12
-113 56 l-54 48 -156 -1 c-132 0 -165 -3 -206 -20z m286 -117 c6 -6 -6 -18
-35 -36 -177 -103 -328 -348 -390 -631 l-13 -60 -142 -47 c-78 -25 -155 -49
-172 -53 l-30 -7 41 119 c140 408 360 674 596 722 55 11 130 8 145 -7z m386
-185 c44 -43 120 -181 125 -226 2 -22 -5 -27 -83 -52 -126 -42 -120 -45 -120
60 0 76 -11 157 -37 269 l-6 23 39 -16 c22 -9 58 -35 82 -58z m-254 -32 c21
-78 43 -313 30 -324 -8 -8 -403 -131 -419 -131 -21 0 47 183 105 281 21 36 60
90 87 119 52 58 162 135 174 123 4 -5 15 -35 23 -68z m-129 -1115 c75 -11 161
-34 185 -50 13 -8 4 -42 -59 -232 -41 -123 -77 -233 -82 -245 l-8 -21 -61 25
c-203 82 -436 62 -501 -43 -47 -77 -44 -149 11 -216 17 -20 90 -82 164 -137
207 -156 296 -261 348 -411 19 -55 23 -85 23 -195 -1 -153 -16 -221 -76 -344
-32 -64 -59 -102 -113 -156 -117 -116 -251 -169 -431 -168 -204 1 -377 57
-535 174 -114 83 -110 59 -45 270 31 101 57 185 60 187 2 2 27 -14 57 -36 105
-77 202 -123 303 -143 153 -30 258 88 212 235 -22 68 -57 108 -198 227 -219
184 -277 301 -266 534 19 395 295 683 713 744 83 12 217 12 299 1z"/>
        <path d="M2650 3898 c0 -18 -36 -876 -81 -1906 -44 -1031 -79 -1876 -76 -1878
6 -6 1286 271 1294 280 4 3 -100 730 -231 1614 -171 1161 -241 1610 -251 1618
-8 6 -95 17 -194 24 l-179 13 -133 133 c-74 74 -137 134 -141 134 -5 0 -8 -15
-8 -32z"/>
        <path d="M13540 3566 c-159 -37 -260 -88 -362 -184 -81 -77 -136 -154 -184
-257 -37 -81 -77 -211 -94 -306 -19 -108 -5 -99 -144 -99 l-122 0 -37 -192
c-20 -106 -37 -196 -37 -200 0 -5 54 -8 120 -8 89 0 120 -3 120 -12 0 -7 -63
-339 -139 -738 l-138 -725 260 -3 c143 -1 262 0 265 2 3 4 222 1145 276 1439
l7 37 184 0 c102 0 185 3 185 8 0 4 16 90 35 192 19 102 35 188 35 193 0 4
-81 7 -180 7 -150 0 -180 2 -180 14 0 38 33 167 56 215 73 160 202 225 376
189 l66 -14 47 195 c26 108 50 201 52 208 3 7 -17 18 -49 29 -70 22 -339 29
-418 10z"/>
        <path d="M6380 3536 c0 -2 -112 -593 -249 -1312 -137 -720 -252 -1326 -256
-1347 l-7 -37 264 0 264 0 88 473 c97 513 118 601 175 722 116 244 315 360
436 253 51 -44 59 -81 51 -232 -5 -107 -25 -230 -109 -671 l-103 -540 259 -3
c143 -1 262 0 265 3 7 7 209 1082 227 1208 19 136 19 304 0 385 -55 231 -237
347 -494 315 -157 -20 -284 -84 -408 -206 -40 -39 -73 -67 -73 -61 0 9 184
982 195 1032 l5 22 -265 0 c-146 0 -265 -2 -265 -4z"/>
        <path d="M12195 3507 c-94 -32 -159 -88 -197 -172 -27 -61 -30 -180 -6 -236
23 -52 77 -109 123 -130 51 -24 155 -25 224 -2 61 19 134 80 161 134 73 143
35 313 -86 381 -62 34 -157 45 -219 25z"/>
        <path d="M8760 2750 c-322 -45 -604 -257 -767 -576 -104 -203 -146 -382 -146
-619 0 -146 2 -168 27 -250 34 -111 86 -210 149 -280 240 -270 726 -297 1082
-60 93 62 231 201 293 295 121 183 191 396 213 645 37 424 -157 746 -501 830
-80 19 -262 27 -350 15z m185 -426 c45 -23 98 -94 117 -157 20 -65 14 -273
-10 -389 -60 -278 -172 -478 -308 -544 -46 -22 -64 -26 -118 -22 -95 6 -150
43 -196 132 -34 67 -35 73 -38 200 -3 103 1 152 17 231 57 279 164 472 301
543 58 30 72 33 130 30 40 -2 81 -11 105 -24z"/>
        <path d="M10850 2744 c-135 -29 -299 -133 -394 -250 -26 -31 -46 -52 -46 -47
0 4 7 64 15 133 8 69 15 131 15 138 0 9 -53 12 -233 12 l-234 0 -22 -167 c-39
-287 -75 -488 -266 -1491 -102 -535 -185 -975 -185 -977 0 -3 118 -5 263 -5
l263 0 73 387 c40 214 74 389 76 391 2 2 32 -7 67 -21 183 -73 422 -55 633 47
304 147 528 467 617 882 19 90 23 139 23 284 0 209 -15 288 -80 419 -111 221
-330 320 -585 265z m4 -447 c85 -49 124 -180 105 -360 -26 -255 -129 -498
-266 -628 -82 -78 -139 -103 -233 -104 -66 0 -85 5 -143 33 -37 18 -67 38 -67
44 0 30 93 532 111 597 40 147 130 306 210 370 91 74 205 93 283 48z"/>
        <path d="M5227 2734 c-235 -42 -430 -178 -517 -358 -48 -102 -64 -182 -57
-292 4 -73 11 -97 43 -162 49 -99 147 -198 274 -276 52 -32 116 -74 143 -93
135 -99 135 -268 0 -334 -96 -47 -321 -20 -496 59 -37 17 -67 30 -67 28 0 -1
-29 -85 -65 -185 -35 -101 -62 -187 -60 -191 3 -5 40 -23 83 -41 290 -121 643
-115 910 16 172 85 290 233 327 410 56 268 -53 462 -365 650 -130 78 -165 108
-190 160 -39 80 -6 161 84 207 81 41 257 34 409 -17 48 -17 69 -20 73 -12 42
115 113 362 107 368 -17 17 -121 49 -209 64 -107 19 -321 18 -427 -1z"/>
        <path d="M11890 2715 c0 -2 -79 -420 -175 -927 -96 -507 -175 -928 -175 -935
0 -11 52 -13 262 -11 l262 3 178 915 c97 503 177 925 177 938 l1 22 -265 0
c-146 0 -265 -2 -265 -5z"/>
        <path d="M13874 2693 c28 -136 316 -1714 316 -1733 0 -67 -168 -275 -294 -365
-65 -46 -224 -129 -269 -140 -15 -4 -29 -10 -32 -14 -2 -4 27 -105 66 -224 79
-245 69 -233 170 -198 368 126 678 463 1012 1101 75 144 747 1575 747 1591 0
5 -123 9 -273 9 l-272 0 -54 -137 c-111 -283 -294 -774 -358 -962 -48 -138
-69 -189 -74 -175 -4 10 -14 98 -23 194 -24 263 -106 1053 -111 1068 -3 9 -69
12 -280 12 l-277 0 6 -27z"/>
    </g>
</svg>
