<?xml version="1.0" encoding="utf-8"?>
<!-- Generator: Adobe Illustrator 26.5.0, SVG Export Plug-In . SVG Version: 6.00 Build 0)  -->
<svg version="1.1" id="Layer_1" xmlns="http://www.w3.org/2000/svg" x="0px"
     y="0px"
     viewBox="0 0 2121.9 697.9" style="enable-background:new 0 0 2121.9 697.9;" xml:space="preserve">
<style type="text/css">
	.st0{fill:#02143A;}
	.st1{fill:#F4B41A;}
</style>
    <g>
	<g>
		<g>
			<g>
				<g>
					<path class="st0" d="M547.7,140.8c-0.6-30.7-12.5-59.8-33.7-81.9s-49.7-35.3-80.2-37.1L149.3,5.2c-25-1.5-49.4,8-66.9,25.9
						C64.8,49,55.8,73.6,57.7,98.7l40.8,537.4c-0.3-0.2-0.6-0.4-0.9-0.6c-3.5-2.2-6.9-4.4-10.3-6.7L47.1,99.5
						c-2.1-27.1,6.8-53.1,25-73.2c2.9-3.2,6.1-6.2,9.4-9c-43.3,3.9-76.4,42.4-72.4,87l27.5,313c0.4-0.1,0.7-0.1,0.7-0.1
						c-0.2,0.1-0.4,0.2-0.6,0.3l16.2,184.1c-2.9-2.8-5.7-5.5-8.4-8.3c-7.1-7.6-13.3-15.4-18.4-23c-5-7.6-9-15-12-21.9
						c-1.4-3.5-2.8-6.7-3.8-9.7c-0.5-1.5-1.1-3-1.5-4.4s-0.8-2.8-1.2-4.1c-0.8-2.6-1.2-4.9-1.7-7c-0.5-2-0.8-3.8-1.1-5.2
						c-0.5-2.8-0.8-4.4-0.8-4.4s0.1,1.5,0.4,4.4c0.1,1.5,0.2,3.2,0.6,5.3c0.3,2.1,0.6,4.5,1.2,7.2c1,5.3,2.7,11.8,5.3,18.9
						c2.6,7.1,6.2,15,11.1,23c4.8,8.1,10.8,16.4,17.9,24.5s15.2,16,24.3,23.5c7.5,6.2,15.5,12.1,23.9,17.7
						c28.3,15.8,58.7,28.3,90.8,36.9c-2.8-1.1-5.6-2.2-8.4-3.3c23.9,8.7,51.6,16,82.9,19.3c150.3,15.9,261.2-72.8,286.8-94.5
						c5.1-4.2,10.1-8.6,15-13.1L547.7,140.8L547.7,140.8L547.7,140.8z M425,432.8c-7.8,51.4-51.6,89.3-104.2,90.3
						c-40.5,0.8-78.3-21.2-97-56.6c-6.8-12.9-11.3-26.5-11.5-41.2c-0.1-8.4,6.1-15.2,14.1-16.3c8.8-1.2,16.6,3.5,19,11.7
						c0.6,1.9,0.6,4,0.9,6c4.9,35,34.4,61.7,69,62.5c37.9,0.9,68.3-22.9,75.2-58.8c0.5-2.7,0.7-5.5,1.1-8.2
						c1.4-9.6,9.2-16.1,18.6-15.3c9,0.8,15.5,8.1,15.4,17.6C425.6,427.3,425.4,430,425,432.8L425,432.8L425,432.8z M484.9,359.5
						c-12.3-2.7-24.8-2.3-37.3-2.1c-86.7,1.8-173.4,3.6-260.2,5.4c-9.7,0.2-19.3,0.8-29,2c-20.1,2.5-35.9,12-48.4,27.5
						c-6.5,8-10.2,17.1-12.7,26.7L73,97.5c-1.6-20.6,5.8-41,20.3-55.7s34.6-22.5,55.1-21.4l85.1,5c3.8,0.3,7.7,0.6,11.5,0.9
						c43.8,2.4,87.5,4.8,131.3,7.2c4.7,0.3,9.4,0.7,14.2,1L433,37c54.8,3.2,98.5,48.9,99.5,104l4.8,261.9
						C528.3,379.8,510.8,365.2,484.9,359.5L484.9,359.5L484.9,359.5z"/>
                    <path class="st0" d="M363.7,58.5l-107.8-5.1c-11.4-0.5-21,8.3-21.6,19.7l0,0c-0.5,11.4,8.2,21.1,19.6,21.6l107.8,5.1
						c11.4,0.5,21-8.3,21.5-19.7C383.9,68.7,375.1,59,363.7,58.5L363.7,58.5L363.7,58.5z"/>
				</g>
                <g>
					<path class="st1" d="M334.2,443.5c0,0.6-0.3,1.2-0.6,1.8C333.4,444.5,333.5,443.9,334.2,443.5z"/>
                    <path class="st1" d="M330.7,457.2c-0.4-0.5-0.8-1-1.1-1.6c-2.3-4.4-4.6-8.9-7-13.3c-0.1-0.2-0.1-0.4-0.2-0.6
						c-0.2,0.2-0.4,0.3-0.5,0.5c-2.1,2-4.3,4-6.4,6c-1.1,1-2.7,0.8-3.2-0.5c-0.1-0.3-0.2-0.7-0.2-1c-1-13.1-2-26.2-3-39.2
						c-0.1-1.7,1.1-2.9,2.5-2.4c0.3,0.1,0.6,0.3,0.9,0.5c10.2,8.3,20.3,16.5,30.5,24.8c1.3,1,1.3,2.6,0.1,3.4
						c-0.3,0.2-0.7,0.3-1,0.4c-2.8,0.6-5.5,1.3-8.3,1.9c-0.2,0-0.4,0.1-0.7,0.2c0.1,0.2,0.2,0.4,0.3,0.6c2.3,4.4,4.6,8.8,6.9,13.3
						c0.3,0.6,0.5,1.2,0.7,1.8l-0.3,0.9c-0.5,0.4-1,0.8-1.5,1.1c-1.9,1-3.9,2.1-5.8,3.1c-0.5,0.3-1.1,0.4-1.7,0.6
						C331.3,457.4,331,457.3,330.7,457.2L330.7,457.2L330.7,457.2z"/>
                    <path class="st1" d="M309.5,400.9c-0.4,1-0.9,1.5-1.7,1.6c-0.8,0.1-1.5-0.2-1.9-0.9c-0.4-0.6-0.7-1.3-1.1-2
						c-0.6-1.2-1.3-2.4-1.9-3.6c-0.4-0.8-0.3-1.6,0.3-2.2c0.5-0.6,1.4-0.9,2.1-0.5c0.4,0.2,0.8,0.6,1.1,1c1,1.8,1.9,3.5,2.8,5.3
						C309.5,400.1,309.5,400.6,309.5,400.9L309.5,400.9z"/>
                    <path class="st1" d="M318.8,397.3c-0.3,0.9-0.5,1.8-0.9,2.7c-0.4,1.2-1.4,1.8-2.5,1.4c-1.1-0.3-1.6-1.4-1.2-2.6
						c0.6-1.9,1.1-3.8,1.8-5.6c0.3-1,1.2-1.6,2.2-1.5c0.9,0.1,1.6,1,1.6,1.9c0,0.3-0.1,0.6-0.2,0.9
						C319.4,395.5,319.1,396.4,318.8,397.3L318.8,397.3L318.8,397.3z"/>
                    <path class="st1" d="M298.4,408c-0.9-0.3-1.9-0.6-2.8-0.9c-1.2-0.4-1.8-1.5-1.4-2.5c0.4-1.1,1.4-1.6,2.6-1.2
						c1.9,0.6,3.7,1.1,5.6,1.7c1.2,0.4,1.8,1.4,1.4,2.5c-0.3,1.1-1.4,1.6-2.5,1.3C300.3,408.6,299.4,408.3,298.4,408L298.4,408
						L298.4,408z"/>
                    <path class="st1" d="M304,415.8c-0.2,0.2-0.5,0.6-0.9,0.9c-1.8,1-3.6,1.9-5.4,2.9c-1,0.5-2.1,0.1-2.6-0.8
						c-0.5-1-0.2-2.1,0.8-2.6c1.8-1,3.7-2,5.5-2.9c0.8-0.4,1.5-0.3,2.2,0.3C304.1,414,304.2,414.7,304,415.8L304,415.8L304,415.8z"
                    />
                    <path class="st1" d="M329.8,402.1c-0.4,0.4-0.7,0.8-1.1,1c-1.8,1-3.6,1.9-5.4,2.8c-1,0.5-2.2,0.2-2.7-0.8s-0.2-2.1,0.8-2.7
						c1.8-1,3.6-1.9,5.4-2.9c0.8-0.4,1.5-0.3,2.2,0.2C329.7,400.4,329.9,401.2,329.8,402.1L329.8,402.1L329.8,402.1z"/>
				</g>
			</g>
            <path class="st0" d="M1796.9,79.1c-3.6,0.5-10.5,2.3-15.5,3.9c-29.2,9.8-50.8,32.6-60.1,63.4c-2.7,8.9-2.8,9.5-3.2,41.7
				l-0.4,32.8h-31.8v66h32v181h65v-181h58v-66h-58.1l0.3-28.3l0.3-28.2l2.7-5.1c2.8-5.3,7.6-10.2,13.1-13.1
				c2.3-1.3,5.5-1.8,11.7-1.8c9.5,0,13,1.3,19.1,7.1l3.5,3.4l25.4-19.3c13.9-10.6,25.5-19.8,25.8-20.5c0.7-2.2-16.9-18.4-25.6-23.6
				C1840.4,80.4,1818.5,76,1796.9,79.1L1796.9,79.1L1796.9,79.1z"/>
            <path class="st0" d="M768.5,248.7c-33.6,71.9-63.5,136.1-66.6,142.7c-18.3,38.9-37,79.2-37,79.8c0,0.4,16,0.7,35.6,0.7H736
				l6-12.8c3.3-7,8.3-17.5,11.1-23.5l5.1-10.7l70,0.2l69.9,0.3l10.6,23.2l10.5,23.3h35.4c20.6,0,35.3-0.4,35.3-0.9
				s-29.1-65-64.6-143.3c-35.5-78.2-71.3-157.2-79.6-175.3c-8.2-18.2-15.2-33.3-15.6-33.7C829.7,118.4,802,176.9,768.5,248.7
				L768.5,248.7L768.5,248.7z M850,319.4l18.6,41l-20.4,0.3c-11.2,0.1-29.3,0.1-40.2,0l-19.8-0.3l15.9-34
				c25.4-54.6,24.8-53.4,26.2-50.5C830.9,277.3,839.8,296.8,850,319.4z"/>
            <path class="st0" d="M1131.3,221.4c-15.2,2.3-29.2,7.5-39.5,14.5l-5.9,4v-13h-65v356h65v-125l7,3.5c9.2,4.7,22.3,9,33.5,11
				c13.7,2.6,38.5,1.7,52-1.9c48.4-13,84.8-52.4,93.6-101.6c2-10.9,1.7-35.5-0.5-45.9c-5.5-26-17.1-47.6-35.1-65.6
				C1208.5,229.5,1168.2,215.6,1131.3,221.4L1131.3,221.4L1131.3,221.4z M1162.3,287.9c11.3,2.9,19,7.3,27.6,16
				c12.7,12.6,18.3,26.3,18.2,44c-0.1,23-12.9,43.9-33.2,53.9c-18.7,9.2-36.8,9.3-54.9,0.4c-10.6-5.2-22.2-16.9-27.3-27.3
				c-12-24.8-7.5-52.1,12-71.5c7.1-7.1,18.5-13.7,27.9-15.9C1141.2,285.4,1153.2,285.6,1162.3,287.9L1162.3,287.9L1162.3,287.9z"/>
            <path class="st0" d="M1417.4,220.9c-9.7,1.4-19.2,3.8-27.1,7c-7.4,2.9-17.6,8.9-18.8,10.9c-1.7,2.6-2.6,0.6-2.6-5.4v-6.5h-65v356
				h65V458l8.3,3.9c18.2,8.6,33.5,12,53.2,12c27,0,48.3-6.5,71.5-21.8c15.7-10.4,32.9-30.1,41.9-48c4.7-9.4,9.8-25.3,11.7-36.7
				c2.5-15.4,1.5-36.4-2.5-51.8c-10.6-41.3-42.1-75.4-82.2-88.8c-5-1.7-12.5-3.7-16.7-4.5C1444.6,220.5,1425.4,219.7,1417.4,220.9
				L1417.4,220.9L1417.4,220.9z M1443.1,287c2.9,0.6,9.4,3,14.3,5.4c14.8,7.1,25.4,19.2,31.3,35.7c2.3,6.3,2.6,8.9,2.6,18.8
				s-0.5,12.7-2.7,19.5c-7.9,23.7-29,40.3-53.9,42.1c-29.3,2.1-57.1-18.5-63.9-47.6c-1.7-7.5-1.5-21.2,0.5-28.9
				c5.7-22.2,25-40.6,47.1-45.1C1424.4,285.7,1437.1,285.8,1443.1,287z"/>
            <path class="st0" d="M1588.9,348.9v119h65v-238h-65V348.9z"/>
            <path class="st0" d="M1864.9,232.2c0,0.2,20.8,42.6,46.1,94.3c25.4,51.6,46.2,94.4,46.2,94.9c0,0.6-17.4,37.1-38.6,81.2
				c-21.3,44.1-38.7,80.4-38.7,80.7s16.3,0.5,36.2,0.4l36.2-0.3l82.2-170.5c45.3-93.8,83.5-172.9,84.8-175.8l2.6-5.2h-72.6l-27.5,57
				c-15.1,31.3-27.6,57-27.9,57s-13.1-25.7-28.5-57l-27.9-57h-36.3C1881.2,231.9,1864.9,232.1,1864.9,232.2L1864.9,232.2
				L1864.9,232.2z"/>
		</g>
        <circle class="st1" cx="1621.4" cy="178.6" r="32.5"/>
        <g>
			<path class="st1" d="M1441.8,585.4c-5.9,0-11.5-0.8-16.9-2.4c-5.4-1.6-9.7-3.6-13-6.1l5.8-12.8c3.2,2.2,6.9,4.1,11.2,5.5
				c4.3,1.4,8.7,2.2,13.1,2.2c3.4,0,6.1-0.3,8.1-1c2.1-0.7,3.6-1.6,4.6-2.8s1.5-2.6,1.5-4.1c0-2-0.8-3.5-2.3-4.7s-3.6-2.1-6.1-2.8
				s-5.3-1.4-8.4-2.1c-3-0.7-6.1-1.5-9.1-2.5s-5.8-2.2-8.4-3.8c-2.5-1.5-4.6-3.6-6.1-6.1c-1.6-2.5-2.4-5.7-2.4-9.7
				c0-4.2,1.1-8,3.4-11.5s5.7-6.2,10.3-8.3c4.6-2.1,10.3-3.1,17.3-3.1c4.6,0,9.2,0.5,13.7,1.6c4.5,1.1,8.4,2.7,11.9,4.9l-5.3,12.9
				c-3.4-2-6.9-3.4-10.3-4.4c-3.4-0.9-6.8-1.4-10.1-1.4c-3.3,0-6,0.4-8.1,1.2s-3.6,1.8-4.5,3s-1.4,2.6-1.4,4.3
				c0,1.9,0.8,3.4,2.3,4.6c1.5,1.2,3.6,2.1,6.1,2.8s5.3,1.4,8.4,2.1c3,0.7,6.1,1.5,9.1,2.4s5.8,2.1,8.4,3.7c2.5,1.5,4.6,3.6,6.1,6.1
				c1.6,2.5,2.4,5.7,2.4,9.6c0,4.1-1.2,7.9-3.5,11.3c-2.3,3.4-5.8,6.2-10.3,8.3C1454.6,584.4,1448.8,585.4,1441.8,585.4z"/>
            <path class="st1" d="M1516.7,584.2v-59.7h-23.5v-13.9h64.1v13.9h-23.5v59.7H1516.7z"/>
            <path class="st1" d="M1618.9,585.4c-5.8,0-11.2-0.9-16.1-2.8c-4.9-1.9-9.2-4.6-12.8-8c-3.6-3.4-6.4-7.5-8.4-12.1s-3-9.7-3-15.1
				s1-10.5,3-15.1s4.8-8.6,8.5-12.1c3.6-3.4,7.9-6.1,12.8-8c4.9-1.9,10.2-2.8,16-2.8s11.2,0.9,16,2.8c4.9,1.9,9.1,4.6,12.7,8
				s6.4,7.4,8.5,12c2,4.6,3,9.6,3,15.2c0,5.5-1,10.5-3,15.2s-4.8,8.7-8.5,12.1c-3.6,3.4-7.8,6-12.7,7.9
				C1629.9,584.5,1624.6,585.4,1618.9,585.4z M1618.8,570.9c3.3,0,6.3-0.6,9.1-1.7c2.8-1.1,5.2-2.7,7.3-4.8c2.1-2.1,3.7-4.6,4.9-7.5
				c1.2-2.9,1.7-6.1,1.7-9.6s-0.6-6.7-1.7-9.6c-1.2-2.9-2.8-5.4-4.8-7.5c-2.1-2.1-4.5-3.7-7.3-4.8s-5.8-1.7-9.1-1.7
				c-3.3,0-6.3,0.6-9.1,1.7c-2.8,1.1-5.2,2.7-7.3,4.8c-2.1,2.1-3.7,4.6-4.9,7.5c-1.2,2.9-1.7,6.1-1.7,9.6c0,3.4,0.6,6.6,1.7,9.5
				c1.2,2.9,2.8,5.4,4.8,7.5c2.1,2.1,4.5,3.7,7.3,4.8C1612.4,570.4,1615.5,570.9,1618.8,570.9z"/>
            <path class="st1" d="M1689.7,584.2v-73.5h31.8c6.6,0,12.3,1.1,17,3.2c4.8,2.1,8.4,5.2,11,9.2s3.9,8.8,3.9,14.3
				s-1.3,10.2-3.9,14.1c-2.6,4-6.3,7-11,9.1c-4.8,2.1-10.4,3.2-17,3.2h-22.4l7.6-7.5v27.9H1689.7z M1706.7,558.1l-7.6-8h21.4
				c5.3,0,9.2-1.1,11.8-3.4c2.6-2.3,3.9-5.4,3.9-9.4c0-4.1-1.3-7.2-3.9-9.5c-2.6-2.2-6.5-3.4-11.8-3.4h-21.4l7.6-8.1V558.1z
				 M1736.4,584.2l-18.4-26.7h18.2l18.6,26.7H1736.4z"/>
            <path class="st1"
                  d="M1801.6,570.5h40v13.7h-56.9v-73.5h55.6v13.7h-38.7V570.5z M1800.4,540.3h35.4v13.2h-35.4V540.3z"/>
		</g>
	</g>
</g>
</svg>
