<?xml version="1.0" encoding="UTF-8"?>
<svg id="Layer_1" data-name="Layer 1" xmlns="http://www.w3.org/2000/svg" viewBox="0 0 2121.9 697.9">
    <defs>
        <style>
            .cls-1 {
            fill: #f9f9f9;
            }
        </style>
    </defs>
    <g>
        <g>
            <path class="cls-1"
                  d="M547.7,140.8c-.6-30.7-12.5-59.8-33.7-81.9-21.2-22.1-49.7-35.3-80.2-37.1L149.3,5.2c-25-1.5-49.4,8-66.9,25.9-17.6,17.9-26.6,42.5-24.7,67.6l40.8,537.4c-.3-.2-.6-.4-.9-.6-3.5-2.2-6.9-4.4-10.3-6.7L47.1,99.5c-2.1-27.1,6.8-53.1,25-73.2,2.9-3.2,6.1-6.2,9.4-9C38.2,21.2,5.1,59.7,9.1,104.3l27.5,313c.4-.1,.7-.1,.7-.1-.2,.1-.4,.2-.6,.3l16.2,184.1c-2.9-2.8-5.7-5.5-8.4-8.3-7.1-7.6-13.3-15.4-18.4-23-5-7.6-9-15-12-21.9-1.4-3.5-2.8-6.7-3.8-9.7-.5-1.5-1.1-3-1.5-4.4-.4-1.4-.8-2.8-1.2-4.1-.8-2.6-1.2-4.9-1.7-7-.5-2-.8-3.8-1.1-5.2-.5-2.8-.8-4.4-.8-4.4,0,0,.1,1.5,.4,4.4,.1,1.5,.2,3.2,.6,5.3,.3,2.1,.6,4.5,1.2,7.2,1,5.3,2.7,11.8,5.3,18.9,2.6,7.1,6.2,15,11.1,23,4.8,8.1,10.8,16.4,17.9,24.5,7.1,8.1,15.2,16,24.3,23.5,7.5,6.2,15.5,12.1,23.9,17.7,28.3,15.8,58.7,28.3,90.8,36.9-2.8-1.1-5.6-2.2-8.4-3.3,23.9,8.7,51.6,16,82.9,19.3,150.3,15.9,261.2-72.8,286.8-94.5,5.1-4.2,10.1-8.6,15-13.1l-8.1-442.6Zm-122.7,292c-7.8,51.4-51.6,89.3-104.2,90.3-40.5,.8-78.3-21.2-97-56.6-6.8-12.9-11.3-26.5-11.5-41.2-.1-8.4,6.1-15.2,14.1-16.3,8.8-1.2,16.6,3.5,19,11.7,.6,1.9,.6,4,.9,6,4.9,35,34.4,61.7,69,62.5,37.9,.9,68.3-22.9,75.2-58.8,.5-2.7,.7-5.5,1.1-8.2,1.4-9.6,9.2-16.1,18.6-15.3,9,.8,15.5,8.1,15.4,17.6,0,2.8-.2,5.5-.6,8.3Zm-82-2.4c1.3,1,1.3,2.6,.1,3.4-.3,.2-.7,.3-1,.4-2.8,.6-5.5,1.3-8.3,1.9-.2,0-.4,.1-.7,.2,.1,.2,.2,.4,.3,.6,2.3,4.4,4.6,8.8,6.9,13.3,.3,.6,.5,1.2,.7,1.8l-.3,.9c-.5,.4-1,.8-1.5,1.1-1.9,1-3.9,2.1-5.8,3.1-.5,.3-1.1,.4-1.7,.6-.4-.3-.7-.4-1-.5-.4-.5-.8-1-1.1-1.6-2.3-4.4-4.6-8.9-7-13.3-.1-.2-.1-.4-.2-.6-.2,.2-.4,.3-.5,.5-2.1,2-4.3,4-6.4,6-1.1,1-2.7,.8-3.2-.5-.1-.3-.2-.7-.2-1-1-13.1-2-26.2-3-39.2-.1-1.7,1.1-2.9,2.5-2.4,.3,.1,.6,.3,.9,.5,10.2,8.3,20.3,16.5,30.5,24.8Zm-28.8-31.6c.6-1.9,1.1-3.8,1.8-5.6,.3-1,1.2-1.6,2.2-1.5,.9,.1,1.6,1,1.6,1.9,0,.3-.1,.6-.2,.9-.2,1-.5,1.9-.8,2.8-.3,.9-.5,1.8-.9,2.7-.4,1.2-1.4,1.8-2.5,1.4-1.1-.3-1.6-1.4-1.2-2.6Zm7.2,3.6c1.8-1,3.6-1.9,5.4-2.9,.8-.4,1.5-.3,2.2,.2,.7,.7,.9,1.5,.8,2.4-.4,.4-.7,.8-1.1,1-1.8,1-3.6,1.9-5.4,2.8-1,.5-2.2,.2-2.7-.8s-.2-2.1,.8-2.7Zm-13.6,.1c-.8,.1-1.5-.2-1.9-.9-.4-.6-.7-1.3-1.1-2-.6-1.2-1.3-2.4-1.9-3.6-.4-.8-.3-1.6,.3-2.2,.5-.6,1.4-.9,2.1-.5,.4,.2,.8,.6,1.1,1,1,1.8,1.9,3.5,2.8,5.3,.3,.5,.3,1,.3,1.3-.4,1-.9,1.5-1.7,1.6Zm-4,5.1c-.3,1.1-1.4,1.6-2.5,1.3-1-.3-1.9-.6-2.9-.9-.9-.3-1.9-.6-2.8-.9-1.2-.4-1.8-1.5-1.4-2.5,.4-1.1,1.4-1.6,2.6-1.2,1.9,.6,3.7,1.1,5.6,1.7,1.2,.4,1.8,1.4,1.4,2.5Zm.2,8.2c-.2,.2-.5,.6-.9,.9-1.8,1-3.6,1.9-5.4,2.9-1,.5-2.1,.1-2.6-.8-.5-1-.2-2.1,.8-2.6,1.8-1,3.7-2,5.5-2.9,.8-.4,1.5-.3,2.2,.3,.5,.4,.6,1.1,.4,2.2Zm180.9-56.3c-12.3-2.7-24.8-2.3-37.3-2.1-86.7,1.8-173.4,3.6-260.2,5.4-9.7,.2-19.3,.8-29,2-20.1,2.5-35.9,12-48.4,27.5-6.5,8-10.2,17.1-12.7,26.7L73,97.5c-1.6-20.6,5.8-41,20.3-55.7s34.6-22.5,55.1-21.4l85.1,5c3.8,.3,7.7,.6,11.5,.9,43.8,2.4,87.5,4.8,131.3,7.2,4.7,.3,9.4,.7,14.2,1l42.5,2.5c54.8,3.2,98.5,48.9,99.5,104l4.8,261.9c-9-23.1-26.5-37.7-52.4-43.4Z"/>
            <path class="cls-1"
                  d="M363.7,58.5l-107.8-5.1c-11.4-.5-21,8.3-21.6,19.7h0c-.5,11.4,8.2,21.1,19.6,21.6l107.8,5.1c11.4,.5,21-8.3,21.5-19.7,.7-11.4-8.1-21.1-19.5-21.6h0Z"/>
        </g>
        <path class="cls-1"
              d="M1796.9,79.1c-3.6,.5-10.5,2.3-15.5,3.9-29.2,9.8-50.8,32.6-60.1,63.4-2.7,8.9-2.8,9.5-3.2,41.7l-.4,32.8h-31.8v66h32v181h65v-181h58v-66h-58.1l.3-28.3,.3-28.2,2.7-5.1c2.8-5.3,7.6-10.2,13.1-13.1,2.3-1.3,5.5-1.8,11.7-1.8,9.5,0,13,1.3,19.1,7.1l3.5,3.4,25.4-19.3c13.9-10.6,25.5-19.8,25.8-20.5,.7-2.2-16.9-18.4-25.6-23.6-18.7-11.1-40.6-15.5-62.2-12.4h0Z"/>
        <path class="cls-1"
              d="M768.5,248.7c-33.6,71.9-63.5,136.1-66.6,142.7-18.3,38.9-37,79.2-37,79.8,0,.4,16,.7,35.6,.7h35.5l6-12.8c3.3-7,8.3-17.5,11.1-23.5l5.1-10.7,70,.2,69.9,.3,10.6,23.2,10.5,23.3h35.4c20.6,0,35.3-.4,35.3-.9s-29.1-65-64.6-143.3c-35.5-78.2-71.3-157.2-79.6-175.3-8.2-18.2-15.2-33.3-15.6-33.7-.4-.3-28.1,58.2-61.6,130h0Zm81.5,70.7l18.6,41-20.4,.3c-11.2,.1-29.3,.1-40.2,0l-19.8-.3,15.9-34c25.4-54.6,24.8-53.4,26.2-50.5,.6,1.4,9.5,20.9,19.7,43.5Z"/>
        <path class="cls-1"
              d="M1131.3,221.4c-15.2,2.3-29.2,7.5-39.5,14.5l-5.9,4v-13h-65v356h65v-125l7,3.5c9.2,4.7,22.3,9,33.5,11,13.7,2.6,38.5,1.7,52-1.9,48.4-13,84.8-52.4,93.6-101.6,2-10.9,1.7-35.5-.5-45.9-5.5-26-17.1-47.6-35.1-65.6-27.9-27.9-68.2-41.8-105.1-36h0Zm31,66.5c11.3,2.9,19,7.3,27.6,16,12.7,12.6,18.3,26.3,18.2,44-.1,23-12.9,43.9-33.2,53.9-18.7,9.2-36.8,9.3-54.9,.4-10.6-5.2-22.2-16.9-27.3-27.3-12-24.8-7.5-52.1,12-71.5,7.1-7.1,18.5-13.7,27.9-15.9,8.6-2.1,20.6-1.9,29.7,.4h0Z"/>
        <path class="cls-1"
              d="M1417.4,220.9c-9.7,1.4-19.2,3.8-27.1,7-7.4,2.9-17.6,8.9-18.8,10.9-1.7,2.6-2.6,.6-2.6-5.4v-6.5h-65v356h65v-124.9l8.3,3.9c18.2,8.6,33.5,12,53.2,12,27,0,48.3-6.5,71.5-21.8,15.7-10.4,32.9-30.1,41.9-48,4.7-9.4,9.8-25.3,11.7-36.7,2.5-15.4,1.5-36.4-2.5-51.8-10.6-41.3-42.1-75.4-82.2-88.8-5-1.7-12.5-3.7-16.7-4.5-9.5-1.8-28.7-2.6-36.7-1.4h0Zm25.7,66.1c2.9,.6,9.4,3,14.3,5.4,14.8,7.1,25.4,19.2,31.3,35.7,2.3,6.3,2.6,8.9,2.6,18.8s-.5,12.7-2.7,19.5c-7.9,23.7-29,40.3-53.9,42.1-29.3,2.1-57.1-18.5-63.9-47.6-1.7-7.5-1.5-21.2,.5-28.9,5.7-22.2,25-40.6,47.1-45.1,6-1.2,18.7-1.1,24.7,.1Z"/>
        <path class="cls-1" d="M1588.9,348.9v119h65V229.9h-65v119Z"/>
        <path class="cls-1"
              d="M1864.9,232.2c0,.2,20.8,42.6,46.1,94.3,25.4,51.6,46.2,94.4,46.2,94.9,0,.6-17.4,37.1-38.6,81.2-21.3,44.1-38.7,80.4-38.7,80.7s16.3,.5,36.2,.4l36.2-.3,82.2-170.5c45.3-93.8,83.5-172.9,84.8-175.8l2.6-5.2h-72.6l-27.5,57c-15.1,31.3-27.6,57-27.9,57s-13.1-25.7-28.5-57l-27.9-57h-36.3c-20,0-36.3,.2-36.3,.3h0Z"/>
    </g>
    <circle class="cls-1" cx="1621.4" cy="178.6" r="32.5"/>
    <g>
        <path class="cls-1"
              d="M1445.78,586.46c-5.88,0-11.52-.79-16.91-2.36-5.39-1.58-9.73-3.62-13.03-6.15l5.78-12.82c3.15,2.24,6.88,4.08,11.19,5.52,4.31,1.44,8.67,2.15,13.08,2.15,3.36,0,6.07-.33,8.14-1,2.06-.67,3.59-1.59,4.57-2.78,.98-1.19,1.47-2.56,1.47-4.1,0-1.96-.77-3.52-2.31-4.67-1.54-1.16-3.57-2.1-6.09-2.84-2.52-.74-5.3-1.43-8.35-2.1-3.05-.66-6.09-1.49-9.14-2.47-3.05-.98-5.83-2.24-8.35-3.78-2.52-1.54-4.57-3.57-6.14-6.09-1.58-2.52-2.36-5.74-2.36-9.66,0-4.2,1.14-8.04,3.41-11.5,2.28-3.47,5.71-6.23,10.29-8.3,4.58-2.06,10.35-3.1,17.28-3.1,4.62,0,9.17,.54,13.66,1.63,4.48,1.09,8.44,2.71,11.87,4.88l-5.25,12.92c-3.43-1.96-6.86-3.41-10.29-4.36-3.43-.95-6.79-1.42-10.08-1.42s-5.99,.39-8.09,1.16c-2.1,.77-3.61,1.77-4.52,2.99-.91,1.23-1.37,2.64-1.37,4.25,0,1.89,.77,3.41,2.31,4.57,1.54,1.16,3.57,2.08,6.09,2.78,2.52,.7,5.3,1.4,8.35,2.1,3.05,.7,6.09,1.51,9.14,2.42,3.05,.91,5.83,2.14,8.35,3.68,2.52,1.54,4.57,3.57,6.14,6.09,1.58,2.52,2.36,5.71,2.36,9.56,0,4.13-1.16,7.91-3.47,11.34-2.31,3.43-5.76,6.2-10.35,8.3-4.59,2.1-10.38,3.15-17.38,3.15Z"/>
        <path class="cls-1" d="M1520.67,585.2v-59.66h-23.53v-13.87h64.08v13.87h-23.53v59.66h-17.02Z"/>
        <path class="cls-1"
              d="M1622.88,586.46c-5.81,0-11.19-.95-16.12-2.84-4.94-1.89-9.21-4.55-12.81-7.98-3.61-3.43-6.41-7.46-8.4-12.08-2-4.62-2.99-9.66-2.99-15.13s1-10.5,2.99-15.13c2-4.62,4.81-8.65,8.46-12.08,3.64-3.43,7.91-6.09,12.82-7.98,4.9-1.89,10.22-2.84,15.97-2.84s11.15,.95,16.02,2.84c4.87,1.89,9.1,4.55,12.71,7.98,3.61,3.43,6.42,7.44,8.46,12.03,2.03,4.59,3.05,9.65,3.05,15.18s-1.02,10.52-3.05,15.18c-2.03,4.66-4.85,8.68-8.46,12.08-3.61,3.4-7.84,6.04-12.71,7.93-4.87,1.89-10.17,2.84-15.91,2.84Zm-.1-14.5c3.29,0,6.32-.56,9.09-1.68,2.77-1.12,5.2-2.73,7.3-4.83,2.1-2.1,3.73-4.59,4.88-7.46,1.16-2.87,1.73-6.06,1.73-9.56s-.58-6.69-1.73-9.56c-1.16-2.87-2.77-5.36-4.83-7.46-2.07-2.1-4.5-3.71-7.3-4.83-2.8-1.12-5.85-1.68-9.14-1.68s-6.32,.56-9.09,1.68c-2.77,1.12-5.2,2.73-7.3,4.83-2.1,2.1-3.73,4.59-4.88,7.46-1.16,2.87-1.73,6.06-1.73,9.56s.58,6.6,1.73,9.51c1.16,2.91,2.77,5.41,4.83,7.51,2.06,2.1,4.5,3.71,7.3,4.83,2.8,1.12,5.85,1.68,9.14,1.68Z"/>
        <path class="cls-1"
              d="M1693.67,585.2v-73.53h31.83c6.58,0,12.25,1.07,17.02,3.2,4.76,2.14,8.44,5.2,11.03,9.19,2.59,3.99,3.89,8.75,3.89,14.29s-1.3,10.17-3.89,14.13c-2.59,3.96-6.27,6.99-11.03,9.09-4.76,2.1-10.44,3.15-17.02,3.15h-22.37l7.56-7.46v27.94h-17.02Zm17.02-26.05l-7.56-7.98h21.43c5.25,0,9.17-1.14,11.76-3.41,2.59-2.28,3.89-5.41,3.89-9.4s-1.3-7.21-3.89-9.45c-2.59-2.24-6.51-3.36-11.76-3.36h-21.43l7.56-8.09v41.7Zm29.73,26.05l-18.38-26.68h18.17l18.59,26.68h-18.38Z"/>
        <path class="cls-1"
              d="M1805.65,571.54h40.02v13.66h-56.93v-73.53h55.57v13.66h-38.66v46.22Zm-1.26-30.25h35.4v13.24h-35.4v-13.24Z"/>
    </g>
</svg>
