<svg width="428" height="75" viewBox="0 0 428 75" fill="none" xmlns="http://www.w3.org/2000/svg">
<path d="M19 6C19 2.68629 21.6863 0 25 0H403C406.314 0 409 2.68629 409 6V49C409 63.3594 397.359 75 383 75H45C30.6406 75 19 63.3594 19 49V6Z" fill="white"/>
<path d="M93.54 22.32L87.78 18.29C86.21 17.19 83.8 17.25 82.29 18.42L77.28 22.33C76.28 23.11 75.49 24.71 75.49 25.97V32.87C75.49 35.42 77.56 37.5 80.11 37.5H90.89C93.44 37.5 95.51 35.43 95.51 32.88V26.1C95.51 24.75 94.64 23.09 93.54 22.32ZM86.25 33.5C86.25 33.91 85.91 34.25 85.5 34.25C85.09 34.25 84.75 33.91 84.75 33.5V30.5C84.75 30.09 85.09 29.75 85.5 29.75C85.91 29.75 86.25 30.09 86.25 30.5V33.5Z" fill="#FFB400"/>
<path d="M69.0605 56.5H70.373V52.7559H74.7148V56.5H76.0215V48.0449H74.7148V51.6191H70.373V48.0449H69.0605V56.5ZM80.7914 56.623C82.6547 56.623 83.7973 55.375 83.7973 53.3242V53.3125C83.7973 51.2617 82.6488 50.0137 80.7914 50.0137C78.9281 50.0137 77.7797 51.2676 77.7797 53.3125V53.3242C77.7797 55.375 78.9223 56.623 80.7914 56.623ZM80.7914 55.5625C79.6957 55.5625 79.0805 54.7363 79.0805 53.3242V53.3125C79.0805 51.9004 79.6957 51.0742 80.7914 51.0742C81.8813 51.0742 82.5023 51.9004 82.5023 53.3125V53.3242C82.5023 54.7305 81.8813 55.5625 80.7914 55.5625ZM85.4148 56.5H86.6863V52.5918C86.6863 51.7598 87.2547 51.1035 88.0223 51.1035C88.7723 51.1035 89.2469 51.5605 89.2469 52.2871V56.5H90.5125V52.4746C90.5125 51.707 91.0457 51.1035 91.8543 51.1035C92.6863 51.1035 93.0848 51.5371 93.0848 52.416V56.5H94.3504V52.1113C94.3504 50.7871 93.6004 50.0137 92.3172 50.0137C91.4324 50.0137 90.7 50.4648 90.3777 51.1504H90.2781C89.9969 50.4648 89.3816 50.0137 88.5145 50.0137C87.6824 50.0137 87.0613 50.418 86.7801 51.1152H86.6863V50.1367H85.4148V56.5ZM98.8977 56.623C100.527 56.623 101.405 55.6855 101.616 54.8477L101.628 54.7949L100.404 54.8008L100.38 54.8477C100.228 55.1758 99.7414 55.5801 98.927 55.5801C97.8781 55.5801 97.2102 54.8711 97.1867 53.6523H101.698V53.207C101.698 51.2969 100.609 50.0137 98.8332 50.0137C97.0578 50.0137 95.9094 51.3438 95.9094 53.3301V53.3359C95.9094 55.3516 97.0344 56.623 98.8977 56.623ZM98.8391 51.0566C99.7004 51.0566 100.339 51.6074 100.439 52.7441H97.2043C97.3156 51.6484 97.9719 51.0566 98.8391 51.0566Z" fill="#FFB400"/>
<path d="M49 4H122V0H49V4Z" fill="#FFB400" mask="url(#path-2-inside-1_1495_5259)"/>
<path d="M180.167 37.5V42.5C180.167 45.5 178.167 47.5 175.167 47.5H165.167C162.167 47.5 160.167 45.5 160.167 42.5V37.5C160.167 34.78 161.807 32.88 164.357 32.56C164.617 32.52 164.887 32.5 165.167 32.5H175.167C175.427 32.5 175.677 32.51 175.917 32.55C178.497 32.85 180.167 34.76 180.167 37.5Z" stroke="#9DB2CE" stroke-width="1.5" stroke-linecap="round" stroke-linejoin="round"/>
<path d="M175.918 32.55C175.678 32.51 175.428 32.5 175.168 32.5H165.168C164.888 32.5 164.618 32.52 164.358 32.56C164.498 32.28 164.698 32.02 164.938 31.78L168.188 28.52C169.558 27.16 171.778 27.16 173.148 28.52L174.898 30.29C175.538 30.92 175.878 31.72 175.918 32.55Z" stroke="#9DB2CE" stroke-width="1.5" stroke-linecap="round" stroke-linejoin="round"/>
<path d="M180.167 38H177.167C176.067 38 175.167 38.9 175.167 40C175.167 41.1 176.067 42 177.167 42H180.167" stroke="#9DB2CE" stroke-width="1.5" stroke-linecap="round" stroke-linejoin="round"/>
<path d="M262.153 37.5C264.753 37.5 265.833 36.5 264.873 33.22C264.223 31.01 262.323 29.11 260.113 28.46C256.833 27.5 255.833 28.58 255.833 31.18V34.06C255.833 36.5 256.833 37.5 258.833 37.5H262.153Z" stroke="#9DB2CE" stroke-width="1.5" stroke-linecap="round" stroke-linejoin="round"/>
<path d="M263.833 40.2C262.903 44.83 258.463 48.19 253.413 47.37C249.623 46.76 246.573 43.71 245.953 39.92C245.143 34.89 248.483 30.45 253.093 29.51" stroke="#9DB2CE" stroke-width="1.5" stroke-linecap="round" stroke-linejoin="round"/>
<path d="M341.5 37.5C344.261 37.5 346.5 35.2614 346.5 32.5C346.5 29.7386 344.261 27.5 341.5 27.5C338.739 27.5 336.5 29.7386 336.5 32.5C336.5 35.2614 338.739 37.5 341.5 37.5Z" stroke="#9DB2CE" stroke-width="1.5" stroke-linecap="round" stroke-linejoin="round"/>
<path d="M350.09 47.5C350.09 43.63 346.24 40.5 341.5 40.5C336.76 40.5 332.91 43.63 332.91 47.5" stroke="#9DB2CE" stroke-width="1.5" stroke-linecap="round" stroke-linejoin="round"/>
</svg>
