<svg width="428" height="91" viewBox="0 0 428 91" fill="none" xmlns="http://www.w3.org/2000/svg">
<rect width="428" height="91" fill="#F2841F"/>
<path d="M59.04 31.32L53.28 27.29C51.71 26.19 49.3 26.25 47.79 27.42L42.78 31.33C41.78 32.11 40.99 33.71 40.99 34.97V41.87C40.99 44.42 43.06 46.5 45.61 46.5H56.39C58.94 46.5 61.01 44.43 61.01 41.88V35.1C61.01 33.75 60.14 32.09 59.04 31.32ZM51.75 42.5C51.75 42.91 51.41 43.25 51 43.25C50.59 43.25 50.25 42.91 50.25 42.5V39.5C50.25 39.09 50.59 38.75 51 38.75C51.41 38.75 51.75 39.09 51.75 39.5V42.5Z" fill="white"/>
<path d="M35.31 61.5H36.6225V57.7559H40.9643V61.5H42.2709V53.0449H40.9643V56.6191H36.6225V53.0449H35.31V61.5ZM46.7759 61.623C48.6391 61.623 49.7817 60.375 49.7817 58.3242V58.3125C49.7817 56.2617 48.6333 55.0137 46.7759 55.0137C44.9126 55.0137 43.7641 56.2676 43.7641 58.3125V58.3242C43.7641 60.375 44.9067 61.623 46.7759 61.623ZM46.7759 60.5625C45.6802 60.5625 45.0649 59.7363 45.0649 58.3242V58.3125C45.0649 56.9004 45.6802 56.0742 46.7759 56.0742C47.8657 56.0742 48.4868 56.9004 48.4868 58.3125V58.3242C48.4868 59.7305 47.8657 60.5625 46.7759 60.5625ZM51.1343 61.5H52.4058V57.5918C52.4058 56.7598 52.9741 56.1035 53.7417 56.1035C54.4917 56.1035 54.9663 56.5605 54.9663 57.2871V61.5H56.232V57.4746C56.232 56.707 56.7652 56.1035 57.5737 56.1035C58.4058 56.1035 58.8042 56.5371 58.8042 57.416V61.5H60.0698V57.1113C60.0698 55.7871 59.3198 55.0137 58.0366 55.0137C57.1519 55.0137 56.4195 55.4648 56.0972 56.1504H55.9976C55.7163 55.4648 55.1011 55.0137 54.2339 55.0137C53.4019 55.0137 52.7808 55.418 52.4995 56.1152H52.4058V55.1367H51.1343V61.5ZM64.3521 61.623C65.981 61.623 66.8599 60.6855 67.0709 59.8477L67.0826 59.7949L65.858 59.8008L65.8345 59.8477C65.6822 60.1758 65.1959 60.5801 64.3814 60.5801C63.3326 60.5801 62.6646 59.8711 62.6412 58.6523H67.1529V58.207C67.1529 56.2969 66.063 55.0137 64.2877 55.0137C62.5123 55.0137 61.3638 56.3438 61.3638 58.3301V58.3359C61.3638 60.3516 62.4888 61.623 64.3521 61.623ZM64.2935 56.0566C65.1548 56.0566 65.7935 56.6074 65.8931 57.7441H62.6587C62.7701 56.6484 63.4263 56.0566 64.2935 56.0566Z" fill="white"/>
<path d="M139.5 44.5C144.747 44.5 149 40.2467 149 35C149 29.7533 144.747 25.5 139.5 25.5C134.253 25.5 130 29.7533 130 35C130 40.2467 134.253 44.5 139.5 44.5Z" stroke="white" stroke-width="1.5" stroke-linecap="round" stroke-linejoin="round"/>
<path d="M150 45.5L148 43.5" stroke="white" stroke-width="1.5" stroke-linecap="round" stroke-linejoin="round"/>
<path d="M124.17 60.7051C126.139 60.7051 127.399 59.6973 127.399 58.0801V58.0742C127.399 56.8203 126.672 56.1055 124.897 55.7246L123.977 55.5195C122.881 55.2852 122.436 54.875 122.436 54.248V54.2422C122.436 53.4453 123.168 52.9824 124.159 52.9824C125.184 52.9766 125.846 53.4805 125.957 54.1719L125.969 54.248H127.241L127.235 54.166C127.141 52.8535 125.969 51.8398 124.176 51.8398C122.383 51.8398 121.118 52.8477 121.112 54.3066V54.3125C121.112 55.5605 121.85 56.3574 123.567 56.7207L124.493 56.9199C125.612 57.1602 126.069 57.582 126.069 58.2324V58.2383C126.069 59.0234 125.301 59.5625 124.223 59.5625C123.092 59.5625 122.278 59.0703 122.207 58.3027L122.202 58.2383H120.913L120.918 58.3145C121.036 59.7383 122.26 60.7051 124.17 60.7051ZM131.488 60.623C133.117 60.623 133.996 59.6855 134.206 58.8477L134.218 58.7949L132.994 58.8008L132.97 58.8477C132.818 59.1758 132.331 59.5801 131.517 59.5801C130.468 59.5801 129.8 58.8711 129.777 57.6523H134.289V57.207C134.289 55.2969 133.199 54.0137 131.423 54.0137C129.648 54.0137 128.499 55.3438 128.499 57.3301V57.3359C128.499 59.3516 129.624 60.623 131.488 60.623ZM131.429 55.0566C132.29 55.0566 132.929 55.6074 133.029 56.7441H129.794C129.906 55.6484 130.562 55.0566 131.429 55.0566ZM137.381 60.6055C138.225 60.6055 138.893 60.2422 139.268 59.5977H139.368V60.5H140.627V56.1465C140.627 54.8105 139.725 54.0137 138.125 54.0137C136.678 54.0137 135.676 54.7109 135.524 55.7539L135.518 55.7949H136.743L136.749 55.7715C136.901 55.3203 137.364 55.0625 138.067 55.0625C138.928 55.0625 139.368 55.4492 139.368 56.1465V56.709L137.645 56.8086C136.127 56.9023 135.272 57.5645 135.272 58.7012V58.7129C135.272 59.8672 136.168 60.6055 137.381 60.6055ZM136.538 58.6602V58.6484C136.538 58.0742 136.936 57.7578 137.815 57.7051L139.368 57.6055V58.1504C139.368 58.9707 138.67 59.5918 137.721 59.5918C137.036 59.5918 136.538 59.2461 136.538 58.6602ZM142.255 60.5H143.527V56.6973C143.527 55.7773 144.189 55.1797 145.162 55.1797C145.402 55.1797 145.619 55.209 145.847 55.2559V54.084C145.718 54.0547 145.496 54.0254 145.291 54.0254C144.441 54.0254 143.849 54.4238 143.621 55.0977H143.527V54.1367H142.255V60.5ZM149.409 60.623C150.985 60.623 151.893 59.7734 152.122 58.5371L152.133 58.4844H150.915L150.903 58.5137C150.698 59.1992 150.206 59.5625 149.409 59.5625C148.36 59.5625 147.71 58.707 147.71 57.3008V57.2891C147.71 55.918 148.348 55.0742 149.409 55.0742C150.253 55.0742 150.768 55.543 150.909 56.1699L150.915 56.1875L152.133 56.1816V56.1523C151.958 54.916 151.003 54.0137 149.403 54.0137C147.545 54.0137 146.415 55.2734 146.415 57.2891V57.3008C146.415 59.3574 147.551 60.623 149.409 60.623ZM153.468 60.5H154.74V56.7676C154.74 55.7422 155.32 55.1035 156.252 55.1035C157.183 55.1035 157.623 55.625 157.623 56.6797V60.5H158.888V56.3809C158.888 54.8633 158.103 54.0137 156.679 54.0137C155.754 54.0137 155.144 54.4238 154.834 55.1035H154.74V51.6406H153.468V60.5Z" fill="white"/>
<path d="M285.31 26.5L281.69 30.13" stroke="white" stroke-width="1.5" stroke-miterlimit="10" stroke-linecap="round" stroke-linejoin="round"/>
<path d="M291.69 26.5L295.31 30.13" stroke="white" stroke-width="1.5" stroke-miterlimit="10" stroke-linecap="round" stroke-linejoin="round"/>
<path d="M278.5 32.35C278.5 30.5 279.49 30.35 280.72 30.35H296.28C297.51 30.35 298.5 30.5 298.5 32.35C298.5 34.5 297.51 34.35 296.28 34.35H280.72C279.49 34.35 278.5 34.5 278.5 32.35Z" stroke="white" stroke-width="1.5"/>
<path d="M286.26 38.5V42.05" stroke="white" stroke-width="1.5" stroke-linecap="round"/>
<path d="M290.86 38.5V42.05" stroke="white" stroke-width="1.5" stroke-linecap="round"/>
<path d="M280 34.5L281.41 43.14C281.73 45.08 282.5 46.5 285.36 46.5H291.39C294.5 46.5 294.96 45.14 295.32 43.26L297 34.5" stroke="white" stroke-width="1.5" stroke-linecap="round"/>
<path d="M280.779 61.7051C282.665 61.7051 284.042 60.627 284.289 59.0039V58.9688H282.988L282.976 58.9922C282.736 59.9473 281.898 60.5449 280.779 60.5449C279.255 60.5449 278.306 59.2852 278.306 57.2812V57.2695C278.306 55.2598 279.255 54 280.773 54C281.886 54 282.736 54.6738 282.982 55.7109V55.7285H284.283L284.289 55.6992C284.066 54.0176 282.636 52.8398 280.773 52.8398C278.423 52.8398 276.964 54.5391 276.964 57.2695V57.2812C276.964 60.0059 278.429 61.7051 280.779 61.7051ZM287.452 61.6055C288.295 61.6055 288.963 61.2422 289.338 60.5977H289.438V61.5H290.698V57.1465C290.698 55.8105 289.795 55.0137 288.196 55.0137C286.749 55.0137 285.747 55.7109 285.594 56.7539L285.588 56.7949H286.813L286.819 56.7715C286.971 56.3203 287.434 56.0625 288.137 56.0625C288.999 56.0625 289.438 56.4492 289.438 57.1465V57.709L287.715 57.8086C286.198 57.9023 285.342 58.5645 285.342 59.7012V59.7129C285.342 60.8672 286.239 61.6055 287.452 61.6055ZM286.608 59.6602V59.6484C286.608 59.0742 287.006 58.7578 287.885 58.7051L289.438 58.6055V59.1504C289.438 59.9707 288.741 60.5918 287.791 60.5918C287.106 60.5918 286.608 60.2461 286.608 59.6602ZM292.326 61.5H293.597V57.6973C293.597 56.7773 294.259 56.1797 295.232 56.1797C295.472 56.1797 295.689 56.209 295.917 56.2559V55.084C295.789 55.0547 295.566 55.0254 295.361 55.0254C294.511 55.0254 293.919 55.4238 293.691 56.0977H293.597V55.1367H292.326V61.5ZM299.497 61.541C299.743 61.541 299.977 61.5117 300.182 61.4766V60.4629C300.006 60.4805 299.895 60.4863 299.702 60.4863C299.075 60.4863 298.817 60.2051 298.817 59.5195V56.1387H300.182V55.1367H298.817V53.5312H297.522V55.1367H296.526V56.1387H297.522V59.8242C297.522 61.0488 298.096 61.541 299.497 61.541Z" fill="white"/>
<path d="M376.5 36.5C379.261 36.5 381.5 34.2614 381.5 31.5C381.5 28.7386 379.261 26.5 376.5 26.5C373.739 26.5 371.5 28.7386 371.5 31.5C371.5 34.2614 373.739 36.5 376.5 36.5Z" stroke="white" stroke-width="1.5" stroke-linecap="round" stroke-linejoin="round"/>
<path d="M385.09 46.5C385.09 42.63 381.24 39.5 376.5 39.5C371.76 39.5 367.91 42.63 367.91 46.5" stroke="white" stroke-width="1.5" stroke-linecap="round" stroke-linejoin="round"/>
<path d="M359.282 61.5H360.595V58.6113H362.575C364.233 58.6113 365.382 57.4805 365.382 55.8281V55.8164C365.382 54.1582 364.233 53.0449 362.575 53.0449H359.282V61.5ZM362.247 54.1523C363.384 54.1523 364.046 54.7676 364.046 55.8223V55.834C364.046 56.8945 363.384 57.5098 362.247 57.5098H360.595V54.1523H362.247ZM366.764 61.5H368.035V57.6973C368.035 56.7773 368.697 56.1797 369.67 56.1797C369.91 56.1797 370.127 56.209 370.355 56.2559V55.084C370.226 55.0547 370.004 55.0254 369.799 55.0254C368.949 55.0254 368.357 55.4238 368.129 56.0977H368.035V55.1367H366.764V61.5ZM373.935 61.623C375.798 61.623 376.94 60.375 376.94 58.3242V58.3125C376.94 56.2617 375.792 55.0137 373.935 55.0137C372.071 55.0137 370.923 56.2676 370.923 58.3125V58.3242C370.923 60.375 372.065 61.623 373.935 61.623ZM373.935 60.5625C372.839 60.5625 372.224 59.7363 372.224 58.3242V58.3125C372.224 56.9004 372.839 56.0742 373.935 56.0742C375.024 56.0742 375.645 56.9004 375.645 58.3125V58.3242C375.645 59.7305 375.024 60.5625 373.935 60.5625ZM378.744 61.5H380.01V56.1387H381.41V55.1367H379.998V54.5273C379.998 53.8828 380.273 53.543 380.977 53.543C381.176 53.543 381.346 53.5547 381.463 53.5723V52.6406C381.246 52.6055 381 52.582 380.713 52.582C379.389 52.582 378.744 53.2031 378.744 54.4688V55.1367H377.695V56.1387H378.744V61.5ZM383.337 54C383.771 54 384.134 53.6426 384.134 53.209C384.134 52.7695 383.771 52.4121 383.337 52.4121C382.898 52.4121 382.54 52.7695 382.54 53.209C382.54 53.6426 382.898 54 383.337 54ZM382.698 61.5H383.964V55.1367H382.698V61.5ZM385.709 61.5H386.981V52.6406H385.709V61.5ZM391.38 61.623C393.009 61.623 393.888 60.6855 394.099 59.8477L394.11 59.7949L392.886 59.8008L392.862 59.8477C392.71 60.1758 392.224 60.5801 391.409 60.5801C390.36 60.5801 389.693 59.8711 389.669 58.6523H394.181V58.207C394.181 56.2969 393.091 55.0137 391.316 55.0137C389.54 55.0137 388.392 56.3438 388.392 58.3301V58.3359C388.392 60.3516 389.517 61.623 391.38 61.623ZM391.321 56.0566C392.183 56.0566 392.821 56.6074 392.921 57.7441H389.687C389.798 56.6484 390.454 56.0566 391.321 56.0566Z" fill="white"/>
<g filter="url(#filter0_d_403_1534)">
<rect x="193" y="23" width="44" height="44" rx="7" fill="white"/>
<path d="M206.01 44.22V48.71C206.01 53.2 207.81 55 212.3 55H217.69C222.18 55 223.98 53.2 223.98 48.71V44.22" stroke="#F2841F" stroke-width="1.5" stroke-linecap="round" stroke-linejoin="round"/>
<path d="M215 45C216.83 45 218.18 43.51 218 41.68L217.34 35H212.67L212 41.68C211.82 43.51 213.17 45 215 45Z" stroke="#F2841F" stroke-width="1.5" stroke-linecap="round" stroke-linejoin="round"/>
<path d="M221.31 45C223.33 45 224.81 43.36 224.61 41.35L224.33 38.6C223.97 36 222.97 35 220.35 35H217.3L218 42.01C218.17 43.66 219.66 45 221.31 45Z" stroke="#F2841F" stroke-width="1.5" stroke-linecap="round" stroke-linejoin="round"/>
<path d="M208.64 45C210.29 45 211.78 43.66 211.94 42.01L212.16 39.8L212.64 35H209.59C206.97 35 205.97 36 205.61 38.6L205.34 41.35C205.14 43.36 206.62 45 208.64 45Z" stroke="#F2841F" stroke-width="1.5" stroke-linecap="round" stroke-linejoin="round"/>
<path d="M215 50C213.33 50 212.5 50.83 212.5 52.5V55H217.5V52.5C217.5 50.83 216.67 50 215 50Z" stroke="#F2841F" stroke-width="1.5" stroke-linecap="round" stroke-linejoin="round"/>
</g>
<defs>
<filter id="filter0_d_403_1534" x="181" y="15" width="68" height="68" filterUnits="userSpaceOnUse" color-interpolation-filters="sRGB">
<feFlood flood-opacity="0" result="BackgroundImageFix"/>
<feColorMatrix in="SourceAlpha" type="matrix" values="0 0 0 0 0 0 0 0 0 0 0 0 0 0 0 0 0 0 127 0" result="hardAlpha"/>
<feOffset dy="4"/>
<feGaussianBlur stdDeviation="6"/>
<feColorMatrix type="matrix" values="0 0 0 0 0.380392 0 0 0 0 0.243137 0 0 0 0 0.917647 0 0 0 0.5 0"/>
<feBlend mode="normal" in2="BackgroundImageFix" result="effect1_dropShadow_403_1534"/>
<feBlend mode="normal" in="SourceGraphic" in2="effect1_dropShadow_403_1534" result="shape"/>
</filter>
</defs>
</svg>
