<svg width="428" height="105" viewBox="0 0 428 105" fill="none" xmlns="http://www.w3.org/2000/svg">
<rect y="22" width="428" height="83" fill="#D13536"/>
<g filter="url(#filter0_d_206_11652)">
<ellipse cx="214" cy="43.5" rx="31" ry="32.5" fill="#64ECC7"/>
</g>
<path d="M214 79C233.925 79 250 62.6157 250 42.5C250 22.3843 233.925 6 214 6C194.075 6 178 22.3843 178 42.5C178 62.6157 194.075 79 214 79Z" fill="white" stroke="#D13536" stroke-width="6"/>
<path fill-rule="evenodd" clip-rule="evenodd" d="M203.984 50.0306C203.999 49.9244 204.017 49.8035 204.039 49.667C204.017 49.8035 203.999 49.9244 203.984 50.0306ZM203.926 50.6519H203.305L203.305 50.6498L203.305 50.6473L203.305 50.641L203.305 50.6233C203.305 50.6092 203.306 50.5905 203.307 50.5669C203.309 50.5197 203.313 50.453 203.321 50.3651C203.337 50.1896 203.367 49.9292 203.425 49.5701C203.757 47.4114 205.314 45.7783 207.169 44.9567L204.025 33.2967H201.406V31.0455H205.602L206.261 32.944H225.488L224.478 44.4692L223.989 44.5391C223.99 44.5391 223.99 44.5391 223.902 43.924L223.989 44.5391L222.029 44.8194C220.839 44.9893 219.231 45.2185 217.557 45.4558C214.214 45.9299 210.598 46.4382 209.544 46.5696C208.618 46.685 207.698 47.0933 206.983 47.6818C206.496 48.0821 206.124 48.5484 205.9 49.0398H225.431V51.2732H203.305L203.305 50.6519C203.305 50.6519 203.305 50.6519 203.382 50.6519C203.46 50.6519 203.615 50.6519 203.926 50.6519ZM224.81 33.5653H205.819L205.819 33.5653L224.81 33.5653ZM205.16 31.6668L205.16 31.6668H202.027V32.6754H202.027V31.6668H205.16ZM207.913 45.3301C206.711 45.7491 205.624 46.5227 204.898 47.5538C205.624 46.5227 206.711 45.7491 207.913 45.3301L207.913 45.3301ZM222.911 43.0578L208.969 45.0335L208.809 45.0691L208.809 45.0691L208.969 45.0335L222.911 43.0578L223.819 34.5501L222.911 43.0578ZM222.345 42.5106L209.271 44.3631L206.954 35.1714H223.128L222.345 42.5106ZM218.112 57C218.931 57 219.595 56.3356 219.595 55.5168C219.595 54.6981 218.931 54.0336 218.112 54.0336C217.293 54.0336 216.629 54.6981 216.629 55.5168C216.629 56.3356 217.293 57 218.112 57ZM209.724 57.0001C210.542 57.0001 211.207 56.3356 211.207 55.5169C211.207 54.6981 210.542 54.0336 209.724 54.0336C208.905 54.0336 208.24 54.6981 208.24 55.5169C208.24 56.3356 208.905 57.0001 209.724 57.0001Z" fill="#D13536"/>
<path fill-rule="evenodd" clip-rule="evenodd" d="M122.577 55.8672C122.847 55.8672 123.191 55.9666 123.563 56.1281C123.937 56.2907 124.349 56.5207 124.757 56.7916C125.524 57.3005 126.287 57.961 126.763 58.6043C127.253 57.9622 128.021 57.3117 128.785 56.8127C129.191 56.5472 129.6 56.3228 129.968 56.1643C130.333 56.007 130.67 55.9102 130.93 55.9102C132.289 55.9102 133.416 57.0349 133.416 58.4396C133.416 59.0084 133.231 59.5295 132.923 59.9486H137.407V65.9502H136.15V77.174H117.353V65.9545H116.1V59.9529H120.619C120.29 59.526 120.091 58.9851 120.091 58.3965C120.091 56.992 121.213 55.8672 122.577 55.8672ZM132.301 58.4434C132.305 57.6395 131.671 56.978 130.93 56.978C130.829 56.978 130.697 57.007 130.537 57.0655C130.378 57.1235 130.199 57.208 130.007 57.3133C129.624 57.5236 129.199 57.8132 128.801 58.1273C128.403 58.4417 128.036 58.7782 127.77 59.0816C127.637 59.2334 127.531 59.3747 127.459 59.4989C127.392 59.6155 127.359 59.7077 127.355 59.7745C127.363 59.7829 127.378 59.7942 127.399 59.8078C127.441 59.8343 127.495 59.8605 127.547 59.884H131.181C131.809 59.7523 132.301 59.1498 132.301 58.4434ZM126.13 59.7976C126.142 59.7887 126.149 59.7821 126.152 59.778C126.149 59.7104 126.117 59.6169 126.049 59.4983C125.978 59.3741 125.874 59.2328 125.743 59.0811C125.48 58.7778 125.118 58.4413 124.723 58.1271C124.329 57.813 123.905 57.5236 123.52 57.3134C123.129 57.1003 122.796 56.978 122.577 56.978C121.83 56.978 121.202 57.5982 121.202 58.4439C121.202 59.1504 121.693 59.7523 122.321 59.884H125.937C126.038 59.853 126.097 59.8216 126.13 59.7976ZM128.448 76.0633V61.0594H125.068V76.0633H128.448ZM136.296 64.8911V61.0637H129.55V64.8911H136.296ZM123.957 64.8911V61.0637H117.211V64.8911H123.957ZM135.043 76.0633V65.9545H129.554V76.0633H135.043ZM118.468 65.9545V76.0633H123.957V65.9545H118.468Z" fill="white"/>
<path fill-rule="evenodd" clip-rule="evenodd" d="M290.284 62.9485C290.604 59.4558 293.092 56.8691 296.254 56.8691C298.183 56.8691 299.914 57.8345 301.003 59.4442C302.109 57.8507 303.907 56.8695 305.862 56.8695C309.025 56.8695 311.512 59.4564 311.833 62.9492C311.864 63.1466 311.955 63.9642 311.648 65.2644C311.198 67.1724 310.159 68.9041 308.648 70.2734L308.646 70.2748L300.994 77.1019L293.468 70.273C291.958 68.904 290.918 67.172 290.468 65.2644M290.284 62.9485C290.253 63.1471 290.161 63.9647 290.468 65.2644L290.284 62.9485ZM296.254 58.208C293.844 58.208 291.869 60.2265 291.615 63.0926L291.614 63.1003L291.607 63.149C291.6 63.1953 291.581 63.3436 291.586 63.6044C291.592 63.9107 291.632 64.3678 291.771 64.9569C292.158 66.595 293.054 68.0905 294.368 69.2809L301.001 75.3011L307.751 69.2793L307.752 69.2786C309.063 68.0907 309.959 66.5952 310.345 64.9574C310.484 64.3683 310.524 63.911 310.53 63.6044C310.536 63.3103 310.51 63.1534 310.508 63.1416L310.507 63.1317C310.247 60.2258 308.271 58.2084 305.862 58.2084C304.026 58.2084 302.357 59.3375 301.615 61.0957L300.998 62.5573L300.381 61.0958C299.624 59.3037 298.04 58.208 296.254 58.208Z" fill="white"/>
<line x1="360.918" y1="59.4418" x2="379.904" y2="59.4418" stroke="white" stroke-width="1.5"/>
<path d="M363.555 76.2773H379.904" stroke="white" stroke-width="1.5"/>
<line x1="367.247" y1="67.8801" x2="379.904" y2="67.8801" stroke="white" stroke-width="1.5"/>
<path d="M68.5546 56.6023V61.2528H66.8241V58.3327H63.9041V56.6023H68.5546Z" fill="white"/>
<path d="M46.5418 67.1173L59.578 54.6478L72.6133 67.1164L71.4178 68.3676L58.2802 68.2826L47.7386 68.3673L46.5418 67.1173Z" fill="white"/>
<path d="M49.52 79.9629V68.2826H69.6361V79.9629H61.4166V72.9331H57.7395V79.9629H49.52Z" fill="white"/>
<defs>
<filter id="filter0_d_206_11652" x="168" y="0" width="92" height="95" filterUnits="userSpaceOnUse" color-interpolation-filters="sRGB">
<feFlood flood-opacity="0" result="BackgroundImageFix"/>
<feColorMatrix in="SourceAlpha" type="matrix" values="0 0 0 0 0 0 0 0 0 0 0 0 0 0 0 0 0 0 127 0" result="hardAlpha"/>
<feOffset dy="4"/>
<feGaussianBlur stdDeviation="7.5"/>
<feColorMatrix type="matrix" values="0 0 0 0 0 0 0 0 0 0 0 0 0 0 0 0 0 0 0.25 0"/>
<feBlend mode="normal" in2="BackgroundImageFix" result="effect1_dropShadow_206_11652"/>
<feBlend mode="normal" in="SourceGraphic" in2="effect1_dropShadow_206_11652" result="shape"/>
</filter>
</defs>
</svg>
