<?xml version="1.0" encoding="UTF-8"?>
<svg id="Layer_1" data-name="Layer 1" xmlns="http://www.w3.org/2000/svg"
     viewBox="0 0 331.28 560.4">
    <defs>
        <style>
            .cls-1, .cls-2 {
            fill: #213845;
            }

            .cls-3 {
            fill: #ffc644;
            }

            .cls-4, .cls-5 {
            fill: #fff;
            }

            .cls-6 {
            fill: #1c3343;
            }

            .cls-5, .cls-7, .cls-8, .cls-9, .cls-10, .cls-11, .cls-2, .cls-12, .cls-13 {
            fill-rule: evenodd;
            }

            .cls-7 {
            fill: #8eadc1;
            }

            .cls-14 {
            fill: #152649;
            }

            .cls-15 {
            stroke: #d9e0e2;
            stroke-dasharray: 0 0 8 8;
            stroke-width: .5px;
            }

            .cls-15, .cls-16, .cls-17, .cls-18, .cls-19, .cls-20, .cls-21 {
            fill: none;
            }

            .cls-22 {
            fill: rgba(67, 116, 186, .09);
            }

            .cls-8 {
            fill: #272c2d;
            }

            .cls-23 {
            fill: url(#linear-gradient-2);
            fill-opacity: .4;
            }

            .cls-9, .cls-24 {
            fill: #f3b41b;
            }

            .cls-25, .cls-11 {
            fill: #96a7af;
            }

            .cls-26 {
            fill: #f15a61;
            }

            .cls-10, .cls-27, .cls-28 {
            fill: #010101;
            }

            .cls-16 {
            stroke: #152649;
            }

            .cls-16, .cls-17, .cls-19, .cls-20 {
            stroke-width: 8px;
            }

            .cls-16, .cls-19, .cls-20 {
            stroke-linecap: round;
            stroke-linejoin: round;
            }

            .cls-29 {
            fill: #34505f;
            }

            .cls-17 {
            stroke: #f1f8fa;
            }

            .cls-30 {
            clip-path: url(#clippath);
            }

            .cls-12 {
            fill: #647074;
            }

            .cls-12, .cls-27 {
            opacity: .4;
            }

            .cls-12, .cls-27, .cls-21 {
            isolation: isolate;
            }

            .cls-31 {
            opacity: .2;
            }

            .cls-32 {
            fill: #e6f0f4;
            }

            .cls-33 {
            fill: #f7f8f9;
            }

            .cls-13 {
            fill: #141717;
            }

            .cls-19 {
            stroke: #f15a61;
            }

            .cls-34 {
            fill: url(#linear-gradient);
            fill-opacity: .1;
            }

            .cls-20 {
            stroke: #ffc644;
            }

            .cls-35 {
            fill: #36464d;
            }

            .cls-21 {
            opacity: .35;
            stroke: #010101;
            }
        </style>
        <clipPath id="clippath">
            <rect class="cls-18" x="70.26" y="11.91" width="248.11" height="537.24" rx="33.08" ry="33.08"/>
        </clipPath>
        <linearGradient id="linear-gradient" x1="194.32" y1="458.85" x2="194.32" y2="341.42"
                        gradientTransform="translate(0 562.4) scale(1 -1)" gradientUnits="userSpaceOnUse">
            <stop offset="0" stop-color="#4067b1" stop-opacity="0"/>
            <stop offset="1" stop-color="#4067b1"/>
        </linearGradient>
        <linearGradient id="linear-gradient-2" x1="173.26" y1="497.93" x2="229.23" y2="342.22"
                        gradientTransform="translate(0 562.4) scale(1 -1)" gradientUnits="userSpaceOnUse">
            <stop offset="0" stop-color="#f3b41b"/>
            <stop offset="1" stop-color="#a97c2c"/>
        </linearGradient>
    </defs>
    <g class="cls-30">
        <g>
            <rect class="cls-33" x="70.26" y="11.91" width="248.11" height="537.24" rx="33.08" ry="33.08"/>
            <rect class="cls-34" x="70.26" y="11.91" width="248.11" height="209.07"/>
            <path class="cls-33" d="M70.26,221.65c0-9.14,7.41-16.54,16.54-16.54h231.57v344.05H70.26V221.65Z"/>
            <g>
                <rect class="cls-24" x="88.79" y="56.9" width="211.06" height="132.33" rx="6.62" ry="6.62"/>
                <rect class="cls-23" x="88.79" y="56.9" width="211.06" height="132.33" rx="6.62" ry="6.62"/>
            </g>
            <g class="cls-31">
                <rect class="cls-24" y="105.65" width="155.52" height="95.76" rx="13.23" ry="13.23"/>
                <rect class="cls-24" x="222.09" y="42.97" width="108.31" height="67.03" rx="13.23" ry="13.23"/>
            </g>
            <path class="cls-4"
                  d="M117.39,139.6v-6.96h.78v6.96h-.78Zm4.2,.13c-.53,0-.9-.16-1.11-.47-.2-.31-.31-.71-.31-1.21v-2.95h-.77v-.58l.8-.05,.1-1.45h.65v1.45h1.41v.64h-1.41v2.97c0,.32,.06,.57,.17,.75,.12,.18,.34,.26,.65,.26,.09,0,.19-.01,.3-.04,.11-.03,.21-.06,.3-.1l.16,.58c-.14,.05-.29,.09-.46,.13-.16,.04-.32,.06-.47,.06Zm4.9,0c-.19,0-.35-.04-.48-.13-.13-.08-.22-.19-.28-.35-.06-.16-.08-.36-.08-.59v-6.62h.76v6.68c0,.13,.03,.22,.07,.28,.05,.06,.11,.08,.17,.08h.07s.07-.01,.12-.02l.11,.59c-.06,.01-.12,.03-.2,.04-.07,.02-.16,.03-.26,.03Zm3.77,0c-.42,0-.8-.11-1.16-.32-.36-.21-.65-.52-.87-.91-.22-.4-.33-.89-.33-1.46s.11-1.06,.33-1.46c.22-.4,.51-.71,.87-.92,.36-.21,.75-.32,1.16-.32s.8,.11,1.15,.32c.36,.21,.65,.52,.87,.92,.23,.4,.34,.89,.34,1.46s-.11,1.06-.34,1.46c-.22,.39-.51,.7-.87,.91-.35,.21-.74,.32-1.15,.32Zm0-.65c.31,0,.58-.08,.82-.25,.24-.17,.42-.41,.55-.71,.13-.31,.2-.67,.2-1.08s-.07-.76-.2-1.07c-.13-.31-.31-.55-.55-.72-.23-.18-.5-.26-.82-.26s-.57,.09-.82,.26c-.23,.17-.42,.41-.55,.72-.13,.31-.19,.67-.19,1.07s.06,.77,.19,1.08c.13,.3,.32,.54,.55,.71,.24,.17,.51,.25,.82,.25Zm5.72,.65c-.42,0-.8-.11-1.16-.32-.36-.21-.65-.52-.87-.91-.22-.4-.33-.89-.33-1.46s.11-1.06,.33-1.46c.22-.4,.51-.71,.87-.92,.36-.21,.75-.32,1.16-.32s.8,.11,1.15,.32c.36,.21,.65,.52,.87,.92,.23,.4,.34,.89,.34,1.46s-.11,1.06-.34,1.46c-.22,.39-.51,.7-.87,.91-.35,.21-.74,.32-1.15,.32Zm0-.65c.31,0,.58-.08,.82-.25,.24-.17,.42-.41,.55-.71,.13-.31,.2-.67,.2-1.08s-.07-.76-.2-1.07c-.13-.31-.31-.55-.55-.72-.23-.18-.5-.26-.82-.26s-.58,.09-.82,.26c-.23,.17-.42,.41-.55,.72-.13,.31-.19,.67-.19,1.07s.06,.77,.19,1.08c.13,.3,.32,.54,.55,.71,.24,.17,.51,.25,.82,.25Zm3.76,.52v-7.56h.75v5.23h.03l2.28-2.81h.86l-1.71,2.05,1.95,3.08h-.84l-1.56-2.54-1.01,1.19v1.36h-.75Zm6.47,.13c-.37,0-.72-.07-1.05-.2-.33-.14-.62-.31-.86-.51l.39-.52c.23,.18,.46,.32,.7,.44,.24,.12,.52,.18,.85,.18,.35,0,.62-.08,.79-.25,.18-.17,.26-.37,.26-.6,0-.18-.06-.34-.18-.46-.12-.13-.27-.23-.46-.32-.18-.09-.37-.17-.56-.24-.24-.08-.48-.19-.72-.31-.24-.12-.44-.27-.6-.46-.15-.18-.23-.42-.23-.71,0-.4,.15-.74,.46-1.02,.31-.28,.74-.42,1.29-.42,.31,0,.6,.06,.87,.17,.27,.11,.5,.25,.69,.4l-.37,.5c-.18-.13-.36-.23-.55-.32-.18-.09-.39-.14-.64-.14-.34,0-.59,.08-.75,.24-.16,.16-.24,.34-.24,.54,0,.17,.05,.31,.16,.42,.11,.11,.26,.2,.43,.28,.18,.08,.36,.16,.56,.23,.25,.09,.5,.2,.74,.32,.25,.11,.45,.26,.61,.46,.16,.19,.24,.45,.24,.78,0,.27-.07,.52-.21,.75-.14,.23-.35,.41-.62,.55-.28,.13-.61,.2-1.01,.2Zm6.05,0c-.19,0-.35-.04-.48-.13-.13-.08-.22-.19-.28-.35-.06-.16-.08-.36-.08-.59v-6.62h.76v6.68c0,.13,.02,.22,.07,.28,.05,.06,.11,.08,.17,.08h.07s.07-.01,.12-.02l.11,.59c-.06,.01-.12,.03-.2,.04-.07,.02-.16,.03-.26,.03Zm1.81-.13v-5.13h.76v5.13h-.76Zm.39-6.24c-.15,0-.28-.05-.38-.15-.1-.1-.15-.23-.15-.39s.05-.28,.15-.37c.11-.1,.23-.15,.38-.15s.28,.05,.38,.15c.1,.09,.15,.22,.15,.37s-.05,.29-.15,.39c-.1,.1-.23,.15-.38,.15Zm2.17,6.24v-7.56h.75v5.23h.03l2.28-2.81h.86l-1.71,2.05,1.95,3.08h-.84l-1.56-2.54-1.01,1.19v1.36h-.75Zm7.19,.13c-.44,0-.85-.11-1.23-.32-.37-.22-.66-.53-.88-.92-.22-.4-.33-.89-.33-1.45s.11-1.04,.33-1.44c.22-.4,.5-.71,.85-.93,.35-.22,.73-.33,1.12-.33,.42,0,.79,.1,1.09,.3,.3,.2,.53,.48,.69,.84,.16,.35,.24,.78,.24,1.27,0,.08,0,.17-.01,.25,0,.08,0,.15-.02,.21h-3.68v-.56s3.03,0,3.03,0c0-.55-.12-.97-.35-1.25-.23-.29-.56-.43-.97-.43-.25,0-.5,.07-.74,.22-.24,.15-.44,.37-.59,.68-.16,.3-.23,.7-.23,1.18s.08,.84,.24,1.14c.16,.3,.38,.53,.65,.69,.28,.16,.57,.23,.9,.23,.26,0,.49-.04,.7-.12,.21-.08,.41-.18,.6-.3l.29,.51c-.22,.14-.47,.26-.74,.37-.27,.11-.58,.16-.94,.16Zm5.31,2.12c-.11,0-.22-.01-.32-.03-.1-.02-.19-.05-.26-.07l.15-.62c.06,.02,.12,.04,.19,.05,.08,.02,.15,.03,.21,.03,.3,0,.54-.11,.74-.34,.2-.22,.35-.5,.46-.84l.13-.39-2.07-5.17h.79l1.1,2.94c.08,.22,.17,.46,.25,.71,.09,.25,.18,.49,.25,.73h.04c.08-.23,.15-.47,.23-.72,.08-.25,.15-.49,.21-.72l.96-2.94h.75l-1.95,5.61c-.12,.32-.26,.62-.42,.89-.16,.27-.36,.48-.6,.64-.23,.16-.52,.24-.85,.24Zm6.81-2.12c-.42,0-.8-.11-1.16-.32-.36-.21-.65-.52-.87-.91-.22-.4-.33-.89-.33-1.46s.11-1.06,.33-1.46c.22-.4,.51-.71,.87-.92,.36-.21,.75-.32,1.16-.32s.8,.11,1.15,.32c.36,.21,.65,.52,.87,.92,.23,.4,.34,.89,.34,1.46s-.11,1.06-.34,1.46c-.22,.39-.51,.7-.87,.91-.35,.21-.74,.32-1.15,.32Zm0-.65c.31,0,.58-.08,.82-.25,.24-.17,.42-.41,.55-.71,.13-.31,.2-.67,.2-1.08s-.07-.76-.2-1.07c-.13-.31-.31-.55-.55-.72-.23-.18-.5-.26-.82-.26s-.57,.09-.82,.26c-.23,.17-.42,.41-.55,.72-.13,.31-.19,.67-.19,1.07s.06,.77,.19,1.08c.13,.3,.32,.54,.55,.71,.24,.17,.51,.25,.82,.25Zm5.24,.65c-.53,0-.92-.17-1.18-.51-.25-.34-.38-.84-.38-1.49v-3.26h.76v3.17c0,.49,.08,.86,.24,1.09,.16,.23,.42,.34,.78,.34,.27,0,.51-.07,.73-.21,.22-.15,.46-.38,.71-.7v-3.68h.77v5.13h-.65l-.06-.82h-.03c-.24,.28-.49,.51-.76,.69-.27,.17-.58,.25-.94,.25Zm7.52,0c-.28,0-.54-.06-.76-.17-.23-.11-.41-.28-.54-.49-.13-.22-.2-.48-.2-.79,0-.56,.25-.98,.76-1.28,.51-.3,1.33-.52,2.43-.64,0-.23-.03-.46-.1-.67-.06-.21-.17-.38-.33-.51-.16-.13-.38-.2-.68-.2-.31,0-.6,.06-.87,.18-.26,.12-.49,.25-.69,.38l-.31-.53c.15-.1,.32-.2,.53-.31,.2-.11,.43-.19,.68-.26,.25-.07,.51-.11,.78-.11,.42,0,.75,.09,1.01,.26,.25,.18,.44,.42,.55,.73,.12,.31,.18,.67,.18,1.09v3.18h-.64l-.06-.62h-.03c-.25,.2-.52,.38-.8,.53-.29,.15-.6,.22-.92,.22Zm.2-.62c.27,0,.51-.06,.74-.18,.23-.13,.48-.31,.75-.54v-1.5c-.61,.07-1.09,.17-1.44,.3-.35,.12-.61,.27-.76,.44-.16,.18-.23,.38-.23,.61,0,.3,.09,.53,.28,.67,.19,.13,.41,.2,.67,.2Zm3.94,.5v-5.13h.64l.06,.94h.03c.18-.32,.39-.58,.64-.77,.25-.2,.53-.3,.83-.3,.11,0,.2,.01,.29,.03,.08,.01,.17,.04,.24,.07l-.15,.68c-.08-.03-.16-.05-.23-.06-.06-.01-.15-.02-.25-.02-.22,0-.45,.09-.69,.28-.24,.18-.45,.49-.64,.94v3.35h-.76Zm5.63,.13c-.44,0-.85-.11-1.23-.32-.37-.22-.66-.53-.88-.92-.22-.4-.33-.89-.33-1.45s.11-1.04,.33-1.44,.5-.71,.85-.93c.35-.22,.73-.33,1.12-.33,.42,0,.79,.1,1.09,.3,.3,.2,.53,.48,.69,.84,.16,.35,.24,.78,.24,1.27,0,.08,0,.17-.01,.25,0,.08,0,.15-.02,.21h-3.68v-.56s3.03,0,3.03,0c0-.55-.12-.97-.35-1.25-.23-.29-.56-.43-.97-.43-.25,0-.5,.07-.74,.22-.24,.15-.44,.37-.59,.68s-.23,.7-.23,1.18,.08,.84,.24,1.14c.16,.3,.38,.53,.65,.69,.28,.16,.57,.23,.9,.23,.26,0,.49-.04,.7-.12,.21-.08,.41-.18,.6-.3l.29,.51c-.22,.14-.47,.26-.74,.37-.27,.11-.58,.16-.94,.16Zm7.26,0c-.42,0-.8-.11-1.16-.32-.36-.21-.65-.52-.87-.91-.22-.4-.33-.89-.33-1.46s.11-1.06,.33-1.46c.22-.4,.51-.71,.87-.92s.75-.32,1.16-.32,.8,.11,1.15,.32c.36,.21,.65,.52,.87,.92,.23,.4,.34,.89,.34,1.46s-.11,1.06-.34,1.46c-.22,.39-.51,.7-.87,.91-.35,.21-.74,.32-1.15,.32Zm0-.65c.31,0,.58-.08,.82-.25,.24-.17,.42-.41,.55-.71,.13-.31,.2-.67,.2-1.08s-.07-.76-.2-1.07c-.13-.31-.31-.55-.55-.72-.23-.18-.5-.26-.82-.26s-.57,.09-.82,.26c-.23,.17-.42,.41-.55,.72-.13,.31-.19,.67-.19,1.07s.06,.77,.19,1.08c.13,.3,.32,.54,.55,.71,.24,.17,.51,.25,.82,.25Zm3.76,.52v-5.13h.64l.06,.76h.03c.25-.25,.51-.47,.78-.64,.28-.17,.6-.25,.94-.25,.54,0,.94,.17,1.19,.51,.25,.34,.38,.84,.38,1.49v3.26h-.77v-3.17c0-.49-.08-.85-.24-1.08-.16-.23-.41-.34-.77-.34-.27,0-.51,.07-.73,.21-.22,.13-.47,.34-.74,.61v3.76h-.76Zm9.42,.13c-.53,0-.9-.16-1.11-.47-.2-.31-.31-.71-.31-1.21v-2.95h-.77v-.58l.8-.05,.1-1.45h.65v1.45h1.41v.64h-1.41v2.97c0,.32,.06,.57,.17,.75,.12,.18,.34,.26,.65,.26,.09,0,.19-.01,.3-.04,.11-.03,.21-.06,.3-.1l.16,.58c-.14,.05-.29,.09-.46,.13-.16,.04-.32,.06-.47,.06Zm1.95-.13v-5.13h.64l.06,.94h.03c.18-.32,.39-.58,.64-.77,.25-.2,.53-.3,.83-.3,.11,0,.2,.01,.29,.03,.08,.01,.17,.04,.24,.07l-.15,.68c-.08-.03-.16-.05-.23-.06-.06-.01-.15-.02-.25-.02-.22,0-.45,.09-.69,.28-.24,.18-.45,.49-.64,.94v3.35h-.76Zm4.76,.13c-.28,0-.54-.06-.76-.17-.23-.11-.41-.28-.54-.49-.13-.22-.2-.48-.2-.79,0-.56,.25-.98,.76-1.28,.51-.3,1.33-.52,2.43-.64,0-.23-.03-.46-.1-.67-.06-.21-.17-.38-.33-.51-.16-.13-.38-.2-.68-.2-.31,0-.6,.06-.87,.18-.26,.12-.49,.25-.69,.38l-.31-.53c.15-.1,.32-.2,.53-.31,.2-.11,.43-.19,.68-.26,.25-.07,.51-.11,.78-.11,.42,0,.75,.09,1.01,.26s.44,.42,.55,.73c.12,.31,.18,.67,.18,1.09v3.18h-.64l-.06-.62h-.03c-.25,.2-.52,.38-.8,.53-.29,.15-.6,.22-.92,.22Zm.2-.62c.27,0,.51-.06,.74-.18,.23-.13,.48-.31,.75-.54v-1.5c-.61,.07-1.09,.17-1.44,.3-.35,.12-.61,.27-.76,.44-.16,.18-.23,.38-.23,.61,0,.3,.09,.53,.28,.67,.19,.13,.41,.2,.67,.2Zm5.93,.62c-.45,0-.86-.11-1.22-.32-.36-.21-.65-.52-.86-.91-.21-.4-.32-.89-.32-1.46s.11-1.06,.34-1.46c.23-.4,.53-.71,.9-.92,.37-.21,.77-.32,1.21-.32,.34,0,.63,.06,.87,.19,.24,.12,.45,.26,.62,.42l-.4,.51c-.15-.14-.31-.25-.49-.34-.17-.09-.36-.14-.57-.14-.32,0-.61,.09-.87,.26-.25,.17-.44,.41-.59,.72-.14,.31-.21,.67-.21,1.07s.07,.77,.2,1.08c.14,.3,.34,.54,.58,.71,.25,.17,.54,.25,.87,.25,.25,0,.48-.05,.69-.16s.4-.23,.56-.37l.34,.52c-.23,.2-.48,.37-.76,.49-.28,.11-.58,.17-.89,.17Zm2.82-.13v-7.56h.75v5.23h.03l2.28-2.81h.86l-1.71,2.05,1.95,3.08h-.84l-1.56-2.54-1.01,1.19v1.36h-.75Zm5.54,.13c-.16,0-.29-.06-.41-.17-.11-.11-.17-.26-.17-.44s.06-.34,.17-.46c.12-.11,.26-.17,.41-.17s.3,.06,.41,.17c.11,.11,.17,.26,.17,.46s-.06,.33-.17,.44c-.11,.11-.25,.17-.41,.17Zm4.38-.13v-6.96h1.93c.52,0,.97,.07,1.36,.2,.39,.13,.69,.34,.9,.64,.22,.29,.33,.68,.33,1.19s-.11,.88-.32,1.19c-.21,.31-.51,.54-.89,.7-.38,.16-.83,.23-1.33,.23h-1.19v2.82h-.78Zm.78-3.46h1.07c.64,0,1.1-.12,1.41-.35,.31-.24,.47-.61,.47-1.12s-.16-.88-.49-1.08c-.32-.2-.79-.31-1.43-.31h-1.03v2.86Zm5.92,3.59c-.19,0-.35-.04-.48-.13-.13-.08-.22-.19-.28-.35-.06-.16-.08-.36-.08-.59v-6.62h.76v6.68c0,.13,.03,.22,.07,.28,.05,.06,.11,.08,.17,.08h.07s.07-.01,.12-.02l.11,.59c-.06,.01-.12,.03-.2,.04-.07,.02-.16,.03-.26,.03Zm3.84,0c-.44,0-.85-.11-1.23-.32-.37-.22-.66-.53-.88-.92-.22-.4-.33-.89-.33-1.45s.11-1.04,.33-1.44c.22-.4,.5-.71,.85-.93,.35-.22,.73-.33,1.12-.33,.42,0,.79,.1,1.09,.3,.3,.2,.53,.48,.69,.84,.16,.35,.24,.78,.24,1.27,0,.08,0,.17-.01,.25,0,.08,0,.15-.02,.21h-3.68v-.56s3.03,0,3.03,0c0-.55-.12-.97-.35-1.25-.23-.29-.56-.43-.97-.43-.25,0-.5,.07-.74,.22-.24,.15-.44,.37-.59,.68-.15,.3-.23,.7-.23,1.18s.08,.84,.24,1.14c.16,.3,.38,.53,.65,.69,.28,.16,.58,.23,.9,.23,.26,0,.49-.04,.7-.12,.21-.08,.41-.18,.6-.3l.29,.51c-.22,.14-.47,.26-.74,.37-.27,.11-.58,.16-.94,.16Zm4.34,0c-.28,0-.54-.06-.76-.17-.23-.11-.41-.28-.54-.49-.13-.22-.2-.48-.2-.79,0-.56,.25-.98,.76-1.28,.52-.3,1.33-.52,2.43-.64,0-.23-.03-.46-.1-.67-.06-.21-.17-.38-.33-.51-.15-.13-.38-.2-.68-.2s-.6,.06-.87,.18c-.26,.12-.49,.25-.69,.38l-.31-.53c.15-.1,.32-.2,.53-.31,.21-.11,.43-.19,.68-.26,.25-.07,.51-.11,.78-.11,.42,0,.75,.09,1.01,.26s.44,.42,.55,.73c.12,.31,.18,.67,.18,1.09v3.18h-.64l-.06-.62h-.03c-.25,.2-.51,.38-.8,.53-.29,.15-.6,.22-.92,.22Zm.2-.62c.27,0,.52-.06,.74-.18,.23-.13,.48-.31,.75-.54v-1.5c-.61,.07-1.09,.17-1.44,.3-.35,.12-.61,.27-.76,.44-.15,.18-.23,.38-.23,.61,0,.3,.09,.53,.28,.67,.19,.13,.41,.2,.67,.2Zm5.25,.62c-.37,0-.72-.07-1.05-.2-.33-.14-.62-.31-.86-.51l.39-.52c.23,.18,.46,.32,.7,.44s.52,.18,.85,.18c.35,0,.62-.08,.79-.25s.26-.37,.26-.6c0-.18-.06-.34-.18-.46-.12-.13-.27-.23-.46-.32-.18-.09-.37-.17-.56-.24-.24-.08-.48-.19-.72-.31s-.44-.27-.6-.46c-.16-.18-.23-.42-.23-.71,0-.4,.15-.74,.46-1.02,.31-.28,.74-.42,1.29-.42,.31,0,.6,.06,.87,.17s.5,.25,.69,.4l-.37,.5c-.18-.13-.36-.23-.55-.32-.18-.09-.4-.14-.64-.14-.34,0-.59,.08-.75,.24-.16,.16-.24,.34-.24,.54,0,.17,.05,.31,.16,.42,.11,.11,.26,.2,.43,.28,.18,.08,.36,.16,.56,.23,.25,.09,.5,.2,.74,.32,.25,.11,.45,.26,.61,.46,.16,.19,.24,.45,.24,.78,0,.27-.07,.52-.21,.75-.14,.23-.35,.41-.62,.55-.28,.13-.61,.2-1.01,.2Zm5.12,0c-.44,0-.85-.11-1.23-.32-.37-.22-.66-.53-.88-.92-.22-.4-.33-.89-.33-1.45s.11-1.04,.33-1.44c.22-.4,.5-.71,.85-.93,.35-.22,.73-.33,1.12-.33,.42,0,.79,.1,1.09,.3,.3,.2,.53,.48,.69,.84,.16,.35,.24,.78,.24,1.27,0,.08,0,.17-.01,.25,0,.08,0,.15-.02,.21h-3.68v-.56s3.03,0,3.03,0c0-.55-.12-.97-.35-1.25-.23-.29-.56-.43-.97-.43-.25,0-.5,.07-.74,.22-.24,.15-.44,.37-.59,.68-.15,.3-.23,.7-.23,1.18s.08,.84,.24,1.14c.16,.3,.38,.53,.65,.69,.28,.16,.58,.23,.9,.23,.26,0,.49-.04,.7-.12,.21-.08,.41-.18,.6-.3l.29,.51c-.22,.14-.47,.26-.74,.37-.27,.11-.58,.16-.94,.16Zm-146.1,15.88c-.45,0-.86-.11-1.22-.32-.36-.21-.65-.52-.86-.91-.21-.4-.32-.89-.32-1.46s.11-1.06,.34-1.46c.23-.4,.53-.71,.9-.92,.37-.21,.77-.32,1.21-.32,.34,0,.63,.06,.87,.19,.24,.12,.45,.26,.62,.42l-.4,.51c-.15-.14-.31-.25-.49-.34-.17-.09-.36-.14-.57-.14-.32,0-.61,.09-.87,.26-.25,.17-.44,.41-.59,.72-.14,.31-.21,.67-.21,1.07s.07,.77,.2,1.08c.14,.3,.34,.54,.58,.71,.25,.17,.54,.25,.87,.25,.25,0,.48-.05,.69-.16,.21-.11,.4-.23,.56-.37l.34,.52c-.23,.2-.48,.37-.76,.49-.28,.11-.58,.17-.89,.17Zm4.78,0c-.42,0-.8-.11-1.16-.32-.36-.21-.65-.52-.87-.91-.22-.4-.33-.89-.33-1.46s.11-1.06,.33-1.46c.22-.4,.51-.71,.87-.92,.36-.21,.75-.32,1.16-.32s.8,.11,1.15,.32c.36,.21,.65,.52,.87,.92,.23,.4,.34,.89,.34,1.46s-.11,1.06-.34,1.46c-.22,.39-.51,.7-.87,.91-.35,.21-.74,.32-1.15,.32Zm0-.65c.31,0,.58-.08,.82-.25,.24-.17,.42-.41,.55-.71,.13-.31,.2-.67,.2-1.08s-.07-.76-.2-1.07c-.13-.31-.31-.55-.55-.72-.23-.18-.5-.26-.82-.26s-.58,.09-.82,.26c-.23,.17-.42,.41-.55,.72-.13,.31-.19,.67-.19,1.07s.06,.77,.19,1.08c.13,.3,.32,.54,.55,.71,.24,.17,.51,.25,.82,.25Zm3.76,.52v-5.13h.64l.06,.76h.03c.25-.25,.51-.47,.78-.64,.28-.17,.6-.25,.94-.25,.54,0,.94,.17,1.19,.51,.25,.34,.38,.84,.38,1.49v3.26h-.77v-3.17c0-.49-.08-.85-.24-1.08-.15-.23-.41-.34-.77-.34-.27,0-.51,.07-.73,.21-.22,.13-.47,.34-.74,.61v3.76h-.76Zm7.3,.13c-.53,0-.9-.16-1.11-.47-.2-.31-.31-.71-.31-1.21v-2.95h-.77v-.58l.8-.05,.1-1.45h.65v1.45h1.41v.64h-1.41v2.97c0,.32,.06,.57,.17,.75,.12,.18,.34,.26,.65,.26,.09,0,.19-.01,.3-.04,.11-.03,.21-.06,.3-.1l.16,.58c-.14,.05-.29,.09-.46,.13-.16,.04-.32,.06-.47,.06Zm1.95-.13v-5.13h.76v5.13h-.76Zm.39-6.24c-.15,0-.28-.05-.38-.15-.1-.1-.15-.23-.15-.39s.05-.28,.15-.37c.11-.1,.23-.15,.38-.15s.28,.05,.38,.15c.1,.09,.15,.22,.15,.37s-.05,.29-.15,.39c-.1,.1-.23,.15-.38,.15Zm2.17,6.24v-5.13h.64l.06,.76h.03c.25-.25,.51-.47,.78-.64,.28-.17,.6-.25,.94-.25,.54,0,.94,.17,1.19,.51,.25,.34,.38,.84,.38,1.49v3.26h-.77v-3.17c0-.49-.08-.85-.24-1.08-.16-.23-.41-.34-.77-.34-.27,0-.51,.07-.73,.21-.22,.13-.47,.34-.74,.61v3.76h-.76Zm7.23,.13c-.53,0-.92-.17-1.18-.51-.25-.34-.38-.84-.38-1.49v-3.26h.76v3.17c0,.49,.08,.86,.24,1.09,.16,.23,.42,.34,.78,.34,.27,0,.51-.07,.73-.21,.22-.15,.46-.38,.71-.7v-3.68h.77v5.13h-.65l-.06-.82h-.03c-.24,.28-.49,.51-.76,.69-.27,.17-.58,.25-.94,.25Zm6.27,0c-.44,0-.85-.11-1.23-.32-.37-.22-.66-.53-.88-.92-.22-.4-.33-.89-.33-1.45s.11-1.04,.33-1.44,.5-.71,.85-.93c.35-.22,.73-.33,1.12-.33,.42,0,.79,.1,1.09,.3,.3,.2,.53,.48,.69,.84,.16,.35,.24,.78,.24,1.27,0,.08,0,.17-.01,.25,0,.08,0,.15-.02,.21h-3.68v-.56s3.03,0,3.03,0c0-.55-.12-.97-.35-1.25-.23-.29-.56-.43-.97-.43-.25,0-.5,.07-.74,.22-.24,.15-.44,.37-.59,.68s-.23,.7-.23,1.18,.08,.84,.24,1.14c.16,.3,.38,.53,.65,.69,.28,.16,.57,.23,.9,.23,.26,0,.49-.04,.7-.12,.21-.08,.41-.18,.6-.3l.29,.51c-.22,.14-.47,.26-.74,.37-.27,.11-.58,.16-.94,.16Zm6.85,0c-.53,0-.9-.16-1.11-.47-.2-.31-.31-.71-.31-1.21v-2.95h-.77v-.58l.8-.05,.1-1.45h.65v1.45h1.41v.64h-1.41v2.97c0,.32,.06,.57,.17,.75,.12,.18,.34,.26,.65,.26,.09,0,.19-.01,.3-.04,.11-.03,.21-.06,.3-.1l.16,.58c-.14,.05-.29,.09-.46,.13-.16,.04-.32,.06-.47,.06Zm3.91,0c-.42,0-.8-.11-1.16-.32-.36-.21-.65-.52-.87-.91-.22-.4-.33-.89-.33-1.46s.11-1.06,.33-1.46,.51-.71,.87-.92c.36-.21,.75-.32,1.16-.32s.8,.11,1.15,.32c.36,.21,.65,.52,.87,.92,.23,.4,.34,.89,.34,1.46s-.11,1.06-.34,1.46c-.22,.39-.51,.7-.87,.91-.35,.21-.74,.32-1.15,.32Zm0-.65c.31,0,.58-.08,.82-.25,.24-.17,.42-.41,.55-.71,.13-.31,.2-.67,.2-1.08s-.07-.76-.2-1.07c-.13-.31-.31-.55-.55-.72-.23-.18-.5-.26-.82-.26s-.57,.09-.82,.26c-.23,.17-.42,.41-.55,.72-.13,.31-.19,.67-.19,1.07s.06,.77,.19,1.08c.13,.3,.32,.54,.55,.71,.24,.17,.51,.25,.82,.25Zm5.99,.52v-6.02c0-.35,.05-.64,.16-.89,.11-.25,.26-.44,.48-.57,.22-.13,.49-.2,.82-.2,.15,0,.29,.02,.43,.05,.15,.03,.28,.07,.39,.12l-.17,.59c-.1-.05-.2-.08-.3-.1-.1-.02-.2-.03-.3-.03-.25,0-.43,.09-.56,.26-.12,.18-.18,.43-.18,.77v6.01h-.77Zm-.7-4.5v-.58l.73-.05h1.85v.64h-2.58Zm5.55,4.63c-.42,0-.8-.11-1.16-.32-.36-.21-.65-.52-.87-.91-.22-.4-.33-.89-.33-1.46s.11-1.06,.33-1.46c.22-.4,.51-.71,.87-.92,.36-.21,.75-.32,1.16-.32s.8,.11,1.15,.32c.36,.21,.65,.52,.87,.92,.23,.4,.34,.89,.34,1.46s-.11,1.06-.34,1.46c-.22,.39-.51,.7-.87,.91-.35,.21-.74,.32-1.15,.32Zm0-.65c.31,0,.58-.08,.82-.25,.24-.17,.42-.41,.55-.71,.13-.31,.2-.67,.2-1.08s-.07-.76-.2-1.07c-.13-.31-.31-.55-.55-.72-.23-.18-.5-.26-.82-.26s-.58,.09-.82,.26c-.23,.17-.42,.41-.55,.72-.13,.31-.19,.67-.19,1.07s.06,.77,.19,1.08c.13,.3,.32,.54,.55,.71,.24,.17,.51,.25,.82,.25Zm4.59,.65c-.19,0-.35-.04-.48-.13-.13-.08-.22-.19-.28-.35-.06-.16-.08-.36-.08-.59v-6.62h.76v6.68c0,.13,.03,.22,.07,.28,.05,.06,.11,.08,.17,.08h.07s.07-.01,.12-.02l.11,.59c-.06,.01-.12,.03-.2,.04-.07,.02-.16,.03-.26,.03Zm2.65,0c-.19,0-.35-.04-.48-.13-.13-.08-.22-.19-.28-.35-.06-.16-.08-.36-.08-.59v-6.62h.76v6.68c0,.13,.03,.22,.07,.28,.05,.06,.11,.08,.17,.08h.07s.07-.01,.12-.02l.11,.59c-.06,.01-.12,.03-.2,.04-.07,.02-.16,.03-.26,.03Zm3.77,0c-.42,0-.8-.11-1.16-.32-.36-.21-.65-.52-.87-.91-.22-.4-.33-.89-.33-1.46s.11-1.06,.33-1.46c.22-.4,.51-.71,.87-.92,.36-.21,.75-.32,1.16-.32s.8,.11,1.15,.32c.36,.21,.65,.52,.87,.92,.23,.4,.34,.89,.34,1.46s-.11,1.06-.34,1.46c-.22,.39-.51,.7-.87,.91-.35,.21-.74,.32-1.15,.32Zm0-.65c.31,0,.58-.08,.82-.25,.24-.17,.42-.41,.55-.71,.13-.31,.2-.67,.2-1.08s-.07-.76-.2-1.07c-.13-.31-.31-.55-.55-.72-.23-.18-.5-.26-.82-.26s-.57,.09-.82,.26c-.23,.17-.42,.41-.55,.72-.13,.31-.19,.67-.19,1.07s.06,.77,.19,1.08c.13,.3,.32,.54,.55,.71,.24,.17,.51,.25,.82,.25Zm4.56,.52l-1.45-5.13h.79l.8,3.06c.06,.24,.11,.48,.16,.71,.06,.23,.11,.46,.15,.71h.04c.06-.25,.12-.48,.18-.71,.06-.23,.12-.47,.18-.71l.83-3.06h.77l.84,3.06c.06,.24,.12,.48,.18,.71,.06,.23,.12,.46,.18,.71h.04c.06-.25,.12-.48,.17-.71,.06-.23,.11-.47,.17-.71l.78-3.06h.74l-1.4,5.13h-.95l-.78-2.87c-.06-.25-.11-.49-.17-.73-.06-.24-.12-.49-.18-.74h-.04c-.06,.25-.12,.5-.18,.75-.06,.25-.12,.49-.19,.74l-.76,2.85h-.9Zm8.84,2.24c-.11,0-.22-.01-.32-.03-.1-.02-.19-.05-.26-.07l.15-.62c.06,.02,.12,.04,.19,.05,.08,.02,.15,.03,.21,.03,.3,0,.54-.11,.74-.34,.2-.22,.35-.5,.46-.84l.13-.39-2.07-5.17h.79l1.1,2.94c.08,.22,.17,.46,.25,.71,.09,.25,.18,.49,.25,.73h.04c.08-.23,.16-.47,.23-.72,.08-.25,.15-.49,.21-.72l.96-2.94h.75l-1.95,5.61c-.12,.32-.26,.62-.42,.89-.16,.27-.36,.48-.6,.64-.23,.16-.51,.24-.85,.24Zm6.81-2.12c-.42,0-.8-.11-1.16-.32-.36-.21-.65-.52-.87-.91-.22-.4-.33-.89-.33-1.46s.11-1.06,.33-1.46c.22-.4,.51-.71,.87-.92s.75-.32,1.16-.32,.8,.11,1.15,.32c.36,.21,.65,.52,.87,.92,.23,.4,.34,.89,.34,1.46s-.11,1.06-.34,1.46c-.22,.39-.51,.7-.87,.91-.35,.21-.74,.32-1.15,.32Zm0-.65c.31,0,.58-.08,.82-.25,.24-.17,.42-.41,.55-.71,.13-.31,.2-.67,.2-1.08s-.07-.76-.2-1.07c-.13-.31-.31-.55-.55-.72-.23-.18-.5-.26-.82-.26s-.57,.09-.82,.26c-.23,.17-.42,.41-.55,.72-.13,.31-.19,.67-.19,1.07s.06,.77,.19,1.08c.13,.3,.32,.54,.55,.71,.24,.17,.51,.25,.82,.25Zm5.24,.65c-.53,0-.92-.17-1.18-.51-.25-.34-.38-.84-.38-1.49v-3.26h.76v3.17c0,.49,.08,.86,.24,1.09,.16,.23,.42,.34,.78,.34,.27,0,.51-.07,.73-.21,.22-.15,.46-.38,.71-.7v-3.68h.77v5.13h-.65l-.06-.82h-.03c-.24,.28-.49,.51-.76,.69-.27,.17-.58,.25-.94,.25Zm4.23-.13v-5.13h.64l.06,.94h.03c.18-.32,.39-.58,.64-.77,.25-.2,.53-.3,.83-.3,.11,0,.2,.01,.29,.03,.08,.01,.17,.04,.24,.07l-.15,.68c-.08-.03-.16-.05-.23-.06-.06-.01-.15-.02-.25-.02-.22,0-.45,.09-.69,.28-.24,.18-.45,.49-.64,.94v3.35h-.76Zm7.44,.13c-.64,0-1.15-.23-1.53-.7-.38-.47-.57-1.14-.57-1.99,0-.55,.1-1.03,.31-1.43,.21-.4,.49-.71,.83-.93,.34-.23,.71-.34,1.1-.34,.3,0,.56,.05,.78,.16,.22,.11,.44,.25,.68,.44l-.03-.89v-2.01h.76v7.56h-.64l-.06-.62h-.03c-.2,.2-.43,.38-.71,.53-.27,.15-.56,.22-.88,.22Zm.17-.66c.25,0,.48-.06,.71-.18,.23-.13,.45-.31,.68-.55v-2.78c-.23-.2-.46-.35-.67-.43-.21-.08-.43-.13-.65-.13-.29,0-.55,.09-.79,.26-.23,.17-.42,.41-.56,.72-.13,.3-.2,.66-.2,1.06,0,.63,.13,1.13,.38,1.49,.26,.36,.63,.54,1.1,.54Zm5.11,.66c-.28,0-.54-.06-.76-.17-.23-.11-.41-.28-.54-.49-.13-.22-.2-.48-.2-.79,0-.56,.25-.98,.76-1.28,.52-.3,1.33-.52,2.43-.64,0-.23-.03-.46-.1-.67-.06-.21-.17-.38-.33-.51-.16-.13-.38-.2-.68-.2s-.6,.06-.87,.18c-.26,.12-.49,.25-.69,.38l-.31-.53c.15-.1,.32-.2,.53-.31s.43-.19,.68-.26c.25-.07,.51-.11,.78-.11,.42,0,.75,.09,1.01,.26s.44,.42,.55,.73c.12,.31,.18,.67,.18,1.09v3.18h-.64l-.06-.62h-.03c-.25,.2-.52,.38-.8,.53-.29,.15-.6,.22-.92,.22Zm.2-.62c.27,0,.52-.06,.74-.18,.23-.13,.48-.31,.75-.54v-1.5c-.61,.07-1.09,.17-1.44,.3-.35,.12-.61,.27-.76,.44-.16,.18-.23,.38-.23,.61,0,.3,.09,.53,.28,.67,.19,.13,.41,.2,.67,.2Zm3.94,.5v-5.13h.76v5.13h-.76Zm.39-6.24c-.15,0-.28-.05-.38-.15-.1-.1-.15-.23-.15-.39s.05-.28,.15-.37c.11-.1,.23-.15,.38-.15s.28,.05,.38,.15c.1,.09,.15,.22,.15,.37s-.05,.29-.15,.39c-.1,.1-.23,.15-.38,.15Zm3.01,6.36c-.19,0-.35-.04-.48-.13-.13-.08-.22-.19-.28-.35-.06-.16-.08-.36-.08-.59v-6.62h.76v6.68c0,.13,.02,.22,.07,.28,.05,.06,.11,.08,.17,.08h.07s.07-.01,.12-.02l.11,.59c-.06,.01-.12,.03-.2,.04-.07,.02-.16,.03-.26,.03Zm1.82,2.12c-.11,0-.22-.01-.32-.03-.1-.02-.19-.05-.26-.07l.15-.62c.06,.02,.12,.04,.19,.05,.08,.02,.15,.03,.21,.03,.3,0,.54-.11,.74-.34,.2-.22,.35-.5,.46-.84l.13-.39-2.07-5.17h.79l1.1,2.94c.08,.22,.17,.46,.25,.71,.09,.25,.18,.49,.25,.73h.04c.08-.23,.15-.47,.23-.72,.08-.25,.15-.49,.21-.72l.96-2.94h.75l-1.95,5.61c-.12,.32-.26,.62-.42,.89-.16,.27-.36,.48-.6,.64-.23,.16-.52,.24-.85,.24Zm6.97-.04v-7.34h.64l.06,.61h.03c.23-.2,.49-.38,.77-.52,.29-.15,.59-.22,.89-.22,.44,0,.82,.11,1.12,.33,.3,.21,.53,.52,.68,.91,.15,.39,.23,.85,.23,1.38,0,.59-.11,1.09-.32,1.5-.21,.41-.48,.72-.82,.94-.34,.22-.7,.33-1.09,.33-.23,0-.47-.05-.72-.16-.25-.11-.49-.25-.74-.44l.02,.91v1.77h-.76Zm2.07-2.73c.3,0,.57-.08,.8-.25,.23-.17,.42-.41,.55-.73,.13-.32,.2-.69,.2-1.12,0-.39-.05-.73-.15-1.03-.09-.3-.24-.53-.46-.69-.21-.17-.48-.25-.82-.25-.23,0-.46,.06-.7,.19-.23,.12-.48,.3-.75,.55v2.77c.25,.2,.49,.35,.72,.43,.23,.08,.42,.13,.59,.13Zm4.6,.66c-.19,0-.35-.04-.48-.13-.13-.08-.22-.19-.28-.35-.06-.16-.08-.36-.08-.59v-6.62h.76v6.68c0,.13,.02,.22,.07,.28,.05,.06,.11,.08,.17,.08h.07s.07-.01,.12-.02l.11,.59c-.06,.01-.12,.03-.2,.04-.07,.02-.16,.03-.26,.03Zm2.97,0c-.28,0-.54-.06-.76-.17-.23-.11-.41-.28-.54-.49-.13-.22-.2-.48-.2-.79,0-.56,.25-.98,.76-1.28,.51-.3,1.33-.52,2.43-.64,0-.23-.03-.46-.1-.67-.06-.21-.17-.38-.33-.51-.16-.13-.38-.2-.68-.2-.31,0-.6,.06-.87,.18-.26,.12-.49,.25-.69,.38l-.31-.53c.15-.1,.32-.2,.53-.31,.2-.11,.43-.19,.68-.26,.25-.07,.51-.11,.78-.11,.42,0,.75,.09,1.01,.26s.44,.42,.55,.73c.12,.31,.18,.67,.18,1.09v3.18h-.64l-.06-.62h-.03c-.25,.2-.52,.38-.8,.53-.29,.15-.6,.22-.92,.22Zm.2-.62c.27,0,.51-.06,.74-.18,.23-.13,.48-.31,.75-.54v-1.5c-.61,.07-1.09,.17-1.44,.3-.35,.12-.61,.27-.76,.44-.16,.18-.23,.38-.23,.61,0,.3,.09,.53,.28,.67,.19,.13,.41,.2,.67,.2Zm3.94,.5v-5.13h.64l.06,.76h.03c.25-.25,.51-.47,.78-.64,.28-.17,.6-.25,.94-.25,.54,0,.94,.17,1.19,.51,.25,.34,.38,.84,.38,1.49v3.26h-.77v-3.17c0-.49-.08-.85-.24-1.08-.15-.23-.41-.34-.77-.34-.27,0-.51,.07-.73,.21-.22,.13-.47,.34-.74,.61v3.76h-.76Z"/>
            <path class="cls-4"
                  d="M160.03,119.09l-1.31-6.9h1.49l.52,3.3c.04,.37,.09,.73,.14,1.1,.06,.37,.11,.73,.16,1.09h.04c.07-.36,.14-.72,.21-1.09,.07-.37,.14-.74,.21-1.1l.77-3.3h1.25l.77,3.3c.07,.36,.14,.72,.21,1.09,.08,.37,.15,.73,.22,1.1h.04c.04-.37,.09-.73,.14-1.1,.06-.37,.11-.73,.16-1.09l.51-3.3h1.4l-1.26,6.9h-1.82l-.73-3.3c-.06-.27-.11-.54-.16-.8-.04-.27-.08-.53-.13-.79h-.04c-.04,.26-.09,.53-.14,.79-.05,.27-.1,.54-.16,.8l-.71,3.3h-1.79Zm10.12,.13c-.49,0-.94-.11-1.34-.33-.4-.22-.71-.53-.94-.93-.23-.41-.35-.9-.35-1.48s.12-1.05,.35-1.46c.24-.41,.55-.73,.92-.95,.37-.23,.77-.34,1.19-.34,.49,0,.89,.11,1.22,.33,.33,.22,.58,.52,.74,.9,.17,.37,.25,.8,.25,1.28,0,.13,0,.25-.02,.38-.01,.12-.03,.21-.04,.28h-3.46v-.96s2.28,0,2.28,0c0-.32-.07-.59-.22-.78-.15-.2-.39-.31-.71-.31-.19,0-.37,.05-.55,.16-.18,.11-.32,.28-.43,.53-.11,.24-.17,.56-.17,.95s.07,.72,.21,.96c.15,.23,.33,.4,.56,.51,.23,.11,.47,.16,.72,.16,.21,0,.41-.03,.59-.08,.19-.06,.38-.15,.57-.26l.48,.88c-.26,.18-.55,.32-.88,.42-.32,.11-.64,.16-.95,.16Zm5.44,0c-.49,0-.94-.11-1.34-.33-.4-.22-.71-.53-.94-.93-.23-.41-.35-.9-.35-1.48s.12-1.05,.35-1.46c.24-.41,.55-.73,.92-.95,.37-.23,.77-.34,1.19-.34,.49,0,.89,.11,1.22,.33,.33,.22,.58,.52,.74,.9,.17,.37,.25,.8,.25,1.28,0,.13,0,.25-.02,.38-.01,.12-.03,.21-.04,.28h-3.46v-.96s2.28,0,2.28,0c0-.32-.07-.59-.22-.78-.15-.2-.39-.31-.71-.31-.19,0-.37,.05-.55,.16-.18,.11-.32,.28-.43,.53-.11,.24-.17,.56-.17,.95s.07,.72,.21,.96c.15,.23,.33,.4,.56,.51,.23,.11,.47,.16,.72,.16,.21,0,.41-.03,.59-.08,.19-.06,.38-.15,.57-.26l.48,.88c-.26,.18-.55,.32-.88,.42-.32,.11-.64,.16-.95,.16Zm3.12-.13v-7.43h1.42v4.38h.04l1.75-2.19h1.58l-1.82,2.15,1.97,3.09h-1.57l-1.23-2.12-.72,.82v1.3h-1.42Zm7.06,.13c-.33,0-.6-.07-.79-.2-.2-.14-.34-.34-.43-.58-.08-.25-.13-.54-.13-.88v-5.9h1.45v5.96c0,.16,.03,.26,.08,.33,.06,.06,.13,.1,.19,.1h.08s.06-.01,.11-.02l.18,1.07c-.08,.04-.19,.06-.31,.08-.12,.03-.26,.04-.43,.04Zm2.14,1.95c-.15,0-.29-.01-.4-.03-.11-.02-.22-.05-.33-.07l.26-1.1s.11,.02,.17,.03c.07,.02,.13,.03,.19,.03,.26,0,.47-.07,.61-.21,.16-.14,.27-.32,.34-.54l.08-.3-2.03-5.12h1.46l.79,2.36c.08,.23,.15,.47,.22,.72,.07,.25,.14,.5,.21,.76h.04c.06-.25,.12-.49,.18-.74,.06-.25,.13-.5,.19-.74l.68-2.36h1.4l-1.84,5.36c-.16,.42-.34,.77-.53,1.06-.19,.3-.42,.52-.7,.67-.28,.16-.61,.23-1.01,.23Zm7.03-.1v-7.22h1.19l.11,.53h.04c.21-.18,.45-.34,.71-.47,.26-.13,.53-.19,.8-.19,.43,0,.8,.11,1.1,.34,.3,.22,.54,.53,.7,.93,.17,.39,.25,.86,.25,1.4,0,.6-.11,1.11-.32,1.53-.21,.42-.49,.74-.83,.96-.33,.22-.69,.33-1.07,.33-.23,0-.45-.05-.67-.14-.22-.1-.42-.24-.61-.41l.04,.84v1.57h-1.45Zm2.36-3.04c.19,0,.37-.06,.53-.17,.16-.12,.29-.3,.38-.54,.09-.24,.14-.55,.14-.92,0-.32-.04-.59-.11-.8-.07-.23-.18-.39-.33-.51-.14-.11-.32-.17-.54-.17-.17,0-.33,.04-.49,.12-.16,.08-.32,.21-.5,.39v2.23c.15,.13,.31,.23,.47,.29,.16,.06,.31,.08,.44,.08Zm3.68,1.06v-5.24h1.19l.11,.92h.04c.19-.35,.42-.61,.68-.78,.27-.18,.54-.26,.8-.26,.14,0,.26,.01,.36,.03,.1,.01,.18,.04,.25,.07l-.24,1.26c-.09-.03-.18-.05-.26-.06-.08-.01-.17-.02-.29-.02-.21,0-.42,.07-.64,.22-.22,.15-.4,.41-.55,.78v3.08h-1.45Zm6.35,.13c-.44,0-.86-.11-1.25-.32-.38-.22-.69-.53-.93-.94-.24-.41-.36-.9-.36-1.48s.12-1.07,.36-1.48,.55-.72,.93-.94c.39-.22,.8-.33,1.25-.33s.85,.11,1.23,.33c.39,.22,.7,.53,.94,.94s.36,.9,.36,1.48-.12,1.07-.36,1.48c-.24,.41-.55,.72-.94,.94-.38,.21-.79,.32-1.23,.32Zm0-1.18c.23,0,.42-.06,.57-.19,.16-.13,.27-.31,.35-.54,.08-.24,.12-.52,.12-.84s-.04-.59-.12-.83c-.08-.24-.19-.42-.35-.55-.16-.13-.35-.2-.57-.2s-.43,.07-.58,.2c-.16,.13-.27,.31-.35,.55-.08,.23-.12,.51-.12,.83s.04,.6,.12,.84c.08,.23,.19,.41,.35,.54s.35,.19,.58,.19Zm5.48,3.3c-.41,0-.78-.05-1.11-.15-.33-.09-.59-.24-.78-.43-.19-.2-.29-.45-.29-.76,0-.22,.06-.42,.19-.6,.13-.18,.32-.33,.55-.47v-.04c-.13-.09-.24-.21-.34-.35-.09-.15-.14-.33-.14-.54,0-.19,.06-.37,.17-.54,.12-.18,.26-.32,.41-.43v-.04c-.18-.13-.34-.32-.49-.55-.14-.24-.21-.51-.21-.82,0-.42,.1-.76,.3-1.04,.2-.28,.47-.49,.79-.64,.32-.15,.67-.22,1.05-.22,.15,0,.29,.01,.42,.04,.14,.02,.27,.05,.38,.08h1.89v1.07h-.88c.06,.08,.12,.19,.16,.33,.04,.13,.06,.26,.06,.41,0,.4-.09,.73-.28,1-.18,.26-.43,.46-.74,.58-.3,.13-.65,.19-1.03,.19-.1,0-.21,0-.32-.02-.11-.02-.22-.05-.34-.08-.07,.06-.12,.12-.16,.18-.04,.06-.05,.14-.05,.24,0,.13,.06,.24,.18,.31,.13,.07,.33,.11,.62,.11h.88c.64,0,1.12,.11,1.46,.32,.34,.2,.51,.54,.51,1,0,.36-.12,.68-.36,.96-.23,.28-.57,.5-1,.67-.43,.16-.94,.24-1.53,.24Zm.23-.92c.25,0,.47-.03,.66-.1,.19-.06,.34-.14,.44-.25,.11-.11,.17-.23,.17-.36,0-.18-.07-.29-.22-.35-.14-.06-.35-.08-.61-.08h-.6c-.16,0-.3,0-.41-.02-.11-.01-.22-.03-.31-.05-.11,.09-.2,.18-.25,.28-.05,.09-.07,.19-.07,.3,0,.21,.11,.37,.33,.48,.23,.11,.52,.17,.89,.17Zm-.13-3.87c.15,0,.28-.04,.39-.11,.12-.07,.21-.18,.28-.32,.07-.14,.11-.31,.11-.51s-.04-.36-.11-.5c-.06-.13-.16-.24-.28-.31-.11-.07-.24-.11-.39-.11-.22,0-.4,.08-.55,.23s-.22,.38-.22,.68c0,.2,.03,.37,.1,.51,.07,.14,.16,.25,.28,.32,.12,.07,.25,.11,.4,.11Zm3.65,2.54v-5.24h1.19l.11,.92h.04c.19-.35,.42-.61,.68-.78,.27-.18,.54-.26,.8-.26,.14,0,.26,.01,.36,.03,.1,.01,.18,.04,.25,.07l-.24,1.26c-.09-.03-.18-.05-.26-.06-.08-.01-.17-.02-.29-.02-.2,0-.42,.07-.64,.22-.22,.15-.4,.41-.55,.78v3.08h-1.45Zm6.44,.13c-.49,0-.94-.11-1.34-.33-.39-.22-.71-.53-.94-.93-.23-.41-.35-.9-.35-1.48s.12-1.05,.35-1.46c.24-.41,.55-.73,.92-.95,.37-.23,.77-.34,1.19-.34,.49,0,.89,.11,1.22,.33,.33,.22,.58,.52,.74,.9,.17,.37,.25,.8,.25,1.28,0,.13,0,.25-.02,.38-.01,.12-.03,.21-.04,.28h-3.46v-.96s2.28,0,2.28,0c0-.32-.07-.59-.22-.78-.15-.2-.38-.31-.71-.31-.19,0-.37,.05-.55,.16-.18,.11-.32,.28-.43,.53-.11,.24-.17,.56-.17,.95s.07,.72,.21,.96c.15,.23,.34,.4,.56,.51,.23,.11,.47,.16,.72,.16,.21,0,.41-.03,.59-.08,.19-.06,.38-.15,.57-.26l.48,.88c-.26,.18-.55,.32-.88,.42-.32,.11-.64,.16-.95,.16Zm4.64,0c-.35,0-.7-.07-1.07-.2-.36-.14-.67-.32-.93-.53l.66-.91c.24,.18,.47,.31,.7,.41,.23,.1,.46,.15,.69,.15,.25,0,.43-.05,.54-.14,.11-.09,.17-.22,.17-.37,0-.12-.05-.22-.16-.31-.1-.09-.23-.17-.4-.23-.16-.07-.33-.14-.52-.21-.22-.08-.44-.19-.66-.32-.21-.13-.39-.29-.54-.49-.14-.2-.21-.44-.21-.73,0-.48,.18-.87,.54-1.16,.36-.3,.84-.46,1.43-.46,.4,0,.74,.07,1.04,.2s.55,.29,.77,.46l-.65,.88c-.19-.14-.38-.25-.56-.33-.18-.08-.37-.13-.56-.13-.22,0-.38,.05-.5,.14-.11,.08-.16,.2-.16,.34,0,.11,.05,.21,.15,.29,.1,.08,.23,.15,.39,.21,.16,.06,.34,.13,.52,.19,.23,.08,.45,.19,.67,.32,.22,.12,.4,.28,.55,.49,.15,.2,.22,.46,.22,.77s-.08,.59-.24,.85c-.16,.25-.4,.46-.72,.6-.31,.15-.69,.22-1.15,.22Zm4.65,0c-.35,0-.7-.07-1.07-.2-.36-.14-.67-.32-.93-.53l.66-.91c.24,.18,.47,.31,.7,.41,.23,.1,.46,.15,.69,.15,.25,0,.43-.05,.54-.14,.11-.09,.17-.22,.17-.37,0-.12-.05-.22-.16-.31-.1-.09-.23-.17-.4-.23-.16-.07-.33-.14-.52-.21-.22-.08-.44-.19-.66-.32-.21-.13-.39-.29-.54-.49-.14-.2-.21-.44-.21-.73,0-.48,.18-.87,.54-1.16,.36-.3,.84-.46,1.43-.46,.4,0,.74,.07,1.04,.2s.55,.29,.77,.46l-.65,.88c-.19-.14-.38-.25-.56-.33-.18-.08-.37-.13-.56-.13-.22,0-.38,.05-.5,.14-.11,.08-.16,.2-.16,.34,0,.11,.05,.21,.15,.29,.1,.08,.23,.15,.39,.21,.16,.06,.34,.13,.52,.19,.23,.08,.45,.19,.67,.32,.22,.12,.4,.28,.55,.49,.15,.2,.22,.46,.22,.77s-.08,.59-.24,.85c-.16,.25-.4,.46-.72,.6-.31,.15-.69,.22-1.15,.22Z"/>
            <path class="cls-5"
                  d="M199.46,87.5c-.24-.39-.74-.5-1.12-.25-.23,.15-.61,.54-.88,.99-.13,.22-.22,.42-.26,.57-.02,.06-.02,.11-.02,.14h0s0,.03,0,.04c.01,0,.06,.04,.16,.06,.15,.03,.37,.03,.62,0,.51-.06,1.02-.25,1.25-.4,.38-.25,.49-.76,.25-1.15Zm-5.91,2.13h-2.33c-.3,0-.54,.25-.54,.55v2.21c0,.31,.24,.55,.54,.55v3.87c0,.61,.48,1.11,1.08,1.11h8.66c.6,0,1.08-.49,1.08-1.11v-3.87c.3,0,.54-.25,.54-.55v-2.21c0-.31-.24-.55-.54-.55h-2.33s.05-.03,.08-.05c.88-.57,1.14-1.77,.58-2.67-.56-.9-1.73-1.17-2.62-.59-.36,.24-.8,.7-1.12,1.19-.32-.49-.76-.95-1.12-1.19-.88-.57-2.05-.31-2.62,.59-.56,.9-.3,2.1,.58,2.67,.02,.02,.05,.03,.08,.05Zm2.54-.68h0s0,.03,0,.04c-.01,0-.06,.04-.16,.06-.15,.03-.37,.03-.62,0-.51-.06-1.02-.25-1.25-.4-.38-.25-.49-.76-.25-1.15,.24-.39,.74-.5,1.12-.25,.23,.15,.61,.54,.88,.99,.13,.22,.22,.42,.26,.57,.02,.06,.02,.11,.02,.14Zm-3.79,4v3.87h3.79v-3.87h-3.79Zm3.79-1.11h-4.33v-1.11h4.33v1.11Zm1.08,1.11v3.87h3.79v-3.87h-3.79Zm0-1.11v-1.11h4.33v1.11h-4.33Z"/>
            <path class="cls-28"
                  d="M92.3,27.05c0-.72,.24-1.31,.73-1.76,.49-.46,1.11-.69,1.87-.69,.51,0,.96,.12,1.36,.35,.39,.24,.71,.58,.94,1.03,.33,.58,.49,1.32,.49,2.21,0,1.18-.25,2.1-.75,2.76-.5,.66-1.2,.99-2.08,.99-.64,0-1.18-.17-1.63-.52-.45-.35-.73-.81-.83-1.39h1.25c.08,.26,.23,.47,.45,.63,.22,.15,.48,.23,.78,.23,.51,0,.91-.22,1.2-.67,.29-.45,.43-1.08,.43-1.88h-.08c-.16,.33-.41,.59-.72,.78-.32,.18-.68,.27-1.09,.27-.67,0-1.22-.22-1.65-.66-.43-.44-.65-1-.65-1.67Zm1.23-.04c0,.4,.13,.73,.39,.99,.26,.26,.59,.38,.99,.38s.73-.13,.99-.38,.39-.58,.39-.97-.13-.73-.4-.99c-.26-.27-.59-.4-.98-.4s-.72,.13-.98,.4c-.26,.26-.4,.59-.4,.98Zm5.44,4.09c0-.22,.07-.41,.22-.55,.15-.15,.33-.22,.56-.22s.42,.07,.56,.22c.15,.14,.22,.32,.22,.55s-.07,.4-.22,.55c-.14,.15-.33,.22-.56,.22s-.41-.07-.56-.22-.22-.33-.22-.55Zm0-3.63c0-.22,.07-.41,.22-.55,.15-.15,.33-.22,.56-.22s.42,.07,.56,.22c.15,.14,.22,.32,.22,.55s-.07,.4-.22,.55c-.14,.14-.33,.21-.56,.21s-.41-.07-.56-.21c-.15-.15-.22-.33-.22-.55Zm2.67,2.99v-1.11c.57-1.05,1.52-2.57,2.85-4.57h1.76v4.63h.94v1.06h-.94v1.3h-1.2v-1.3h-3.42Zm1.16-1.03h2.28v-3.64h-.07c-.76,1.12-1.49,2.31-2.21,3.57v.07Zm5.24-2.18v-1.2l1.83-1.28h1.25v6.99h-1.25v-5.73h-.08l-1.74,1.22Z"/>
            <rect class="cls-21" x="293.12" y="23.71" width="13.89" height="6.84" rx="1.43" ry="1.43"/>
            <path class="cls-27" d="M308.01,25.8v2.65c.53-.22,.88-.75,.88-1.32s-.35-1.1-.88-1.32Z"/>
            <rect class="cls-28" x="294.12" y="24.7" width="11.91" height="4.85" rx=".88" ry=".88"/>
            <path class="cls-10"
                  d="M284.41,24.89c1.47,0,2.89,.57,3.95,1.58,.08,.08,.21,.08,.29,0l.77-.77s.06-.09,.06-.15c0-.06-.02-.11-.06-.15-2.8-2.68-7.22-2.68-10.02,0-.04,.04-.06,.09-.06,.15,0,.06,.02,.11,.06,.15l.77,.77c.08,.08,.21,.08,.29,0,1.07-1.01,2.48-1.58,3.95-1.58Zm0,2.52c.81,0,1.59,.3,2.19,.84,.08,.08,.21,.08,.29,0l.77-.77s.06-.1,.06-.15c0-.06-.02-.11-.07-.15-1.83-1.7-4.65-1.7-6.48,0-.04,.04-.06,.09-.07,.15,0,.06,.02,.11,.06,.15l.77,.77c.08,.08,.21,.08,.29,0,.6-.54,1.38-.84,2.19-.84Zm1.54,1.7c0,.06-.02,.11-.06,.15l-1.33,1.34s-.09,.06-.15,.06-.11-.02-.15-.06l-1.33-1.34s-.06-.1-.06-.15c0-.06,.03-.11,.07-.15,.85-.72,2.09-.72,2.94,0,.04,.04,.07,.09,.07,.15Z"/>
            <path class="cls-10"
                  d="M275.37,23.6h-.66c-.37,0-.66,.3-.66,.66v5.73c0,.37,.3,.66,.66,.66h.66c.37,0,.66-.3,.66-.66v-5.73c0-.37-.3-.66-.66-.66Zm-3.75,1.54h.66c.37,0,.66,.3,.66,.66v4.19c0,.37-.3,.66-.66,.66h-.66c-.37,0-.66-.3-.66-.66v-4.19c0-.37,.3-.66,.66-.66Zm-2.43,1.54h-.66c-.37,0-.66,.3-.66,.66v2.65c0,.37,.3,.66,.66,.66h.66c.37,0,.66-.3,.66-.66v-2.65c0-.37-.3-.66-.66-.66Zm-3.09,1.32h-.66c-.37,0-.66,.3-.66,.66v1.32c0,.37,.3,.66,.66,.66h.66c.37,0,.66-.3,.66-.66v-1.32c0-.37-.3-.66-.66-.66Z"/>
            <path class="cls-29"
                  d="M90.05,226.49h2.87c1.63,0,2.9,.43,3.8,1.29,.91,.86,1.37,2.14,1.37,3.86s-.45,3.02-1.35,3.91c-.89,.88-2.12,1.32-3.68,1.32h-3v-10.37Zm2.75,8.61c2.03,0,3.05-1.15,3.05-3.46,0-1.2-.26-2.06-.79-2.59-.52-.53-1.27-.79-2.25-.79h-.57v6.84h.57Zm9.06,1.95c-.7,0-1.27-.22-1.7-.67-.42-.44-.64-1.01-.64-1.68,0-.84,.35-1.48,1.06-1.94,.71-.47,1.85-.78,3.41-.95-.03-.85-.47-1.27-1.3-1.27-.33,0-.66,.06-1,.19-.34,.13-.71,.31-1.11,.54l-.78-1.43c1.11-.69,2.21-1.03,3.3-1.03,1.01,0,1.77,.3,2.29,.89,.52,.58,.78,1.46,.78,2.62v4.54h-1.78l-.16-.83h-.05c-.78,.68-1.56,1.02-2.33,1.02Zm.71-1.68c.26,0,.5-.06,.71-.17,.22-.13,.46-.31,.71-.56v-1.51c-.86,.12-1.47,.29-1.84,.52-.37,.23-.56,.52-.56,.87,0,.28,.08,.49,.25,.64,.17,.14,.41,.21,.71,.21Zm5.66-6.37h2.16v7.86h-2.16v-7.86Zm1.08-1.22c-.36,0-.66-.11-.89-.32-.22-.22-.33-.5-.33-.84s.11-.61,.33-.83c.23-.22,.53-.33,.89-.33s.65,.11,.87,.33c.23,.21,.35,.49,.35,.83s-.12,.62-.35,.84c-.22,.21-.51,.32-.87,.32Zm5.26,9.27c-.71,0-1.22-.22-1.54-.65-.32-.43-.48-1.05-.48-1.84v-8.86h2.16v8.96c0,.22,.04,.39,.13,.49,.08,.1,.18,.14,.29,.14s.2-.01,.29-.03l.27,1.62c-.31,.12-.68,.17-1.11,.17Zm3.21,2.94c-.38,0-.75-.05-1.1-.16l.4-1.67c.22,.07,.4,.11,.54,.11,.7,0,1.18-.38,1.43-1.14l.13-.44-3.05-7.69h2.19l1.19,3.54c.13,.37,.28,.86,.44,1.48,.07,.29,.14,.53,.21,.75h.06c.14-.6,.32-1.34,.56-2.22l1.03-3.54h2.08l-2.76,8.03c-.38,1.02-.82,1.76-1.32,2.24-.5,.48-1.18,.71-2.03,.71Zm10.56-10.99h1.76l.16,1.38h.06c.28-.51,.61-.89,1-1.16,.4-.28,.81-.41,1.22-.41,.37,0,.68,.05,.92,.16l-.37,1.87s-.13-.03-.29-.06c-.16-.04-.34-.06-.54-.06-.34,0-.67,.12-.98,.37-.32,.24-.58,.62-.79,1.14v4.64h-2.16v-7.86Zm12.53,3.57c0,.4-.03,.73-.1,.98h-4.86c.11,.62,.36,1.09,.76,1.38,.41,.3,.89,.44,1.43,.44s1.14-.17,1.75-.52l.71,1.32c-.39,.28-.83,.49-1.32,.65-.48,.15-.95,.22-1.43,.22-.74,0-1.41-.16-2.02-.49-.59-.33-1.06-.8-1.41-1.43-.34-.62-.51-1.36-.51-2.19s.17-1.55,.51-2.18c.35-.62,.8-1.11,1.37-1.44,.56-.34,1.16-.51,1.79-.51,1.07,0,1.89,.35,2.46,1.05,.57,.69,.86,1.59,.86,2.72Zm-1.86-.46c0-.51-.12-.91-.35-1.19-.23-.3-.59-.44-1.06-.44-.39,0-.74,.14-1.05,.41-.3,.26-.5,.67-.6,1.22h3.06Zm3.5-3.11h1.76l.16,.79h.06c.33-.3,.69-.53,1.08-.71,.4-.18,.8-.27,1.19-.27,.95,0,1.7,.36,2.25,1.08,.55,.72,.83,1.69,.83,2.92,0,.86-.15,1.61-.46,2.25-.31,.65-.71,1.14-1.22,1.48-.51,.34-1.05,.51-1.64,.51-.67,0-1.31-.28-1.92-.84l.06,1.27v2.37h-2.16v-10.85Zm3.53,6.27c.47,0,.85-.21,1.14-.62s.44-1.02,.44-1.83c0-1.49-.49-2.24-1.48-2.24-.49,0-.98,.25-1.48,.76v3.37c.42,.37,.88,.56,1.37,.56Zm8.85,1.78c-.68,0-1.31-.16-1.89-.49-.57-.33-1.03-.8-1.38-1.43s-.52-1.36-.52-2.19,.17-1.58,.52-2.21,.81-1.1,1.38-1.43c.58-.33,1.21-.49,1.89-.49s1.29,.16,1.87,.49c.58,.33,1.05,.81,1.4,1.45,.35,.62,.52,1.36,.52,2.19s-.17,1.57-.52,2.19-.82,1.1-1.4,1.43c-.58,.33-1.21,.49-1.87,.49Zm0-1.76c.5,0,.88-.21,1.16-.62,.28-.42,.41-1,.41-1.73s-.14-1.31-.41-1.73c-.28-.42-.66-.64-1.16-.64s-.9,.21-1.18,.64c-.26,.42-.4,1-.4,1.73s.13,1.31,.4,1.73c.28,.41,.67,.62,1.18,.62Zm5.46-6.29h1.76l.16,1.38h.06c.28-.51,.61-.89,1-1.16,.4-.28,.81-.41,1.22-.41,.37,0,.68,.05,.92,.16l-.37,1.87s-.13-.03-.29-.06c-.16-.04-.34-.06-.54-.06-.34,0-.67,.12-.98,.37-.32,.24-.58,.62-.79,1.14v4.64h-2.16v-7.86Zm9.13,8.05c-.91,0-1.58-.26-2-.78-.42-.53-.64-1.27-.64-2.21v-3.35h-1.1v-1.62l1.21-.1,.25-2.1h1.79v2.1h1.92v1.71h-1.92v3.33c0,.86,.35,1.29,1.05,1.29,.22,0,.48-.05,.78-.16l.35,1.59c-.57,.19-1.14,.29-1.7,.29Z"/>
            <path class="cls-9"
                  d="M283.12,225.62c.31,0,.57,.25,.57,.57v.57c0,.31-.25,.57-.57,.57s-.57-.25-.57-.57v-.57c0-.31,.25-.57,.57-.57Zm0,2.84c.63,0,1.13,.51,1.13,1.13s-.51,1.13-1.13,1.13-1.13-.51-1.13-1.13,.51-1.13,1.13-1.13Zm9.64,1.7c.63,0,1.13,.51,1.13,1.13s-.51,1.13-1.13,1.13-1.13-.51-1.13-1.13,.51-1.13,1.13-1.13Zm-5.1,1.7c.63,0,1.13,.51,1.13,1.13s-.51,1.13-1.13,1.13-1.13-.51-1.13-1.13,.51-1.13,1.13-1.13Zm0,3.4c.31,0,.57,.25,.57,.57v1.13c0,.31-.25,.57-.57,.57s-.57-.25-.57-.57v-1.13c0-.31,.25-.57,.57-.57Zm-4.54-3.4c.31,0,.57,.25,.57,.57v4.54c0,.31-.25,.57-.57,.57s-.57-.25-.57-.57v-4.54c0-.31,.25-.57,.57-.57Zm9.64-6.24c.31,0,.57,.25,.57,.57v2.27c0,.31-.25,.57-.57,.57s-.57-.25-.57-.57v-2.27c0-.31,.25-.57,.57-.57Zm0,7.37c.31,0,.57,.25,.57,.57v3.4c0,.31-.25,.57-.57,.57s-.57-.25-.57-.57v-3.4c0-.31,.25-.57,.57-.57Zm-5.1-7.37c.31,0,.57,.25,.57,.57v3.97c0,.31-.25,.57-.57,.57s-.57-.25-.57-.57v-3.97c0-.31,.25-.57,.57-.57Z"/>
            <rect class="cls-4" x="88.79" y="252.08" width="211.06" height="106.52" rx="6.62" ry="6.62"/>
            <path class="cls-25"
                  d="M202.06,334.12v-6.07h3.59v.8h-2.65v1.86h2.25v.8h-2.25v2.61h-.94Zm6.39,.11c-.38,0-.73-.09-1.05-.28-.32-.19-.58-.45-.79-.81-.2-.36-.3-.79-.3-1.29s.1-.93,.3-1.28c.2-.36,.47-.63,.79-.82,.32-.19,.67-.29,1.05-.29s.72,.1,1.04,.29c.33,.19,.59,.46,.79,.82,.2,.35,.31,.78,.31,1.28s-.1,.93-.31,1.29c-.2,.35-.46,.62-.79,.81-.32,.19-.67,.28-1.04,.28Zm0-.77c.24,0,.45-.06,.62-.19,.18-.14,.31-.32,.41-.57,.09-.24,.14-.52,.14-.84s-.05-.6-.14-.84c-.09-.25-.23-.44-.41-.57-.17-.14-.38-.2-.62-.2s-.45,.07-.62,.2c-.17,.13-.31,.32-.41,.57-.09,.24-.14,.52-.14,.84s.05,.6,.14,.84c.1,.24,.23,.43,.41,.57,.17,.13,.38,.19,.62,.19Zm4.18,.77c-.23,0-.41-.05-.55-.14-.14-.09-.23-.23-.3-.4-.06-.17-.09-.38-.09-.63v-5.51h.94v5.57c0,.12,.02,.21,.06,.27,.05,.05,.1,.07,.16,.07h.06s.06-.01,.1-.02l.12,.7c-.06,.02-.13,.04-.21,.06-.08,.02-.18,.03-.3,.03Zm2.44,0c-.23,0-.41-.05-.55-.14-.14-.09-.23-.23-.3-.4-.06-.17-.09-.38-.09-.63v-5.51h.94v5.57c0,.12,.02,.21,.06,.27,.05,.05,.1,.07,.16,.07h.06s.06-.01,.1-.02l.12,.7c-.06,.02-.13,.04-.21,.06-.08,.02-.18,.03-.3,.03Zm3.32,0c-.38,0-.73-.09-1.05-.28-.32-.19-.58-.45-.79-.81-.2-.36-.3-.79-.3-1.29s.1-.93,.3-1.28c.2-.36,.47-.63,.79-.82,.32-.19,.67-.29,1.05-.29s.72,.1,1.04,.29c.33,.19,.59,.46,.79,.82,.2,.35,.31,.78,.31,1.28s-.1,.93-.31,1.29c-.2,.35-.46,.62-.79,.81-.32,.19-.67,.28-1.04,.28Zm0-.77c.24,0,.45-.06,.62-.19,.18-.14,.31-.32,.41-.57,.09-.24,.14-.52,.14-.84s-.05-.6-.14-.84c-.09-.25-.23-.44-.41-.57-.17-.14-.38-.2-.62-.2s-.45,.07-.62,.2c-.17,.13-.31,.32-.41,.57-.09,.24-.14,.52-.14,.84s.05,.6,.14,.84c.1,.24,.23,.43,.41,.57,.17,.13,.38,.19,.62,.19Zm3.97,.66l-1.22-4.53h.94l.6,2.46c.04,.22,.08,.43,.12,.65,.04,.21,.09,.42,.13,.64h.04c.04-.22,.09-.43,.14-.64,.05-.22,.1-.43,.16-.65l.64-2.46h.87l.65,2.46c.06,.22,.11,.43,.16,.65,.05,.21,.1,.42,.15,.64h.04c.04-.22,.08-.43,.12-.64,.04-.22,.09-.43,.14-.65l.59-2.46h.88l-1.18,4.53h-1.12l-.58-2.25c-.05-.22-.1-.43-.15-.64-.04-.22-.09-.44-.14-.68h-.04c-.05,.23-.1,.46-.14,.68-.04,.22-.09,.43-.15,.65l-.57,2.24h-1.08Z"/>
            <path class="cls-14"
                  d="M188.7,327.51h3.31c1.83,0,3.31,1.48,3.31,3.31h0c0,1.83-1.48,3.31-3.31,3.31h-3.31c-1.83,0-3.31-1.48-3.31-3.31h0c0-1.83,1.48-3.31,3.31-3.31Z"/>
            <path class="cls-25"
                  d="M204.54,319.02c-.54,0-1.03-.12-1.45-.36-.42-.25-.75-.61-.99-1.07-.24-.47-.36-1.03-.36-1.7,0-.49,.07-.94,.21-1.32,.15-.39,.35-.72,.6-.99,.25-.28,.55-.49,.9-.63,.35-.14,.72-.21,1.12-.21,.43,0,.78,.08,1.07,.24,.3,.15,.54,.33,.72,.52l-.51,.61c-.15-.15-.32-.28-.53-.39-.2-.11-.44-.16-.73-.16-.38,0-.72,.09-1,.28-.28,.19-.5,.45-.66,.8-.15,.35-.23,.76-.23,1.23s.07,.9,.22,1.25c.15,.35,.36,.61,.65,.81,.28,.19,.64,.28,1.06,.28,.19,0,.37-.02,.55-.07,.17-.06,.31-.13,.42-.23v-1.43h-1.2v-.78h2.06v2.62c-.2,.2-.46,.37-.8,.51-.33,.14-.7,.2-1.11,.2Zm3.21-.11v-4.53h.77l.07,.82h.03c.16-.29,.35-.52,.57-.68,.23-.17,.47-.25,.71-.25,.1,0,.2,0,.28,.03,.08,.01,.15,.03,.22,.06l-.17,.82c-.08-.02-.15-.04-.22-.06-.06-.01-.14-.02-.23-.02-.19,0-.38,.07-.58,.22-.2,.14-.38,.39-.52,.76v2.83h-.94Zm5.17,.11c-.38,0-.73-.09-1.05-.28-.32-.19-.58-.45-.79-.81-.2-.36-.3-.79-.3-1.29s.1-.93,.3-1.28c.2-.36,.47-.63,.79-.82,.32-.19,.67-.29,1.05-.29s.72,.1,1.04,.29c.33,.19,.59,.46,.79,.82,.2,.35,.31,.78,.31,1.28s-.1,.93-.31,1.29c-.2,.35-.46,.62-.79,.81-.32,.19-.67,.28-1.04,.28Zm0-.77c.24,0,.45-.06,.62-.19,.18-.14,.31-.32,.41-.57,.09-.24,.14-.52,.14-.84s-.05-.6-.14-.84c-.09-.25-.23-.44-.41-.57-.17-.14-.38-.2-.62-.2s-.45,.07-.62,.2c-.17,.13-.31,.32-.41,.57-.09,.24-.14,.52-.14,.84s.05,.6,.14,.84c.1,.24,.23,.43,.41,.57,.17,.13,.38,.19,.62,.19Zm3.97,.66l-1.22-4.53h.94l.6,2.46c.04,.22,.08,.43,.12,.65,.04,.21,.09,.42,.13,.64h.04c.04-.22,.09-.43,.14-.64,.05-.22,.1-.43,.16-.65l.64-2.46h.87l.65,2.46c.06,.22,.11,.43,.16,.65,.05,.21,.1,.42,.15,.64h.04c.04-.22,.08-.43,.12-.64,.04-.22,.09-.43,.14-.65l.59-2.46h.88l-1.18,4.53h-1.12l-.58-2.25c-.05-.22-.1-.43-.15-.64-.04-.22-.09-.44-.14-.68h-.04c-.05,.23-.1,.46-.14,.68-.04,.22-.09,.43-.15,.65l-.57,2.24h-1.08Zm7.6,.11c-.51,0-.86-.14-1.07-.44-.2-.3-.31-.68-.31-1.15v-2.31h-.66v-.7l.7-.05,.11-1.25h.78v1.25h1.19v.75h-1.19v2.32c0,.27,.05,.47,.16,.61,.11,.14,.28,.21,.51,.21,.08,0,.16,0,.25-.03,.09-.02,.17-.05,.24-.08l.17,.69c-.12,.04-.26,.08-.42,.11-.15,.04-.31,.06-.47,.06Zm1.73-.11v-6.57h.94v1.74l-.04,.9c.2-.19,.41-.36,.65-.5,.24-.14,.52-.21,.82-.21,.48,0,.83,.15,1.06,.46s.33,.75,.33,1.32v2.85h-.94v-2.73c0-.39-.06-.68-.19-.84-.12-.17-.31-.26-.58-.26-.22,0-.41,.05-.57,.16-.16,.11-.34,.26-.55,.46v3.21h-.94Z"/>
            <path class="cls-26"
                  d="M188.7,312.29h3.31c1.83,0,3.31,1.48,3.31,3.31h0c0,1.83-1.48,3.31-3.31,3.31h-3.31c-1.83,0-3.31-1.48-3.31-3.31h0c0-1.83,1.48-3.31,3.31-3.31Z"/>
            <path class="cls-25"
                  d="M202.06,303.69v-6.07h1.98c.41,0,.78,.06,1.11,.17,.33,.11,.6,.29,.79,.55,.19,.26,.29,.61,.29,1.05s-.1,.77-.29,1.04c-.19,.27-.45,.48-.79,.61-.33,.14-.7,.2-1.11,.2h-1.04v2.45h-.94Zm3.32,0l-1.52-2.71,.7-.53,1.88,3.24h-1.07Zm-2.37-3.21h.93c.44,0,.78-.09,1.01-.27,.23-.19,.35-.46,.35-.82s-.12-.63-.35-.78c-.23-.15-.57-.22-1.01-.22h-.93v2.09Zm6.25,3.33c-.41,0-.79-.09-1.12-.28-.33-.19-.59-.46-.79-.82-.2-.35-.3-.78-.3-1.28s.1-.91,.3-1.26c.2-.36,.45-.63,.77-.82,.31-.2,.65-.3,1-.3,.4,0,.73,.09,1,.27,.28,.18,.49,.43,.63,.75,.14,.32,.21,.69,.21,1.12,0,.09,0,.18-.02,.27,0,.09-.02,.16-.03,.21h-3.13v-.65s2.36,0,2.36,0c0-.39-.09-.7-.26-.92-.17-.22-.42-.32-.75-.32-.2,0-.39,.06-.57,.17s-.34,.29-.46,.54c-.12,.24-.18,.56-.18,.94s.07,.69,.2,.93c.14,.24,.31,.42,.53,.54,.22,.12,.46,.18,.72,.18,.2,0,.39-.03,.57-.09,.18-.06,.35-.14,.52-.25l.32,.59c-.21,.14-.44,.25-.7,.34-.25,.09-.53,.14-.82,.14Zm3.76-.11l-1.6-4.53h.95l.78,2.45c.06,.22,.13,.45,.19,.68,.07,.23,.14,.45,.2,.68h.04c.06-.22,.13-.45,.19-.68,.07-.23,.14-.45,.2-.68l.78-2.45h.91l-1.57,4.53h-1.08Zm5.37,.11c-.41,0-.79-.09-1.12-.28-.33-.19-.59-.46-.79-.82-.2-.35-.3-.78-.3-1.28s.1-.91,.3-1.26c.2-.36,.45-.63,.77-.82,.31-.2,.65-.3,1-.3,.4,0,.73,.09,1,.27,.28,.18,.49,.43,.63,.75,.14,.32,.21,.69,.21,1.12,0,.09,0,.18-.02,.27,0,.09-.02,.16-.03,.21h-3.13v-.65s2.36,0,2.36,0c0-.39-.09-.7-.26-.92-.17-.22-.42-.32-.75-.32-.2,0-.39,.06-.57,.17s-.34,.29-.46,.54c-.12,.24-.18,.56-.18,.94s.07,.69,.2,.93c.14,.24,.31,.42,.53,.54,.22,.12,.46,.18,.72,.18,.2,0,.39-.03,.57-.09,.18-.06,.35-.14,.52-.25l.32,.59c-.21,.14-.44,.25-.7,.34-.25,.09-.53,.14-.82,.14Zm2.76-.11v-4.53h.77l.07,.63h.03c.21-.2,.44-.38,.68-.52,.24-.15,.52-.22,.82-.22,.48,0,.83,.15,1.06,.46s.33,.75,.33,1.32v2.85h-.94v-2.73c0-.39-.06-.68-.19-.84-.12-.17-.31-.26-.58-.26-.22,0-.41,.05-.57,.16-.16,.11-.34,.26-.55,.46v3.21h-.94Zm6.46,.11c-.48,0-.83-.15-1.06-.46-.22-.31-.33-.75-.33-1.32v-2.85h.94v2.73c0,.4,.06,.68,.19,.85,.12,.17,.32,.25,.58,.25,.21,0,.4-.05,.57-.16,.17-.11,.34-.29,.53-.53v-3.15h.94v4.53h-.77l-.07-.69h-.03c-.2,.24-.42,.44-.66,.58-.23,.14-.5,.21-.82,.21Zm5.66,0c-.41,0-.79-.09-1.12-.28-.33-.19-.59-.46-.79-.82-.2-.35-.3-.78-.3-1.28s.1-.91,.3-1.26c.2-.36,.45-.63,.77-.82,.31-.2,.65-.3,1-.3,.4,0,.73,.09,1,.27,.28,.18,.49,.43,.63,.75,.14,.32,.21,.69,.21,1.12,0,.09,0,.18-.02,.27,0,.09-.02,.16-.03,.21h-3.13v-.65s2.36,0,2.36,0c0-.39-.09-.7-.26-.92-.17-.22-.42-.32-.75-.32-.2,0-.39,.06-.57,.17s-.34,.29-.46,.54c-.12,.24-.18,.56-.18,.94s.07,.69,.2,.93c.14,.24,.31,.42,.53,.54,.22,.12,.46,.18,.72,.18,.2,0,.39-.03,.57-.09,.18-.06,.35-.14,.52-.25l.32,.59c-.21,.14-.44,.25-.7,.34-.25,.09-.53,.14-.82,.14Z"/>
            <path class="cls-3"
                  d="M188.7,297.07h3.31c1.83,0,3.31,1.48,3.31,3.31h0c0,1.83-1.48,3.31-3.31,3.31h-3.31c-1.83,0-3.31-1.48-3.31-3.31h0c0-1.83,1.48-3.31,3.31-3.31Z"/>
            <path class="cls-29"
                  d="M186.33,283.18v-7.76h2.16c.79,0,1.48,.14,2.06,.42,.58,.27,1.02,.69,1.33,1.26,.32,.56,.48,1.29,.48,2.17s-.16,1.61-.48,2.19c-.31,.58-.75,1.01-1.31,1.3-.56,.29-1.23,.43-1.99,.43h-2.25Zm1.63-1.32h.43c.46,0,.86-.09,1.2-.26,.34-.17,.61-.45,.8-.82,.19-.38,.29-.89,.29-1.51s-.1-1.12-.29-1.49c-.19-.37-.46-.64-.8-.8-.34-.17-.74-.25-1.2-.25h-.43v5.13Zm7.22,1.46c-.35,0-.66-.08-.92-.23-.26-.16-.47-.37-.62-.63-.14-.27-.21-.57-.21-.91,0-.62,.27-1.1,.8-1.45,.53-.35,1.39-.59,2.57-.71,0-.18-.05-.35-.12-.49-.06-.14-.17-.25-.31-.33-.13-.08-.32-.12-.55-.12-.26,0-.52,.05-.79,.15-.25,.1-.52,.23-.8,.39l-.6-1.08c.24-.14,.49-.27,.76-.39,.27-.12,.55-.21,.83-.27,.29-.07,.58-.11,.89-.11,.5,0,.92,.1,1.26,.3,.34,.2,.6,.49,.77,.88,.17,.38,.26,.87,.26,1.45v3.41h-1.33l-.12-.62h-.05c-.25,.22-.52,.4-.81,.55-.29,.14-.6,.21-.94,.21Zm.55-1.26c.21,0,.4-.05,.56-.14,.17-.1,.34-.24,.51-.4v-1.12c-.45,.06-.81,.13-1.07,.24-.26,.1-.45,.21-.56,.36-.11,.13-.17,.28-.17,.44,0,.21,.07,.37,.2,.48,.13,.1,.31,.15,.52,.15Zm4.23,1.12v-5.9h1.63v5.9h-1.63Zm.82-6.8c-.26,0-.48-.08-.66-.25-.17-.17-.26-.38-.26-.63s.09-.46,.26-.62c.17-.17,.39-.25,.66-.25s.49,.08,.66,.25c.17,.16,.26,.37,.26,.62s-.09,.46-.26,.63c-.17,.17-.39,.25-.66,.25Zm3.95,6.94c-.37,0-.67-.08-.89-.23-.22-.16-.39-.38-.49-.66-.1-.28-.14-.61-.14-.99v-6.63h1.63v6.7c0,.17,.03,.3,.1,.37,.07,.07,.14,.11,.21,.11h.1s.07-.02,.12-.02l.2,1.2c-.1,.04-.21,.07-.35,.1-.13,.03-.3,.05-.49,.05Zm2.41,2.19c-.17,0-.33-.01-.45-.04s-.25-.05-.37-.08l.3-1.24c.06,0,.12,.02,.19,.04,.08,.02,.15,.04,.21,.04,.29,0,.52-.08,.69-.24,.17-.16,.3-.36,.38-.61l.1-.33-2.29-5.76h1.64l.89,2.66c.09,.26,.17,.53,.25,.81,.08,.28,.16,.56,.24,.86h.05c.07-.28,.14-.56,.2-.83,.07-.29,.14-.56,.21-.83l.76-2.66h1.57l-2.07,6.03c-.18,.47-.38,.87-.6,1.19-.21,.33-.48,.58-.79,.75-.31,.17-.69,.26-1.13,.26Zm9.37-2.19c-.35,0-.66-.08-.92-.23-.26-.16-.47-.37-.62-.63-.14-.27-.21-.57-.21-.91,0-.62,.27-1.1,.8-1.45,.53-.35,1.39-.59,2.57-.71,0-.18-.05-.35-.12-.49-.06-.14-.17-.25-.31-.33-.13-.08-.32-.12-.55-.12-.26,0-.52,.05-.79,.15-.25,.1-.52,.23-.8,.39l-.6-1.08c.24-.14,.49-.27,.76-.39,.27-.12,.55-.21,.83-.27,.29-.07,.58-.11,.89-.11,.5,0,.92,.1,1.26,.3,.34,.2,.6,.49,.77,.88,.17,.38,.26,.87,.26,1.45v3.41h-1.33l-.12-.62h-.05c-.25,.22-.52,.4-.81,.55-.29,.14-.6,.21-.94,.21Zm.55-1.26c.21,0,.4-.05,.56-.14,.17-.1,.34-.24,.51-.4v-1.12c-.45,.06-.81,.13-1.07,.24-.26,.1-.45,.21-.56,.36-.11,.13-.17,.28-.17,.44,0,.21,.07,.37,.2,.48,.13,.1,.31,.15,.52,.15Zm6.77,1.26c-.54,0-1.03-.12-1.46-.36-.44-.25-.79-.6-1.05-1.06-.25-.46-.38-1.02-.38-1.67s.14-1.21,.43-1.67c.29-.46,.66-.81,1.12-1.06,.46-.25,.96-.37,1.49-.37,.37,0,.69,.06,.98,.19,.29,.12,.54,.27,.75,.45l-.79,1.06c-.14-.13-.28-.23-.42-.29-.13-.06-.27-.1-.43-.1-.29,0-.55,.08-.77,.23-.21,.14-.38,.35-.5,.62-.12,.26-.18,.57-.18,.93s.06,.67,.18,.94c.12,.26,.28,.46,.49,.61,.21,.14,.46,.21,.73,.21,.21,0,.4-.04,.6-.13,.19-.09,.36-.19,.51-.32l.66,1.07c-.29,.25-.6,.42-.94,.54s-.67,.17-1,.17Zm5.23,0c-.71,0-1.23-.21-1.54-.62-.3-.41-.45-.95-.45-1.62v-2.51h-.81v-1.21l.91-.07,.19-1.57h1.35v1.57h1.44v1.29h-1.44v2.5c0,.33,.07,.58,.2,.74,.14,.15,.34,.23,.58,.23,.1,0,.21-.01,.31-.04,.1-.02,.19-.05,.27-.08l.26,1.19c-.16,.05-.35,.1-.56,.14s-.45,.07-.71,.07Zm2.26-.14v-5.9h1.63v5.9h-1.63Zm.82-6.8c-.26,0-.48-.08-.66-.25-.17-.17-.26-.38-.26-.63s.09-.46,.26-.62c.17-.17,.39-.25,.66-.25s.49,.08,.66,.25c.17,.16,.26,.37,.26,.62s-.09,.46-.26,.63c-.17,.17-.39,.25-.66,.25Zm3.77,6.8l-2-5.9h1.64l.82,2.87c.07,.29,.15,.59,.23,.89,.08,.3,.16,.6,.24,.91h.05c.08-.3,.16-.6,.24-.91,.08-.3,.16-.6,.24-.89l.81-2.87h1.57l-1.95,5.9h-1.88Zm4.77,0v-5.9h1.63v5.9h-1.63Zm.82-6.8c-.26,0-.48-.08-.66-.25-.17-.17-.26-.38-.26-.63s.09-.46,.26-.62c.17-.17,.39-.25,.66-.25s.49,.08,.66,.25c.17,.16,.26,.37,.26,.62s-.09,.46-.26,.63c-.17,.17-.39,.25-.66,.25Zm4.64,6.94c-.71,0-1.23-.21-1.54-.62-.3-.41-.45-.95-.45-1.62v-2.51h-.81v-1.21l.91-.07,.19-1.57h1.35v1.57h1.44v1.29h-1.44v2.5c0,.33,.07,.58,.2,.74,.14,.15,.34,.23,.58,.23,.1,0,.21-.01,.31-.04,.1-.02,.19-.05,.27-.08l.26,1.19c-.16,.05-.35,.1-.56,.14s-.45,.07-.71,.07Zm2.85,2.19c-.17,0-.33-.01-.45-.04-.13-.02-.25-.05-.37-.08l.3-1.24c.06,0,.12,.02,.19,.04,.08,.02,.15,.04,.21,.04,.29,0,.52-.08,.69-.24,.17-.16,.3-.36,.38-.61l.1-.33-2.29-5.76h1.64l.89,2.66c.09,.26,.17,.53,.25,.81,.08,.28,.16,.56,.24,.86h.05c.07-.28,.14-.56,.2-.83,.07-.29,.14-.56,.21-.83l.76-2.66h1.57l-2.07,6.03c-.18,.47-.38,.87-.6,1.19-.21,.33-.48,.58-.79,.75-.31,.17-.69,.26-1.13,.26Z"/>
            <path class="cls-29"
                  d="M126.91,308.98v-.76c1.64-1.65,3-3.1,4.1-4.33,1.11-1.24,1.95-2.34,2.5-3.31,.56-.97,.83-1.89,.83-2.76,0-.94-.26-1.71-.79-2.33-.51-.64-1.33-.95-2.45-.95-.68,0-1.32,.18-1.91,.55s-1.11,.83-1.57,1.41l-.79-.74c.59-.65,1.23-1.19,1.93-1.62,.71-.43,1.54-.64,2.48-.64s1.68,.18,2.33,.55c.65,.35,1.14,.85,1.48,1.5,.35,.64,.52,1.39,.52,2.26,0,1-.29,2.01-.86,3.02-.57,1.02-1.37,2.11-2.41,3.29-1.02,1.16-2.22,2.46-3.6,3.91,.43-.03,.86-.06,1.29-.07,.44-.02,.87-.02,1.29-.02h5.05v1.07h-9.43Zm16.25,.29c-1.46,0-2.6-.69-3.41-2.07-.79-1.38-1.19-3.34-1.19-5.88s.4-4.46,1.19-5.81c.81-1.35,1.95-2.02,3.41-2.02s2.6,.67,3.41,2.02c.81,1.35,1.21,3.29,1.21,5.81s-.4,4.5-1.21,5.88c-.81,1.38-1.95,2.07-3.41,2.07Zm0-1.05c.68,0,1.28-.25,1.79-.76,.51-.51,.9-1.27,1.17-2.29,.29-1.03,.43-2.32,.43-3.86s-.14-2.79-.43-3.81c-.27-1.02-.66-1.76-1.17-2.24-.51-.49-1.1-.74-1.79-.74s-1.28,.25-1.79,.74c-.51,.48-.91,1.22-1.19,2.24-.27,1.02-.4,2.29-.4,3.81s.13,2.83,.4,3.86c.29,1.02,.68,1.78,1.19,2.29,.51,.51,1.1,.76,1.79,.76Zm-12.34,11.44c-.35,0-.65-.07-.9-.21-.24-.15-.44-.36-.6-.64l.56-.41c.11,.2,.24,.34,.38,.43,.14,.09,.3,.13,.47,.13,.26,0,.45-.08,.58-.24,.13-.16,.2-.43,.2-.81v-3.54h.81v3.61c0,.31-.05,.6-.16,.85-.1,.25-.26,.46-.48,.61-.22,.15-.51,.22-.86,.22Zm3.92,0c-.41,0-.71-.13-.91-.4-.19-.26-.29-.64-.29-1.14v-2.45h.8v2.34c0,.34,.05,.58,.16,.73,.11,.14,.27,.21,.5,.21,.18,0,.34-.04,.48-.13,.14-.1,.29-.25,.45-.45v-2.7h.8v3.88h-.66l-.06-.59h-.02c-.17,.21-.36,.37-.56,.5-.2,.12-.43,.18-.7,.18Zm3.23-.1v-3.88h.66l.06,.54h.02c.18-.17,.37-.32,.58-.44,.21-.13,.44-.19,.71-.19,.41,0,.71,.13,.91,.4,.19,.26,.29,.64,.29,1.14v2.45h-.8v-2.34c0-.34-.05-.58-.16-.72-.1-.15-.27-.22-.5-.22-.19,0-.35,.04-.49,.13-.14,.09-.29,.22-.47,.4v2.76h-.8Zm6.02,.1c-.35,0-.67-.08-.96-.24-.28-.16-.51-.4-.67-.7-.17-.3-.25-.67-.25-1.1s.08-.78,.25-1.08c.17-.31,.39-.54,.66-.71,.27-.17,.56-.25,.86-.25,.34,0,.62,.08,.86,.23,.24,.15,.42,.37,.54,.64,.12,.28,.18,.6,.18,.96,0,.07,0,.15-.02,.23,0,.07-.01,.13-.02,.18h-2.68v-.56s2.02,0,2.02,0c0-.34-.07-.6-.22-.79-.14-.19-.36-.28-.64-.28-.17,0-.33,.05-.49,.14-.16,.1-.29,.25-.4,.46-.1,.21-.15,.48-.15,.81s.06,.59,.17,.79c.12,.21,.27,.36,.45,.46,.19,.1,.4,.15,.62,.15,.17,0,.34-.03,.48-.08,.15-.05,.3-.12,.44-.21l.28,.51c-.18,.12-.38,.21-.6,.29-.22,.08-.45,.12-.71,.12Z"/>
            <path class="cls-17"
                  d="M137.09,335.45c16.44,0,29.77-13.33,29.77-29.77s-13.33-29.77-29.77-29.77-29.77,13.33-29.77,29.77,13.33,29.77,29.77,29.77Z"/>
            <path class="cls-16" d="M108.19,299.11c-.57,2.25-.87,4.61-.87,7.03,0,11.09,6.32,20.76,15.67,25.81"/>
            <path class="cls-19" d="M122.67,331.61c4.27,2.44,9.19,3.83,14.42,3.83h0"/>
            <path class="cls-20" d="M137.09,335.45c16.44,0,29.77-13.33,29.77-29.77s-13.33-29.77-29.77-29.77"/>
            <rect class="cls-4" x="88.79" y="374.48" width="211.06" height="169.38" rx="6.62" ry="6.62"/>
            <rect class="cls-15" x="121.58" y="518.88" width="178.1" height=".33"/>
            <rect class="cls-15" x="121.58" y="493.74" width="178.1" height=".33"/>
            <rect class="cls-15" x="121.58" y="468.6" width="178.1" height=".33"/>
            <rect class="cls-15" x="121.58" y="443.46" width="178.1" height=".33"/>
            <rect class="cls-15" x="121.58" y="418.31" width="178.1" height=".33"/>
            <path class="cls-25"
                  d="M108.05,522.12c-.5,0-.89-.23-1.18-.68-.28-.46-.42-1.11-.42-1.96s.14-1.5,.42-1.95c.29-.44,.68-.67,1.18-.67s.89,.22,1.18,.67c.28,.44,.42,1.09,.42,1.94s-.14,1.5-.42,1.96c-.28,.46-.67,.68-1.18,.68Zm0-.47c.21,0,.39-.08,.54-.23,.16-.15,.28-.39,.37-.71s.13-.73,.13-1.23-.04-.91-.13-1.22c-.08-.32-.21-.55-.37-.7-.15-.15-.33-.22-.54-.22s-.39,.07-.54,.22c-.15,.15-.28,.38-.37,.7-.08,.31-.13,.72-.13,1.22s.04,.91,.13,1.23c.09,.32,.21,.56,.37,.71,.15,.15,.33,.23,.54,.23Z"/>
            <path class="cls-25"
                  d="M104.42,496.88v-.34c.52-.52,.96-.98,1.32-1.37,.36-.4,.63-.75,.82-1.06,.19-.31,.28-.61,.28-.89,0-.3-.08-.54-.25-.73-.16-.19-.41-.29-.75-.29-.21,0-.41,.06-.6,.17-.19,.12-.35,.26-.5,.44l-.34-.33c.21-.23,.44-.41,.67-.55,.24-.14,.52-.21,.84-.21s.57,.06,.79,.18c.23,.12,.4,.29,.52,.52,.12,.22,.18,.47,.18,.77,0,.32-.09,.65-.28,.98-.18,.33-.43,.68-.75,1.05-.32,.37-.69,.77-1.1,1.21,.14-.01,.28-.02,.43-.02,.15-.01,.29-.02,.42-.02h1.53v.5h-3.23Zm4.26,0v-5.67h.57v1.57l-.02,.81c.19-.19,.38-.34,.59-.47,.21-.13,.44-.19,.7-.19,.41,0,.7,.13,.89,.38,.19,.25,.29,.63,.29,1.12v2.45h-.58v-2.37c0-.37-.06-.64-.18-.81-.12-.17-.31-.25-.58-.25-.2,0-.38,.05-.55,.16-.16,.1-.35,.25-.56,.46v2.82h-.57Zm4.29,0v-3.85h.48l.05,.71h.02c.13-.24,.29-.44,.48-.58,.19-.15,.4-.22,.62-.22,.08,0,.15,0,.21,.02,.06,.01,.12,.03,.18,.06l-.11,.51c-.06-.02-.12-.04-.17-.05-.05-.01-.11-.02-.19-.02-.16,0-.34,.07-.52,.21-.18,.13-.34,.37-.48,.71v2.51h-.57Zm3.68,.1c-.28,0-.54-.05-.79-.15-.25-.11-.46-.23-.64-.38l.29-.39c.17,.13,.34,.24,.52,.33,.18,.09,.39,.13,.64,.13,.26,0,.46-.06,.6-.19,.13-.13,.2-.28,.2-.45,0-.14-.04-.25-.13-.34-.09-.1-.2-.17-.34-.24-.14-.07-.28-.13-.42-.18-.18-.06-.36-.14-.54-.23-.18-.09-.33-.2-.45-.34-.12-.14-.17-.31-.17-.53,0-.3,.11-.56,.34-.76,.23-.21,.56-.32,.97-.32,.23,0,.45,.04,.65,.13,.2,.08,.37,.19,.52,.3l-.28,.37c-.13-.1-.27-.17-.41-.24-.14-.07-.3-.1-.48-.1-.25,0-.44,.06-.56,.18-.12,.12-.18,.25-.18,.4,0,.13,.04,.23,.12,.32,.08,.08,.19,.15,.33,.21,.13,.06,.27,.12,.42,.17,.19,.07,.38,.15,.56,.24,.19,.08,.34,.2,.46,.34s.18,.34,.18,.59c0,.2-.05,.39-.16,.56-.11,.17-.26,.31-.47,.41-.21,.1-.46,.15-.75,.15Z"/>
            <path class="cls-25"
                  d="M106.53,471.74v-3.46c0-.13,0-.29,.02-.48,.01-.19,.02-.34,.02-.48h-.03c-.06,.12-.13,.23-.2,.34-.07,.11-.14,.23-.21,.36l-1.26,1.83h2.92v.46h-3.54v-.37l2.22-3.26h.62v5.07h-.55Zm2.16,0v-5.67h.57v1.57l-.02,.81c.19-.19,.38-.34,.59-.47,.21-.13,.44-.19,.7-.19,.41,0,.7,.13,.89,.38,.19,.25,.29,.63,.29,1.12v2.45h-.58v-2.37c0-.37-.06-.64-.18-.81-.12-.17-.31-.25-.58-.25-.2,0-.38,.05-.55,.16-.16,.1-.35,.25-.56,.46v2.82h-.57Zm4.29,0v-3.85h.48l.05,.71h.02c.13-.24,.29-.44,.48-.58,.19-.15,.4-.22,.62-.22,.08,0,.15,0,.21,.02,.06,.01,.12,.03,.18,.06l-.11,.51c-.06-.02-.12-.04-.17-.05-.05-.01-.11-.02-.19-.02-.16,0-.34,.07-.52,.21-.18,.13-.34,.37-.48,.71v2.51h-.57Zm3.68,.1c-.28,0-.54-.05-.79-.15-.25-.11-.46-.23-.64-.38l.29-.39c.17,.13,.34,.24,.52,.33,.18,.09,.39,.13,.64,.13,.26,0,.46-.06,.6-.19,.13-.13,.2-.28,.2-.45,0-.14-.04-.25-.13-.34-.09-.1-.2-.17-.34-.24-.14-.07-.28-.13-.42-.18-.18-.06-.36-.14-.54-.23-.18-.09-.33-.2-.45-.34-.12-.14-.17-.31-.17-.53,0-.3,.11-.56,.34-.76,.23-.21,.56-.32,.97-.32,.23,0,.45,.04,.65,.13,.2,.08,.37,.19,.52,.3l-.28,.37c-.13-.1-.27-.17-.41-.24-.14-.07-.3-.1-.48-.1-.25,0-.44,.06-.56,.18-.12,.12-.18,.25-.18,.4,0,.13,.04,.23,.12,.32,.08,.08,.19,.15,.33,.21,.13,.06,.27,.12,.42,.17,.19,.07,.38,.15,.56,.24,.19,.08,.34,.2,.46,.34s.18,.34,.18,.59c0,.2-.05,.39-.16,.56-.11,.17-.26,.31-.47,.41-.21,.1-.46,.15-.75,.15Z"/>
            <path class="cls-25"
                  d="M106.22,446.69c-.25,0-.48-.05-.69-.15-.21-.1-.39-.25-.55-.45-.15-.21-.27-.46-.36-.76-.08-.31-.13-.66-.13-1.06,0-.52,.05-.96,.16-1.32,.11-.36,.25-.65,.42-.87,.18-.22,.38-.38,.61-.48,.23-.11,.47-.16,.72-.16,.26,0,.49,.05,.68,.15,.2,.1,.36,.22,.5,.37l-.33,.37c-.11-.13-.23-.22-.38-.29-.14-.07-.3-.11-.46-.11-.25,0-.48,.07-.69,.22-.21,.15-.37,.39-.5,.74-.13,.34-.19,.8-.19,1.39,0,.41,.04,.77,.13,1.06,.09,.29,.22,.51,.4,.67s.39,.23,.65,.23c.17,0,.32-.05,.46-.14,.14-.1,.25-.24,.33-.41,.08-.17,.12-.37,.12-.6s-.04-.43-.11-.6c-.07-.17-.17-.3-.32-.39-.14-.1-.33-.14-.55-.14-.17,0-.35,.06-.56,.17-.2,.11-.39,.3-.58,.57l-.02-.48c.16-.22,.36-.39,.58-.52s.44-.19,.67-.19c.29,0,.54,.06,.75,.18,.22,.12,.38,.29,.5,.52,.12,.23,.17,.52,.17,.87,0,.32-.07,.6-.2,.84-.13,.24-.31,.43-.53,.56-.22,.14-.47,.21-.74,.21Zm2.47-.1v-5.67h.57v1.57l-.02,.81c.19-.19,.38-.34,.59-.47,.21-.13,.44-.19,.7-.19,.41,0,.7,.13,.89,.38,.19,.25,.29,.63,.29,1.12v2.45h-.58v-2.37c0-.37-.06-.64-.18-.81-.12-.17-.31-.25-.58-.25-.2,0-.38,.05-.55,.16-.16,.1-.35,.25-.56,.46v2.82h-.57Zm4.29,0v-3.85h.48l.05,.71h.02c.13-.24,.29-.44,.48-.58,.19-.15,.4-.22,.62-.22,.08,0,.15,0,.21,.02,.06,.01,.12,.03,.18,.06l-.11,.51c-.06-.02-.12-.04-.17-.05-.05-.01-.11-.02-.19-.02-.16,0-.34,.07-.52,.21-.18,.13-.34,.37-.48,.71v2.51h-.57Zm3.68,.1c-.28,0-.54-.05-.79-.15-.25-.11-.46-.23-.64-.38l.29-.39c.17,.13,.34,.24,.52,.33,.18,.09,.39,.13,.64,.13,.26,0,.46-.06,.6-.19,.13-.13,.2-.28,.2-.45,0-.14-.04-.25-.13-.34-.09-.1-.2-.17-.34-.24-.14-.07-.28-.13-.42-.18-.18-.06-.36-.14-.54-.23-.18-.09-.33-.2-.45-.34-.12-.14-.17-.31-.17-.53,0-.3,.11-.56,.34-.76,.23-.21,.56-.32,.97-.32,.23,0,.45,.04,.65,.13,.2,.08,.37,.19,.52,.3l-.28,.37c-.13-.1-.27-.17-.41-.24-.14-.07-.3-.1-.48-.1-.25,0-.44,.06-.56,.18-.12,.12-.18,.25-.18,.4,0,.13,.04,.23,.12,.32,.08,.08,.19,.15,.33,.21,.13,.06,.27,.12,.42,.17,.19,.07,.38,.15,.56,.24,.19,.08,.34,.2,.46,.34s.18,.34,.18,.59c0,.2-.05,.39-.16,.56-.11,.17-.26,.31-.47,.41-.21,.1-.46,.15-.75,.15Z"/>
            <path class="cls-25"
                  d="M106.07,421.55c-.31,0-.59-.06-.84-.17-.25-.12-.44-.29-.59-.5-.14-.21-.21-.45-.21-.71,0-.22,.05-.42,.14-.6,.1-.17,.22-.33,.37-.46s.3-.24,.46-.33v-.03c-.19-.13-.35-.29-.5-.48-.14-.19-.21-.42-.21-.68s.06-.48,.18-.67c.13-.2,.3-.35,.51-.45s.45-.16,.71-.16c.44,0,.79,.13,1.04,.38,.25,.25,.38,.57,.38,.96,0,.18-.04,.35-.12,.51-.07,.15-.17,.29-.28,.42-.11,.13-.21,.23-.31,.31v.03c.15,.09,.29,.19,.42,.31,.14,.11,.25,.25,.33,.41,.08,.16,.13,.35,.13,.57,0,.25-.07,.48-.2,.68-.13,.2-.32,.36-.56,.48-.24,.12-.53,.18-.85,.18Zm.02-.44c.21,0,.39-.04,.54-.12,.16-.08,.28-.19,.37-.33,.09-.14,.13-.3,.13-.48,0-.23-.07-.42-.2-.56s-.31-.26-.52-.37c-.21-.1-.44-.2-.7-.3-.21,.14-.39,.3-.54,.49-.14,.19-.21,.41-.21,.66,0,.19,.05,.36,.14,.52,.1,.15,.24,.27,.4,.36,.17,.08,.37,.13,.59,.13Zm.34-2.39c.19-.16,.33-.33,.42-.51,.1-.17,.15-.36,.15-.56,0-.17-.04-.32-.11-.46-.07-.14-.17-.26-.31-.34s-.3-.13-.5-.13c-.25,0-.46,.08-.62,.24-.16,.15-.24,.36-.24,.61,0,.21,.06,.39,.17,.52,.12,.14,.27,.25,.45,.35,.19,.1,.38,.19,.59,.27Zm2.26,2.73v-5.67h.57v1.57l-.02,.81c.19-.19,.38-.34,.59-.47,.21-.13,.44-.19,.7-.19,.41,0,.7,.13,.89,.38,.19,.25,.29,.63,.29,1.12v2.45h-.58v-2.37c0-.37-.06-.64-.18-.81-.12-.17-.31-.25-.58-.25-.2,0-.38,.05-.55,.16-.16,.1-.35,.25-.56,.46v2.82h-.57Zm4.29,0v-3.85h.48l.05,.71h.02c.13-.24,.29-.44,.48-.58,.19-.15,.4-.22,.62-.22,.08,0,.15,0,.21,.02,.06,.01,.12,.03,.18,.06l-.11,.51c-.06-.02-.12-.04-.17-.05-.05-.01-.11-.02-.19-.02-.16,0-.34,.07-.52,.21-.18,.13-.34,.37-.48,.71v2.51h-.57Zm3.68,.1c-.28,0-.54-.05-.79-.15-.25-.11-.46-.23-.64-.38l.29-.39c.17,.13,.34,.24,.52,.33,.18,.09,.39,.13,.64,.13,.26,0,.46-.06,.6-.19,.13-.13,.2-.28,.2-.45,0-.14-.04-.25-.13-.34-.09-.1-.2-.17-.34-.24-.14-.07-.28-.13-.42-.18-.18-.06-.36-.14-.54-.23-.18-.09-.33-.2-.45-.34-.12-.14-.17-.31-.17-.53,0-.3,.11-.56,.34-.76,.23-.21,.56-.32,.97-.32,.23,0,.45,.04,.65,.13,.2,.08,.37,.19,.52,.3l-.28,.37c-.13-.1-.27-.17-.41-.24-.14-.07-.3-.1-.48-.1-.25,0-.44,.06-.56,.18-.12,.12-.18,.25-.18,.4,0,.13,.04,.23,.12,.32,.08,.08,.19,.15,.33,.21,.13,.06,.27,.12,.42,.17,.19,.07,.38,.15,.56,.24,.19,.08,.34,.2,.46,.34s.18,.34,.18,.59c0,.2-.05,.39-.16,.56-.11,.17-.26,.31-.47,.41-.21,.1-.46,.15-.75,.15Z"/>
            <path class="cls-14"
                  d="M130.47,438.66h0c1.83,0,3.31,1.48,3.31,3.31v31.1c0,1.83-1.48,3.31-3.31,3.31h0c-1.83,0-3.31-1.48-3.31-3.31v-31.1c0-1.83,1.48-3.31,3.31-3.31Z"/>
            <path class="cls-26"
                  d="M148.05,462.48h0c1.84,0,3.33,1.49,3.33,3.33v9.88c0,1.84-1.49,3.33-3.33,3.33h0c-1.84,0-3.33-1.49-3.33-3.33v-9.88c0-1.84,1.49-3.33,3.33-3.33Z"/>
            <path class="cls-3"
                  d="M165.54,418.15h0c1.83,0,3.31,1.48,3.31,3.31v38.37c0,1.83-1.48,3.31-3.31,3.31h0c-1.83,0-3.31-1.48-3.31-3.31v-38.37c0-1.83,1.48-3.31,3.31-3.31Z"/>
            <path class="cls-14"
                  d="M182.67,439.32h0c1.84,0,3.33,1.49,3.33,3.33v13.19c0,1.84-1.49,3.33-3.33,3.33h0c-1.84,0-3.33-1.49-3.33-3.33v-13.19c0-1.84,1.49-3.33,3.33-3.33Z"/>
            <path class="cls-26"
                  d="M199.98,441.97h0c1.84,0,3.33,1.49,3.33,3.33v21.13c0,1.84-1.49,3.33-3.33,3.33h0c-1.84,0-3.33-1.49-3.33-3.33v-21.13c0-1.84,1.49-3.33,3.33-3.33Z"/>
            <path class="cls-3"
                  d="M217.29,469.76h0c1.84,0,3.33,1.49,3.33,3.33v6.57c0,1.84-1.49,3.33-3.33,3.33h0c-1.84,0-3.33-1.49-3.33-3.33v-6.57c0-1.84,1.49-3.33,3.33-3.33Z"/>
            <path class="cls-3"
                  d="M269.42,446.6h0c1.83,0,3.31,1.48,3.31,3.31v36.39c0,1.83-1.48,3.31-3.31,3.31h0c-1.83,0-3.31-1.48-3.31-3.31v-36.39c0-1.83,1.48-3.31,3.31-3.31Z"/>
            <path class="cls-26"
                  d="M286.53,494.9h0c1.84,0,3.33,1.49,3.33,3.33v1.28c0,1.84-1.49,3.33-3.33,3.33h0c-1.84,0-3.33-1.49-3.33-3.33v-1.28c0-1.84,1.49-3.33,3.33-3.33Z"/>
            <path class="cls-26"
                  d="M251.91,475.05h0c1.84,0,3.33,1.49,3.33,3.33v14.51c0,1.84-1.49,3.33-3.33,3.33h0c-1.84,0-3.33-1.49-3.33-3.33v-14.51c0-1.84,1.49-3.33,3.33-3.33Z"/>
            <path class="cls-14"
                  d="M234.6,450.57h0c1.84,0,3.33,1.49,3.33,3.33v24.44c0,1.84-1.49,3.33-3.33,3.33h0c-1.84,0-3.33-1.49-3.33-3.33v-24.44c0-1.84,1.49-3.33,3.33-3.33Z"/>
            <path class="cls-29"
                  d="M108.17,403.07c-.69,0-1.3-.16-1.83-.49-.52-.33-.93-.79-1.23-1.39-.29-.61-.44-1.34-.44-2.18s.15-1.56,.44-2.16c.29-.6,.7-1.05,1.23-1.36,.53-.32,1.14-.48,1.83-.48s1.3,.16,1.82,.48c.52,.31,.93,.76,1.23,1.36,.29,.6,.44,1.31,.44,2.16s-.15,1.57-.44,2.18c-.29,.6-.7,1.07-1.23,1.39-.52,.33-1.13,.49-1.82,.49Zm0-1.42c.37,0,.68-.11,.95-.32,.28-.21,.49-.52,.63-.92,.15-.4,.23-.87,.23-1.41s-.08-1-.23-1.38c-.14-.39-.35-.69-.63-.89-.27-.21-.59-.31-.95-.31s-.7,.1-.98,.31c-.27,.21-.48,.5-.63,.89-.14,.38-.21,.84-.21,1.38s.07,1.01,.21,1.41c.15,.4,.36,.7,.63,.92,.28,.21,.6,.32,.98,.32Zm6.19,1.27l-2-5.9h1.64l.82,2.87c.07,.29,.15,.59,.23,.89s.16,.6,.24,.91h.05c.08-.3,.16-.6,.24-.91s.16-.6,.24-.89l.81-2.87h1.57l-1.95,5.9h-1.88Zm7.38,.14c-.56,0-1.06-.12-1.51-.37-.44-.25-.8-.6-1.06-1.05-.26-.46-.39-1.02-.39-1.67s.13-1.18,.39-1.64c.27-.46,.62-.82,1.04-1.07,.42-.25,.87-.38,1.33-.38,.55,0,1,.12,1.37,.37,.37,.25,.65,.58,.83,1.01,.19,.42,.29,.9,.29,1.44,0,.14,0,.29-.02,.43-.02,.13-.03,.24-.05,.31h-3.89v-1.08s2.56,0,2.56,0c0-.37-.08-.66-.25-.88-.17-.23-.43-.35-.8-.35-.21,0-.42,.06-.62,.18-.2,.12-.36,.32-.49,.6-.13,.27-.19,.63-.19,1.07s.08,.81,.24,1.08c.17,.26,.38,.45,.63,.57,.25,.12,.52,.18,.81,.18,.24,0,.46-.03,.67-.1,.21-.07,.43-.17,.64-.3l.54,.99c-.29,.2-.62,.36-.99,.48-.36,.12-.71,.18-1.07,.18Zm3.51-.14v-5.9h1.33l.12,1.04h.05c.21-.39,.47-.68,.76-.88,.3-.2,.6-.3,.91-.3,.16,0,.29,.01,.4,.04,.11,.02,.21,.04,.29,.08l-.27,1.42c-.1-.03-.2-.06-.3-.07-.09-.02-.19-.02-.32-.02-.23,0-.47,.08-.71,.25-.25,.17-.45,.46-.62,.88v3.47h-1.63Zm6.11,.14c-.35,0-.66-.08-.92-.23-.26-.16-.47-.37-.62-.63-.14-.27-.21-.57-.21-.91,0-.62,.27-1.1,.8-1.45,.53-.35,1.39-.59,2.57-.71,0-.18-.05-.35-.12-.49-.06-.14-.17-.25-.31-.33-.13-.08-.32-.12-.55-.12-.26,0-.52,.05-.79,.15-.25,.1-.52,.23-.8,.39l-.6-1.08c.24-.14,.49-.27,.76-.39s.55-.21,.83-.27c.29-.07,.58-.11,.89-.11,.5,0,.92,.1,1.26,.3,.34,.2,.6,.49,.77,.88,.17,.38,.26,.87,.26,1.45v3.41h-1.33l-.12-.62h-.05c-.25,.22-.52,.4-.81,.55-.29,.14-.6,.21-.94,.21Zm.55-1.26c.21,0,.4-.05,.56-.14,.17-.1,.34-.24,.51-.4v-1.12c-.45,.06-.81,.13-1.07,.24-.26,.1-.45,.21-.56,.36-.11,.13-.17,.28-.17,.44,0,.21,.07,.37,.2,.48,.13,.1,.31,.15,.52,.15Zm5.76,1.26c-.37,0-.67-.08-.89-.23-.22-.16-.39-.38-.49-.66-.1-.28-.14-.61-.14-.99v-6.63h1.63v6.7c0,.17,.03,.3,.1,.37,.07,.07,.14,.11,.21,.11h.1s.07-.02,.12-.02l.2,1.2c-.1,.04-.21,.07-.35,.1-.13,.03-.3,.05-.49,.05Zm3.35,0c-.37,0-.67-.08-.89-.23-.22-.16-.39-.38-.49-.66-.1-.28-.14-.61-.14-.99v-6.63h1.63v6.7c0,.17,.03,.3,.1,.37,.07,.07,.14,.11,.21,.11h.1s.07-.02,.12-.02l.2,1.2c-.1,.04-.21,.07-.35,.1-.13,.03-.3,.05-.49,.05Zm5.92,0c-.39,0-.79-.08-1.2-.23-.4-.16-.75-.36-1.05-.6l.74-1.02c.27,.2,.53,.35,.79,.46,.25,.11,.51,.17,.77,.17,.28,0,.48-.05,.61-.15,.13-.1,.19-.24,.19-.42,0-.13-.06-.25-.18-.35-.11-.1-.26-.19-.45-.26-.18-.08-.38-.16-.58-.24-.25-.1-.49-.21-.74-.36-.24-.14-.44-.33-.61-.55-.16-.22-.24-.5-.24-.82,0-.54,.2-.98,.61-1.31,.4-.34,.94-.51,1.61-.51,.44,0,.83,.08,1.17,.23,.33,.15,.62,.32,.87,.51l-.73,.99c-.21-.16-.42-.28-.63-.37-.21-.1-.42-.14-.63-.14-.25,0-.43,.05-.56,.15-.12,.1-.18,.22-.18,.38,0,.13,.06,.23,.17,.32,.11,.09,.26,.17,.44,.24,.18,.07,.38,.14,.58,.21,.25,.1,.5,.21,.75,.36,.25,.13,.45,.32,.62,.55,.17,.22,.25,.51,.25,.87s-.09,.67-.27,.95c-.18,.29-.45,.51-.81,.68-.35,.17-.78,.25-1.3,.25Zm5.73,0c-.71,0-1.23-.21-1.54-.62-.3-.41-.45-.95-.45-1.62v-2.51h-.81v-1.21l.91-.07,.19-1.57h1.35v1.57h1.44v1.29h-1.44v2.5c0,.33,.07,.58,.2,.74,.14,.15,.34,.23,.58,.23,.1,0,.21-.01,.31-.04s.19-.05,.27-.08l.26,1.19c-.16,.05-.35,.1-.56,.14-.21,.05-.45,.07-.71,.07Zm3.73,0c-.35,0-.66-.08-.92-.23-.26-.16-.47-.37-.62-.63-.14-.27-.21-.57-.21-.91,0-.62,.27-1.1,.8-1.45,.53-.35,1.39-.59,2.57-.71,0-.18-.05-.35-.12-.49-.06-.14-.17-.25-.31-.33-.13-.08-.32-.12-.55-.12-.26,0-.52,.05-.79,.15-.25,.1-.52,.23-.8,.39l-.6-1.08c.24-.14,.49-.27,.76-.39,.27-.12,.55-.21,.83-.27,.29-.07,.58-.11,.89-.11,.5,0,.92,.1,1.26,.3,.34,.2,.6,.49,.77,.88,.17,.38,.26,.87,.26,1.45v3.41h-1.33l-.12-.62h-.05c-.25,.22-.52,.4-.81,.55-.29,.14-.6,.21-.94,.21Zm.55-1.26c.21,0,.4-.05,.56-.14,.17-.1,.34-.24,.51-.4v-1.12c-.45,.06-.81,.13-1.07,.24-.26,.1-.45,.21-.56,.36-.11,.13-.17,.28-.17,.44,0,.21,.07,.37,.2,.48,.13,.1,.31,.15,.52,.15Zm6.45,1.26c-.71,0-1.23-.21-1.54-.62-.3-.41-.45-.95-.45-1.62v-2.51h-.81v-1.21l.91-.07,.19-1.57h1.35v1.57h1.44v1.29h-1.44v2.5c0,.33,.07,.58,.2,.74,.14,.15,.34,.23,.58,.23,.1,0,.21-.01,.31-.04s.19-.05,.27-.08l.26,1.19c-.16,.05-.35,.1-.56,.14-.21,.05-.45,.07-.71,.07Zm2.26-.14v-5.9h1.63v5.9h-1.63Zm.82-6.8c-.26,0-.48-.08-.66-.25-.17-.17-.26-.38-.26-.63s.09-.46,.26-.62c.17-.17,.39-.25,.66-.25s.49,.08,.66,.25c.17,.16,.26,.37,.26,.62s-.09,.46-.26,.63c-.17,.17-.39,.25-.66,.25Zm4.14,6.94c-.39,0-.79-.08-1.2-.23-.4-.16-.75-.36-1.05-.6l.74-1.02c.27,.2,.53,.35,.79,.46,.25,.11,.51,.17,.77,.17,.28,0,.48-.05,.61-.15s.19-.24,.19-.42c0-.13-.06-.25-.18-.35-.11-.1-.26-.19-.45-.26-.18-.08-.38-.16-.58-.24-.25-.1-.49-.21-.74-.36-.24-.14-.44-.33-.61-.55-.16-.22-.24-.5-.24-.82,0-.54,.2-.98,.61-1.31,.4-.34,.94-.51,1.61-.51,.44,0,.83,.08,1.17,.23,.33,.15,.62,.32,.87,.51l-.73,.99c-.21-.16-.42-.28-.63-.37-.21-.1-.42-.14-.63-.14-.25,0-.43,.05-.56,.15-.12,.1-.18,.22-.18,.38,0,.13,.06,.23,.17,.32,.11,.09,.26,.17,.44,.24,.18,.07,.38,.14,.58,.21,.25,.1,.5,.21,.75,.36,.25,.13,.45,.32,.62,.55,.17,.22,.25,.51,.25,.87s-.09,.67-.27,.95-.45,.51-.81,.68c-.35,.17-.78,.25-1.3,.25Zm5.73,0c-.71,0-1.23-.21-1.54-.62-.3-.41-.45-.95-.45-1.62v-2.51h-.81v-1.21l.91-.07,.19-1.57h1.35v1.57h1.44v1.29h-1.44v2.5c0,.33,.07,.58,.2,.74,.14,.15,.34,.23,.58,.23,.1,0,.21-.01,.31-.04,.1-.02,.19-.05,.27-.08l.26,1.19c-.16,.05-.35,.1-.56,.14-.21,.05-.45,.07-.71,.07Zm2.26-.14v-5.9h1.63v5.9h-1.63Zm.82-6.8c-.26,0-.48-.08-.66-.25-.17-.17-.26-.38-.26-.63s.09-.46,.26-.62c.17-.17,.39-.25,.66-.25s.49,.08,.66,.25c.17,.16,.26,.37,.26,.62s-.09,.46-.26,.63c-.17,.17-.39,.25-.66,.25Zm4.96,6.94c-.54,0-1.03-.12-1.46-.36-.44-.25-.79-.6-1.05-1.06-.25-.46-.38-1.02-.38-1.67s.14-1.21,.43-1.67c.29-.46,.66-.81,1.12-1.06s.96-.37,1.49-.37c.37,0,.69,.06,.98,.19,.29,.12,.54,.27,.75,.45l-.79,1.06c-.14-.13-.28-.23-.42-.29-.13-.06-.27-.1-.43-.1-.29,0-.55,.08-.77,.23-.21,.14-.38,.35-.5,.62-.12,.26-.18,.57-.18,.93s.06,.67,.18,.94c.12,.26,.28,.46,.49,.61,.21,.14,.46,.21,.73,.21,.21,0,.4-.04,.6-.13,.19-.09,.36-.19,.51-.32l.66,1.07c-.29,.25-.6,.42-.94,.54-.34,.11-.67,.17-1,.17Zm4.73,0c-.39,0-.79-.08-1.2-.23-.4-.16-.75-.36-1.05-.6l.74-1.02c.27,.2,.53,.35,.79,.46,.25,.11,.51,.17,.77,.17,.28,0,.48-.05,.61-.15s.19-.24,.19-.42c0-.13-.06-.25-.18-.35-.11-.1-.26-.19-.45-.26-.18-.08-.38-.16-.58-.24-.25-.1-.49-.21-.74-.36-.24-.14-.44-.33-.61-.55-.16-.22-.24-.5-.24-.82,0-.54,.2-.98,.61-1.31,.4-.34,.94-.51,1.61-.51,.44,0,.83,.08,1.17,.23,.33,.15,.62,.32,.87,.51l-.73,.99c-.21-.16-.42-.28-.63-.37-.21-.1-.42-.14-.63-.14-.25,0-.43,.05-.56,.15-.12,.1-.18,.22-.18,.38,0,.13,.06,.23,.17,.32,.11,.09,.26,.17,.44,.24,.18,.07,.38,.14,.58,.21,.25,.1,.5,.21,.75,.36,.25,.13,.45,.32,.62,.55,.17,.22,.25,.51,.25,.87s-.09,.67-.27,.95-.45,.51-.81,.68c-.35,.17-.78,.25-1.3,.25Z"/>
            <path class="cls-4" d="M70.26,509.45c0-9.14,7.41-16.54,16.54-16.54h231.57v63.52H70.26v-46.98Z"/>
            <circle class="cls-22" cx="286.62" cy="516.73" r="11.91"/>
            <path class="cls-24"
                  d="M286.01,509.85c.23-.53,.98-.53,1.21,0l1.39,3.19c.1,.22,.3,.37,.54,.39l3.48,.33c.57,.05,.81,.76,.37,1.14l-2.62,2.3c-.18,.16-.26,.4-.21,.63l.76,3.39c.13,.56-.48,1-.98,.71l-3.01-1.77c-.21-.12-.46-.12-.67,0l-3.01,1.77c-.5,.29-1.11-.15-.98-.71l.76-3.39c.05-.23-.03-.48-.21-.63l-2.62-2.3c-.43-.38-.2-1.09,.37-1.14l3.48-.33c.24-.02,.45-.17,.54-.39l1.39-3.19Z"/>
            <path class="cls-11"
                  d="M239.91,509.45c-2.45,0-4.44,1.96-4.44,4.37v1.87c0,.67-.22,1.33-.63,1.87l-.94,1.23c-.36,.47-.25,1.12,.3,1.35,.99,.42,2.81,.95,5.71,.95s4.72-.53,5.71-.95c.55-.23,.66-.88,.3-1.35l-.94-1.23c-.41-.54-.63-1.2-.63-1.87v-1.87c0-2.41-1.99-4.37-4.44-4.37Zm0,14.19c-.92,0-1.69-.66-1.83-1.53,.55,.05,1.16,.08,1.83,.08s1.27-.03,1.83-.08c-.14,.87-.9,1.53-1.83,1.53Z"/>
            <path class="cls-11"
                  d="M188.19,510.95c-.82,.84-.82,2.19-.82,4.88v5.47c0,.56,0,.84,.07,.99,.16,.32,.52,.48,.85,.36,.15-.05,.35-.25,.73-.65h0c.31-.32,.47-.48,.64-.61,.36-.27,.78-.45,1.23-.52,.21-.03,.43-.03,.88-.03h2.93c2.3,0,3.44,0,4.22-.65,.14-.12,.27-.25,.39-.4,.63-.79,.63-1.97,.63-4.32s0-3.53-.63-4.32c-.12-.14-.25-.28-.39-.4-.77-.65-1.92-.65-4.22-.65h-1.75c-2.63,0-3.95,0-4.77,.84Zm2.32,5.6c.58,0,1.05-.48,1.05-1.07s-.47-1.07-1.05-1.07-1.05,.48-1.05,1.07,.47,1.07,1.05,1.07Zm4.19-1.07c0,.59-.47,1.07-1.05,1.07s-1.05-.48-1.05-1.07,.47-1.07,1.05-1.07,1.05,.48,1.05,1.07Zm2.1,1.07c.58,0,1.05-.48,1.05-1.07s-.47-1.07-1.05-1.07-1.05,.48-1.05,1.07,.47,1.07,1.05,1.07Z"/>
            <path class="cls-25"
                  d="M107.98,520.66v-3.64c0-1.19,0-1.79-.25-2.32-.24-.53-.71-.92-1.63-1.71l-.7-.6c-1.77-1.52-2.65-2.27-3.71-2.27s-1.95,.76-3.71,2.27l-.7,.6c-.92,.79-1.38,1.19-1.63,1.71-.25,.53-.25,1.12-.25,2.32v3.64c0,.63,0,.94,.11,1.19,.14,.33,.41,.59,.76,.73,.26,.1,.58,.1,1.23,.1h.23c.43,0,.65,0,.83-.05,.48-.13,.86-.49,.99-.95,.05-.17,.05-.38,.05-.8v-1.57c0-1.12,.94-2.02,2.1-2.02s2.1,.91,2.1,2.02v1.57c0,.42,0,.63,.05,.8,.13,.47,.51,.83,.99,.95,.18,.05,.39,.05,.83,.05h.23c.65,0,.98,0,1.23-.1,.34-.14,.61-.4,.76-.73,.11-.25,.11-.56,.11-1.19Z"/>
            <path class="cls-25" d="M147.01,522.02c-11.62-6.69-3.22-15,0-9.4,3.22-5.6,11.62,2.72,0,9.4Z"/>
            <path class="cls-32"
                  d="M151.98,540.55h85.35c.91,0,1.65,.74,1.65,1.65h0c0,.91-.74,1.65-1.65,1.65h-85.35c-.91,0-1.65-.74-1.65-1.65h0c0-.91,.74-1.65,1.65-1.65Z"/>
        </g>
    </g>
    <g>
        <path class="cls-6" d="M329.33,143.69h.97c.54,0,.97,.44,.97,.98v64.01c0,.54-.43,.98-.97,.98h-.97v-65.97Z"/>
        <path class="cls-6" d="M59.31,223.38h-.97c-.54,0-.97-.44-.97-.98v-38.54c0-.54,.43-.98,.97-.98h.97v40.49Z"/>
        <path class="cls-1" d="M59.31,169.82h-.97c-.54,0-.97-.44-.97-.98v-38.54c0-.54,.43-.98,.97-.98h.97v40.5Z"/>
        <path class="cls-1" d="M59.31,109.73h-.97c-.54,0-.97-.44-.97-.98v-18.94c0-.54,.43-.98,.97-.98h.97v20.9Z"/>
        <path class="cls-2"
              d="M61.37,29.34c-2.06,6.4-2.06,14.3-2.06,30.1V500.96c0,15.8,0,23.71,2.06,30.1,4.16,12.92,14.21,23.06,27.02,27.26,6.34,2.08,14.17,2.08,29.84,2.08h152.17c15.67,0,23.5,0,29.84-2.08,12.81-4.2,22.86-14.33,27.02-27.26,2.06-6.4,2.06-14.3,2.06-30.1V59.44c0-15.8,0-23.71-2.06-30.1-4.16-12.92-14.21-23.06-27.02-27.26-6.34-2.08-14.17-2.08-29.84-2.08H118.23c-15.67,0-23.5,0-29.84,2.08-12.81,4.2-22.86,14.33-27.02,27.26Zm66.58-13.33v2.94h.05s-.05,.33-.05,.33c0,7.76,6.23,14.04,13.92,14.04h104.9c7.69,0,13.92-6.29,13.92-14.04l-.05-.33h.05s0-2.94,0-2.94c0-1.98,1.59-3.59,3.56-3.59h8.34c13.04,0,19.56,0,24.76,1.98,8.17,3.11,14.62,9.62,17.71,17.87,1.96,5.24,1.96,11.82,1.96,24.97V503.17c0,13.15,0,19.73-1.96,24.97-3.09,8.24-9.54,14.75-17.71,17.87-5.2,1.98-11.72,1.98-24.76,1.98H116.04c-13.04,0-19.56,0-24.76-1.98-8.17-3.11-14.62-9.62-17.71-17.87-1.96-5.24-1.96-11.82-1.96-24.97V57.23c0-13.15,0-19.73,1.96-24.97,3.09-8.24,9.54-14.75,17.71-17.87,5.2-1.98,11.72-1.98,24.76-1.98h8.34c1.97,0,3.56,1.61,3.56,3.59Z"/>
        <path class="cls-7"
              d="M270.67,1.31H117.97c-15.48,0-23.06,0-29.18,2.01-12.42,4.07-22.16,13.89-26.19,26.42-1.99,6.17-2,13.82-2,29.44V501.22c0,15.61,0,23.26,2,29.44,4.04,12.53,13.77,22.35,26.19,26.42,6.12,2.01,13.71,2.01,29.18,2.01h152.69c15.48,0,23.06,0,29.18-2.01,12.42-4.07,22.16-13.89,26.19-26.42,1.99-6.17,2-13.82,2-29.44V59.17c0-15.61,0-23.26-2-29.44-4.04-12.53-13.77-22.35-26.19-26.42-6.12-2.01-13.71-2.01-29.18-2.01ZM61.98,29.54c-2.03,6.3-2.03,14.08-2.03,29.64V501.22c0,15.56,0,23.34,2.03,29.64,4.1,12.73,13.99,22.7,26.61,26.84,6.24,2.05,13.96,2.05,29.38,2.05h152.69c15.43,0,23.14,0,29.38-2.05,12.62-4.13,22.51-14.11,26.61-26.84,2.03-6.3,2.03-14.08,2.03-29.64V59.17c0-15.56,0-23.34-2.03-29.64-4.1-12.73-13.99-22.7-26.61-26.84-6.24-2.05-13.96-2.05-29.38-2.05H117.97c-15.43,0-23.14,0-29.38,2.05-12.62,4.13-22.51,14.11-26.61,26.84Z"/>
        <rect class="cls-35" x="271.7" width="3.89" height="3.27"/>
        <rect class="cls-35" x="326.1" y="56.17" width="3.24" height="3.92"/>
        <rect class="cls-35" x="59.31" y="56.17" width="3.24" height="3.92"/>
        <rect class="cls-35" x="59.31" y="500.31" width="3.24" height="3.92"/>
        <rect class="cls-35" x="326.1" y="500.31" width="3.24" height="3.92"/>
        <rect class="cls-35" x="113.05" y="557.13" width="3.89" height="3.27"/>
        <path class="cls-13"
              d="M64.45,30.34c-1.9,5.9-1.9,13.2-1.9,27.79V502.27c0,14.59,0,21.88,1.9,27.79,3.84,11.93,13.12,21.28,24.95,25.16,5.85,1.92,13.08,1.92,27.55,1.92h154.76c14.46,0,21.69,0,27.55-1.92,11.83-3.88,21.1-13.23,24.95-25.16,1.9-5.9,1.9-13.2,1.9-27.79V58.13c0-14.59,0-21.88-1.9-27.79-3.84-11.93-13.12-21.28-24.95-25.16-5.85-1.92-13.08-1.92-27.55-1.92H116.94c-14.46,0-21.69,0-27.55,1.92-11.83,3.88-21.1,13.23-24.95,25.16Zm63.5-14.34v2.94h.05s-.05,.33-.05,.33c0,7.76,6.23,14.04,13.92,14.04h104.9c7.69,0,13.92-6.29,13.92-14.04l-.05-.33h.05s0-2.94,0-2.94c0-1.98,1.59-3.59,3.56-3.59h8.34c13.04,0,19.56,0,24.76,1.98,8.17,3.11,14.62,9.62,17.71,17.87,1.96,5.24,1.96,11.82,1.96,24.97V503.17c0,13.15,0,19.73-1.96,24.97-3.09,8.24-9.54,14.75-17.71,17.87-5.2,1.98-11.72,1.98-24.76,1.98H116.04c-13.04,0-19.56,0-24.76-1.98-8.17-3.11-14.62-9.62-17.71-17.87-1.96-5.24-1.96-11.82-1.96-24.97V57.23c0-13.15,0-19.73,1.96-24.97,3.09-8.24,9.54-14.75,17.71-17.87,5.2-1.98,11.72-1.98,24.76-1.98h8.34c1.97,0,3.56,1.61,3.56,3.59Z"/>
        <path class="cls-8"
              d="M221.84,26.13c2.86,0,5.18-2.34,5.18-5.23s-2.32-5.23-5.18-5.23-5.18,2.34-5.18,5.23,2.32,5.23,5.18,5.23Z"/>
        <path class="cls-13"
              d="M221.84,24.17c1.79,0,3.24-1.46,3.24-3.27s-1.45-3.27-3.24-3.27-3.24,1.46-3.24,3.27,1.45,3.27,3.24,3.27Z"/>
        <path class="cls-12" d="M221.84,20.25c.36,0,.65-.29,.65-.65s-.29-.65-.65-.65-.65,.29-.65,.65,.29,.65,.65,.65Z"/>
        <path class="cls-8"
              d="M178.46,20.9c0-1.08,.88-1.96,1.96-1.96h27.81c1.08,0,1.96,.88,1.96,1.96s-.88,1.96-1.96,1.96h-27.81c-1.08,0-1.96-.88-1.96-1.96Z"/>
    </g>
</svg>
