<svg width="46" height="46" viewBox="0 0 46 46" fill="none" xmlns="http://www.w3.org/2000/svg">
    <g clip-path="url(#clip0_261_540)">
        <path
            d="M36.5 0.5H9.5C4.52944 0.5 0.5 4.52944 0.5 9.5V36.5C0.5 41.4706 4.52944 45.5 9.5 45.5H36.5C41.4706 45.5 45.5 41.4706 45.5 36.5V9.5C45.5 4.52944 41.4706 0.5 36.5 0.5Z"
            fill="white"/>
        <path
            d="M36.5 0.949951H9.49995C4.77792 0.949951 0.949951 4.77792 0.949951 9.49995V36.5C0.949951 41.222 4.77792 45.0499 9.49995 45.0499H36.5C41.222 45.0499 45.0499 41.222 45.0499 36.5V9.49995C45.0499 4.77792 41.222 0.949951 36.5 0.949951Z"
            stroke="#F4B41A" stroke-width="0.9"/>
        <path d="M27.4189 17.627C29.2189 18.878 30.4609 20.867 30.7129 23.162" stroke="#F4B41A" stroke-width="1.35"
              stroke-linecap="round" stroke-linejoin="round"/>
        <path d="M15.2959 23.207C15.5299 20.921 16.7539 18.932 18.5359 17.672" stroke="#F4B41A" stroke-width="1.35"
              stroke-linecap="round" stroke-linejoin="round"/>
        <path
            d="M19.5259 30.92C20.5699 31.451 21.7579 31.748 23.0089 31.748C24.2149 31.748 25.3489 31.478 26.3659 30.983"
            stroke="#F4B41A" stroke-width="1.35" stroke-linecap="round" stroke-linejoin="round"/>
        <path
            d="M23.0091 19.004C24.3909 19.004 25.5111 17.8839 25.5111 16.502C25.5111 15.1201 24.3909 14 23.0091 14C21.6272 14 20.5071 15.1201 20.5071 16.502C20.5071 17.8839 21.6272 19.004 23.0091 19.004Z"
            stroke="#F4B41A" stroke-width="1.35" stroke-linecap="round" stroke-linejoin="round"/>
        <path
            d="M16.502 30.002C17.8839 30.002 19.004 28.8818 19.004 27.5C19.004 26.1182 17.8839 24.998 16.502 24.998C15.1201 24.998 14 26.1182 14 27.5C14 28.8818 15.1201 30.002 16.502 30.002Z"
            stroke="#F4B41A" stroke-width="1.35" stroke-linecap="round" stroke-linejoin="round"/>
        <path
            d="M29.408 30.002C30.7898 30.002 31.91 28.8818 31.91 27.5C31.91 26.1182 30.7898 24.998 29.408 24.998C28.0261 24.998 26.906 26.1182 26.906 27.5C26.906 28.8818 28.0261 30.002 29.408 30.002Z"
            stroke="#F4B41A" stroke-width="1.35" stroke-linecap="round" stroke-linejoin="round"/>
    </g>
    <defs>
        <clipPath id="clip0_261_540">
            <rect width="45" height="45" fill="white" transform="translate(0.5 0.5)"/>
        </clipPath>
    </defs>
</svg>
